<mxfile host="Electron" modified="2024-04-20T17:14:19.746Z" agent="Mozilla/5.0 (X11; Linux x86_64) AppleWebKit/537.36 (KHTML, like Gecko) draw.io/24.2.5 Chrome/120.0.6099.109 Electron/28.1.0 Safari/537.36" etag="-hp_AvxzMQrqetRhL8V1" version="24.2.5" type="device">
  <diagram name="Page-1" id="099fd60b-425b-db50-ffb0-6b813814b670">
    <mxGraphModel dx="1847" dy="515" grid="1" gridSize="10" guides="1" tooltips="1" connect="1" arrows="1" fold="1" page="1" pageScale="1" pageWidth="1169" pageHeight="827" background="none" math="0" shadow="0">
      <root>
        <mxCell id="0" />
        <mxCell id="1" parent="0" />
        <mxCell id="9fai15Jy2hckLmUoozY7-231" value="&lt;font style=&quot;font-size: 22px;&quot;&gt;Nav Station&lt;/font&gt;" style="rounded=0;whiteSpace=wrap;html=1;fillColor=none;strokeWidth=2;dashed=1;align=right;labelPosition=center;verticalLabelPosition=top;verticalAlign=bottom;strokeColor=default;fontFamily=Helvetica;fontSize=22;fontColor=default;labelBackgroundColor=default;movable=1;resizable=1;rotatable=1;deletable=1;editable=1;locked=0;connectable=1;" parent="1" vertex="1">
          <mxGeometry x="140" y="370" width="1020" height="930" as="geometry" />
        </mxCell>
        <mxCell id="9fai15Jy2hckLmUoozY7-481" value="Engine Volve Penta MD2040" style="rounded=0;whiteSpace=wrap;html=1;fillColor=none;strokeWidth=2;dashed=1;labelPosition=center;verticalLabelPosition=top;align=left;verticalAlign=bottom;" parent="1" vertex="1">
          <mxGeometry x="20" y="1340" width="650" height="290" as="geometry" />
        </mxCell>
        <mxCell id="9fai15Jy2hckLmUoozY7-363" value="&lt;font style=&quot;font-size: 22px;&quot;&gt;Light positions in cabins&lt;/font&gt;" style="rounded=0;whiteSpace=wrap;html=1;fillColor=none;align=left;labelPosition=center;verticalLabelPosition=top;verticalAlign=bottom;strokeWidth=2;dashed=1;movable=0;resizable=0;rotatable=0;deletable=0;editable=0;locked=1;connectable=0;" parent="1" vertex="1">
          <mxGeometry x="-830" y="30" width="290" height="820" as="geometry" />
        </mxCell>
        <mxCell id="9fai15Jy2hckLmUoozY7-302" value="&lt;font style=&quot;font-size: 22px;&quot;&gt;Outside&lt;/font&gt;" style="rounded=0;whiteSpace=wrap;html=1;fillColor=none;align=left;labelPosition=center;verticalLabelPosition=top;verticalAlign=bottom;spacingTop=0;movable=1;resizable=1;rotatable=1;deletable=1;editable=1;locked=0;connectable=1;strokeWidth=2;dashed=1;" parent="1" vertex="1">
          <mxGeometry x="-480" y="30" width="410" height="1070" as="geometry" />
        </mxCell>
        <mxCell id="9fai15Jy2hckLmUoozY7-297" style="edgeStyle=orthogonalEdgeStyle;rounded=0;orthogonalLoop=1;jettySize=auto;html=1;entryX=-0.011;entryY=0.73;entryDx=0;entryDy=0;entryPerimeter=0;strokeColor=#FF00FF;strokeWidth=3;align=center;verticalAlign=middle;fontFamily=Helvetica;fontSize=11;fontColor=default;labelBackgroundColor=default;endArrow=none;endFill=0;" parent="1" source="9fai15Jy2hckLmUoozY7-23" target="9fai15Jy2hckLmUoozY7-295" edge="1">
          <mxGeometry relative="1" as="geometry">
            <Array as="points">
              <mxPoint x="70" y="866" />
            </Array>
          </mxGeometry>
        </mxCell>
        <mxCell id="9fai15Jy2hckLmUoozY7-292" style="edgeStyle=orthogonalEdgeStyle;rounded=0;orthogonalLoop=1;jettySize=auto;html=1;strokeColor=#6c8ebf;strokeWidth=3;align=center;verticalAlign=middle;fontFamily=Helvetica;fontSize=11;fontColor=default;labelBackgroundColor=default;endArrow=none;endFill=0;fillColor=#dae8fc;" parent="1" source="9fai15Jy2hckLmUoozY7-94" target="9fai15Jy2hckLmUoozY7-290" edge="1">
          <mxGeometry relative="1" as="geometry" />
        </mxCell>
        <mxCell id="9fai15Jy2hckLmUoozY7-233" style="edgeStyle=orthogonalEdgeStyle;rounded=0;orthogonalLoop=1;jettySize=auto;html=1;entryX=0.5;entryY=0;entryDx=0;entryDy=0;entryPerimeter=0;strokeColor=#FFD966;strokeWidth=3;align=center;verticalAlign=middle;fontFamily=Helvetica;fontSize=11;fontColor=default;labelBackgroundColor=default;endArrow=none;endFill=0;" parent="1" source="9fai15Jy2hckLmUoozY7-132" target="9fai15Jy2hckLmUoozY7-232" edge="1">
          <mxGeometry relative="1" as="geometry">
            <Array as="points">
              <mxPoint x="562" y="380" />
              <mxPoint x="1065" y="380" />
              <mxPoint x="1065" y="410" />
            </Array>
          </mxGeometry>
        </mxCell>
        <mxCell id="9fai15Jy2hckLmUoozY7-167" style="edgeStyle=orthogonalEdgeStyle;rounded=0;orthogonalLoop=1;jettySize=auto;html=1;entryX=0.6;entryY=0.667;entryDx=0;entryDy=0;entryPerimeter=0;strokeColor=#6c8ebf;strokeWidth=2;align=center;verticalAlign=middle;fontFamily=Helvetica;fontSize=11;fontColor=default;labelBackgroundColor=default;endArrow=none;endFill=0;fillColor=#dae8fc;" parent="1" source="9fai15Jy2hckLmUoozY7-142" target="9fai15Jy2hckLmUoozY7-52" edge="1">
          <mxGeometry relative="1" as="geometry" />
        </mxCell>
        <mxCell id="9fai15Jy2hckLmUoozY7-141" style="edgeStyle=orthogonalEdgeStyle;rounded=0;orthogonalLoop=1;jettySize=auto;html=1;entryX=0.556;entryY=1.04;entryDx=0;entryDy=0;entryPerimeter=0;strokeColor=#0000FF;strokeWidth=3;align=center;verticalAlign=middle;fontFamily=Helvetica;fontSize=11;fontColor=default;labelBackgroundColor=default;endArrow=none;endFill=0;" parent="1" source="9fai15Jy2hckLmUoozY7-130" target="9fai15Jy2hckLmUoozY7-15" edge="1">
          <mxGeometry relative="1" as="geometry">
            <Array as="points">
              <mxPoint x="660" y="250" />
              <mxPoint x="440" y="250" />
            </Array>
          </mxGeometry>
        </mxCell>
        <mxCell id="9fai15Jy2hckLmUoozY7-134" style="edgeStyle=orthogonalEdgeStyle;rounded=0;orthogonalLoop=1;jettySize=auto;html=1;strokeColor=#d6b656;strokeWidth=3;align=center;verticalAlign=middle;fontFamily=Helvetica;fontSize=11;fontColor=default;labelBackgroundColor=default;endArrow=none;endFill=0;entryX=0.98;entryY=0.02;entryDx=0;entryDy=0;entryPerimeter=0;fillColor=#fff2cc;" parent="1" source="9fai15Jy2hckLmUoozY7-133" target="9fai15Jy2hckLmUoozY7-52" edge="1">
          <mxGeometry relative="1" as="geometry">
            <Array as="points">
              <mxPoint x="440" y="521" />
              <mxPoint x="480" y="521" />
              <mxPoint x="480" y="611" />
            </Array>
          </mxGeometry>
        </mxCell>
        <mxCell id="9fai15Jy2hckLmUoozY7-139" style="edgeStyle=orthogonalEdgeStyle;rounded=0;orthogonalLoop=1;jettySize=auto;html=1;entryX=0.389;entryY=0.6;entryDx=0;entryDy=0;entryPerimeter=0;strokeColor=#0000FF;strokeWidth=3;align=center;verticalAlign=middle;fontFamily=Helvetica;fontSize=11;fontColor=default;labelBackgroundColor=default;endArrow=none;endFill=0;" parent="1" source="9fai15Jy2hckLmUoozY7-132" target="9fai15Jy2hckLmUoozY7-14" edge="1">
          <mxGeometry relative="1" as="geometry">
            <Array as="points">
              <mxPoint x="550" y="260" />
              <mxPoint x="429" y="260" />
            </Array>
          </mxGeometry>
        </mxCell>
        <mxCell id="9fai15Jy2hckLmUoozY7-138" style="edgeStyle=orthogonalEdgeStyle;rounded=0;orthogonalLoop=1;jettySize=auto;html=1;strokeColor=#0000FF;strokeWidth=3;align=center;verticalAlign=middle;fontFamily=Helvetica;fontSize=11;fontColor=default;labelBackgroundColor=default;endArrow=none;endFill=0;" parent="1" source="9fai15Jy2hckLmUoozY7-13" target="9fai15Jy2hckLmUoozY7-133" edge="1">
          <mxGeometry relative="1" as="geometry">
            <Array as="points">
              <mxPoint x="422" y="270" />
              <mxPoint x="440" y="270" />
            </Array>
          </mxGeometry>
        </mxCell>
        <mxCell id="9fai15Jy2hckLmUoozY7-9" style="edgeStyle=orthogonalEdgeStyle;rounded=0;orthogonalLoop=1;jettySize=auto;html=1;exitX=0;exitY=0.3;exitDx=0;exitDy=0;exitPerimeter=0;entryX=1;entryY=0.8;entryDx=0;entryDy=0;shape=link;strokeColor=#0000FF;strokeWidth=3;align=center;verticalAlign=middle;fontFamily=Helvetica;fontSize=11;fontColor=default;labelBackgroundColor=default;endArrow=classic;" parent="1" source="9fai15Jy2hckLmUoozY7-1" target="9fai15Jy2hckLmUoozY7-8" edge="1">
          <mxGeometry relative="1" as="geometry" />
        </mxCell>
        <mxCell id="9fai15Jy2hckLmUoozY7-1" value="Battery monitor shunt" style="pointerEvents=1;verticalLabelPosition=bottom;shadow=0;dashed=0;align=center;html=1;verticalAlign=top;shape=mxgraph.electrical.inductors.current_transformer_3;" parent="1" vertex="1">
          <mxGeometry x="720" y="210" width="75" height="10" as="geometry" />
        </mxCell>
        <mxCell id="9fai15Jy2hckLmUoozY7-6" style="edgeStyle=orthogonalEdgeStyle;rounded=0;orthogonalLoop=1;jettySize=auto;html=1;exitX=1;exitY=0.3;exitDx=0;exitDy=0;exitPerimeter=0;shape=link;strokeColor=#0000FF;strokeWidth=3;" parent="1" source="9fai15Jy2hckLmUoozY7-4" target="dnTUehm-ubC7icJpAnx4-3" edge="1">
          <mxGeometry relative="1" as="geometry" />
        </mxCell>
        <mxCell id="9fai15Jy2hckLmUoozY7-4" value="200Ah monitor shunt&lt;br&gt;Victron Smart Shunt Bluetooth" style="pointerEvents=1;verticalLabelPosition=bottom;shadow=0;dashed=0;align=center;html=1;verticalAlign=top;shape=mxgraph.electrical.inductors.current_transformer_3;" parent="1" vertex="1">
          <mxGeometry x="1007.5" y="225" width="75" height="10" as="geometry" />
        </mxCell>
        <mxCell id="9fai15Jy2hckLmUoozY7-8" value="Main circuit breaker" style="pointerEvents=1;verticalLabelPosition=bottom;shadow=0;dashed=0;align=center;html=1;verticalAlign=top;shape=mxgraph.electrical.electro-mechanical.circuitBreaker2;elSwitchState=off;" parent="1" vertex="1">
          <mxGeometry x="560" y="180" width="75" height="20" as="geometry" />
        </mxCell>
        <mxCell id="9fai15Jy2hckLmUoozY7-10" value="" style="verticalLabelPosition=bottom;dashed=0;shadow=0;html=1;align=center;verticalAlign=top;shape=mxgraph.cabinets.cb_1p;" parent="1" vertex="1">
          <mxGeometry x="390" y="185" width="9" height="50" as="geometry" />
        </mxCell>
        <mxCell id="9fai15Jy2hckLmUoozY7-11" value="" style="verticalLabelPosition=bottom;dashed=0;shadow=0;html=1;align=center;verticalAlign=top;shape=mxgraph.cabinets.cb_1p;" parent="1" vertex="1">
          <mxGeometry x="399" y="185" width="9" height="50" as="geometry" />
        </mxCell>
        <mxCell id="9fai15Jy2hckLmUoozY7-12" value="" style="verticalLabelPosition=bottom;dashed=0;shadow=0;html=1;align=center;verticalAlign=top;shape=mxgraph.cabinets.cb_1p;" parent="1" vertex="1">
          <mxGeometry x="408" y="185" width="9" height="50" as="geometry" />
        </mxCell>
        <mxCell id="9fai15Jy2hckLmUoozY7-13" value="" style="verticalLabelPosition=bottom;dashed=0;shadow=0;html=1;align=center;verticalAlign=top;shape=mxgraph.cabinets.cb_1p;" parent="1" vertex="1">
          <mxGeometry x="417" y="185" width="9" height="50" as="geometry" />
        </mxCell>
        <mxCell id="9fai15Jy2hckLmUoozY7-14" value="" style="verticalLabelPosition=bottom;dashed=0;shadow=0;html=1;align=center;verticalAlign=top;shape=mxgraph.cabinets.cb_1p;" parent="1" vertex="1">
          <mxGeometry x="426" y="185" width="9" height="50" as="geometry" />
        </mxCell>
        <mxCell id="9fai15Jy2hckLmUoozY7-15" value="&lt;span style=&quot;color: rgb(0, 0, 0); font-family: Helvetica; font-size: 12px; font-style: normal; font-variant-ligatures: normal; font-variant-caps: normal; font-weight: 400; letter-spacing: normal; orphans: 2; text-align: center; text-indent: 0px; text-transform: none; widows: 2; word-spacing: 0px; -webkit-text-stroke-width: 0px; white-space: nowrap; background-color: rgb(251, 251, 251); text-decoration-thickness: initial; text-decoration-style: initial; text-decoration-color: initial; display: inline !important; float: none;&quot;&gt;Main fuse and switch board&lt;/span&gt;" style="verticalLabelPosition=bottom;dashed=0;shadow=0;html=1;align=center;verticalAlign=top;shape=mxgraph.cabinets.cb_1p;" parent="1" vertex="1">
          <mxGeometry x="435" y="185" width="9" height="50" as="geometry" />
        </mxCell>
        <mxCell id="9fai15Jy2hckLmUoozY7-16" value="" style="verticalLabelPosition=bottom;dashed=0;shadow=0;html=1;align=center;verticalAlign=top;shape=mxgraph.cabinets.cb_1p;" parent="1" vertex="1">
          <mxGeometry x="444" y="185" width="9" height="50" as="geometry" />
        </mxCell>
        <mxCell id="9fai15Jy2hckLmUoozY7-17" value="" style="verticalLabelPosition=bottom;dashed=0;shadow=0;html=1;align=center;verticalAlign=top;shape=mxgraph.cabinets.cb_1p;" parent="1" vertex="1">
          <mxGeometry x="453" y="185" width="9" height="50" as="geometry" />
        </mxCell>
        <mxCell id="9fai15Jy2hckLmUoozY7-18" value="" style="verticalLabelPosition=bottom;dashed=0;shadow=0;html=1;align=center;verticalAlign=top;shape=mxgraph.cabinets.cb_1p;" parent="1" vertex="1">
          <mxGeometry x="462" y="185" width="9" height="50" as="geometry" />
        </mxCell>
        <mxCell id="9fai15Jy2hckLmUoozY7-19" value="" style="verticalLabelPosition=bottom;dashed=0;shadow=0;html=1;align=center;verticalAlign=top;shape=mxgraph.cabinets.cb_1p;" parent="1" vertex="1">
          <mxGeometry x="471" y="185" width="9" height="50" as="geometry" />
        </mxCell>
        <mxCell id="9fai15Jy2hckLmUoozY7-20" style="edgeStyle=orthogonalEdgeStyle;rounded=0;orthogonalLoop=1;jettySize=auto;html=1;exitX=0;exitY=0.8;exitDx=0;exitDy=0;entryX=1.333;entryY=0.6;entryDx=0;entryDy=0;entryPerimeter=0;shape=link;strokeColor=#0000FF;strokeWidth=3;align=center;verticalAlign=middle;fontFamily=Helvetica;fontSize=11;fontColor=default;labelBackgroundColor=default;endArrow=classic;" parent="1" source="9fai15Jy2hckLmUoozY7-8" target="9fai15Jy2hckLmUoozY7-19" edge="1">
          <mxGeometry relative="1" as="geometry" />
        </mxCell>
        <mxCell id="9fai15Jy2hckLmUoozY7-41" style="edgeStyle=orthogonalEdgeStyle;rounded=0;orthogonalLoop=1;jettySize=auto;html=1;entryX=1;entryY=0.5;entryDx=0;entryDy=0;strokeColor=#FF3333;endArrow=none;endFill=0;strokeWidth=4;" parent="1" target="9fai15Jy2hckLmUoozY7-24" edge="1">
          <mxGeometry relative="1" as="geometry">
            <mxPoint x="30" y="150" as="sourcePoint" />
            <Array as="points">
              <mxPoint x="-50" y="150" />
              <mxPoint x="-50" y="135" />
            </Array>
          </mxGeometry>
        </mxCell>
        <mxCell id="9fai15Jy2hckLmUoozY7-21" value="B&amp;amp;G H2000 mainprocessor" style="sketch=0;pointerEvents=1;shadow=0;dashed=0;html=1;strokeColor=none;fillColor=#434445;aspect=fixed;labelPosition=center;verticalLabelPosition=bottom;verticalAlign=top;align=center;outlineConnect=0;shape=mxgraph.vvd.cpu;" parent="1" vertex="1">
          <mxGeometry x="30" y="130" width="50" height="50" as="geometry" />
        </mxCell>
        <mxCell id="9fai15Jy2hckLmUoozY7-42" style="edgeStyle=orthogonalEdgeStyle;rounded=0;orthogonalLoop=1;jettySize=auto;html=1;strokeColor=#FF3333;strokeWidth=4;align=center;verticalAlign=middle;fontFamily=Helvetica;fontSize=11;fontColor=default;labelBackgroundColor=default;endArrow=none;endFill=0;" parent="1" source="9fai15Jy2hckLmUoozY7-22" edge="1">
          <mxGeometry relative="1" as="geometry">
            <mxPoint x="30" y="150" as="targetPoint" />
            <Array as="points">
              <mxPoint x="-50" y="230" />
              <mxPoint x="-50" y="150" />
            </Array>
          </mxGeometry>
        </mxCell>
        <mxCell id="9fai15Jy2hckLmUoozY7-110" style="edgeStyle=orthogonalEdgeStyle;rounded=0;orthogonalLoop=1;jettySize=auto;html=1;strokeColor=#6c8ebf;strokeWidth=3;align=center;verticalAlign=middle;fontFamily=Helvetica;fontSize=11;fontColor=default;labelBackgroundColor=default;endArrow=none;endFill=0;fillColor=#dae8fc;" parent="1" source="9fai15Jy2hckLmUoozY7-22" target="9fai15Jy2hckLmUoozY7-56" edge="1">
          <mxGeometry relative="1" as="geometry" />
        </mxCell>
        <mxCell id="9fai15Jy2hckLmUoozY7-22" value="B&amp;amp;G H2000 Performance processor&amp;nbsp;" style="sketch=0;pointerEvents=1;shadow=0;dashed=0;html=1;strokeColor=none;fillColor=#434445;aspect=fixed;labelPosition=center;verticalLabelPosition=bottom;verticalAlign=top;align=center;outlineConnect=0;shape=mxgraph.vvd.cpu;" parent="1" vertex="1">
          <mxGeometry x="30" y="205" width="50" height="50" as="geometry" />
        </mxCell>
        <mxCell id="9fai15Jy2hckLmUoozY7-109" style="edgeStyle=orthogonalEdgeStyle;rounded=0;orthogonalLoop=1;jettySize=auto;html=1;strokeColor=#6c8ebf;strokeWidth=3;align=center;verticalAlign=middle;fontFamily=Helvetica;fontSize=11;fontColor=default;labelBackgroundColor=default;endArrow=none;endFill=0;fillColor=#dae8fc;" parent="1" source="9fai15Jy2hckLmUoozY7-23" target="9fai15Jy2hckLmUoozY7-57" edge="1">
          <mxGeometry relative="1" as="geometry">
            <Array as="points">
              <mxPoint x="140" y="300" />
              <mxPoint x="140" y="300" />
            </Array>
          </mxGeometry>
        </mxCell>
        <mxCell id="9fai15Jy2hckLmUoozY7-26" value="" style="group" parent="1" vertex="1" connectable="0">
          <mxGeometry x="-180" y="110" width="80" height="50" as="geometry" />
        </mxCell>
        <mxCell id="9fai15Jy2hckLmUoozY7-24" value="" style="rounded=0;whiteSpace=wrap;html=1;" parent="9fai15Jy2hckLmUoozY7-26" vertex="1">
          <mxGeometry width="80" height="50" as="geometry" />
        </mxCell>
        <mxCell id="9fai15Jy2hckLmUoozY7-25" value="" style="rounded=0;whiteSpace=wrap;html=1;" parent="9fai15Jy2hckLmUoozY7-26" vertex="1">
          <mxGeometry x="6.666666666666666" y="8.333333333333332" width="66.66666666666666" height="33.33333333333333" as="geometry" />
        </mxCell>
        <mxCell id="9fai15Jy2hckLmUoozY7-30" value="" style="group" parent="1" vertex="1" connectable="0">
          <mxGeometry x="-180" y="280" width="80" height="50" as="geometry" />
        </mxCell>
        <mxCell id="9fai15Jy2hckLmUoozY7-31" value="" style="rounded=0;whiteSpace=wrap;html=1;" parent="9fai15Jy2hckLmUoozY7-30" vertex="1">
          <mxGeometry width="80" height="50" as="geometry" />
        </mxCell>
        <mxCell id="9fai15Jy2hckLmUoozY7-32" value="" style="rounded=0;whiteSpace=wrap;html=1;" parent="9fai15Jy2hckLmUoozY7-30" vertex="1">
          <mxGeometry x="6.666666666666666" y="8.333333333333332" width="66.66666666666666" height="33.33333333333333" as="geometry" />
        </mxCell>
        <mxCell id="9fai15Jy2hckLmUoozY7-33" value="" style="group" parent="1" vertex="1" connectable="0">
          <mxGeometry x="-180" y="170" width="80" height="50" as="geometry" />
        </mxCell>
        <mxCell id="9fai15Jy2hckLmUoozY7-34" value="" style="rounded=0;whiteSpace=wrap;html=1;" parent="9fai15Jy2hckLmUoozY7-33" vertex="1">
          <mxGeometry width="80" height="50" as="geometry" />
        </mxCell>
        <mxCell id="9fai15Jy2hckLmUoozY7-35" value="" style="rounded=0;whiteSpace=wrap;html=1;" parent="9fai15Jy2hckLmUoozY7-33" vertex="1">
          <mxGeometry x="6.666666666666666" y="8.333333333333332" width="66.66666666666666" height="33.33333333333333" as="geometry" />
        </mxCell>
        <mxCell id="9fai15Jy2hckLmUoozY7-37" value="" style="group" parent="1" vertex="1" connectable="0">
          <mxGeometry x="-180" y="225" width="80" height="50" as="geometry" />
        </mxCell>
        <mxCell id="9fai15Jy2hckLmUoozY7-38" value="" style="rounded=0;whiteSpace=wrap;html=1;" parent="9fai15Jy2hckLmUoozY7-37" vertex="1">
          <mxGeometry width="80" height="50" as="geometry" />
        </mxCell>
        <mxCell id="9fai15Jy2hckLmUoozY7-39" value="" style="rounded=0;whiteSpace=wrap;html=1;" parent="9fai15Jy2hckLmUoozY7-37" vertex="1">
          <mxGeometry x="6.666666666666666" y="8.333333333333332" width="66.66666666666666" height="33.33333333333333" as="geometry" />
        </mxCell>
        <mxCell id="9fai15Jy2hckLmUoozY7-27" value="" style="group;verticalAlign=bottom;" parent="1" vertex="1" connectable="0">
          <mxGeometry x="-180" y="340" width="80" height="50" as="geometry" />
        </mxCell>
        <mxCell id="9fai15Jy2hckLmUoozY7-28" value="5 x B&amp;amp;G 20/20 Displays on mast" style="rounded=0;whiteSpace=wrap;html=1;verticalAlign=top;labelPosition=center;verticalLabelPosition=bottom;align=center;" parent="9fai15Jy2hckLmUoozY7-27" vertex="1">
          <mxGeometry width="80" height="50" as="geometry" />
        </mxCell>
        <mxCell id="9fai15Jy2hckLmUoozY7-29" value="" style="rounded=0;whiteSpace=wrap;html=1;" parent="9fai15Jy2hckLmUoozY7-27" vertex="1">
          <mxGeometry x="6.666666666666666" y="8.333333333333332" width="66.66666666666666" height="33.33333333333333" as="geometry" />
        </mxCell>
        <mxCell id="9fai15Jy2hckLmUoozY7-47" style="edgeStyle=orthogonalEdgeStyle;rounded=0;orthogonalLoop=1;jettySize=auto;html=1;strokeColor=#FF3333;strokeWidth=4;align=center;verticalAlign=middle;fontFamily=Helvetica;fontSize=11;fontColor=default;labelBackgroundColor=default;endArrow=none;endFill=0;" parent="1" source="9fai15Jy2hckLmUoozY7-43" target="9fai15Jy2hckLmUoozY7-21" edge="1">
          <mxGeometry relative="1" as="geometry">
            <mxPoint x="-49.99999999999977" y="45" as="targetPoint" />
            <Array as="points">
              <mxPoint x="-50" y="45" />
              <mxPoint x="-50" y="150" />
            </Array>
          </mxGeometry>
        </mxCell>
        <mxCell id="9fai15Jy2hckLmUoozY7-43" value="B&amp;amp;G Halcyon &lt;br&gt;2000 compass" style="html=1;verticalLabelPosition=bottom;align=center;labelBackgroundColor=#ffffff;verticalAlign=top;strokeWidth=2;strokeColor=#0080F0;shadow=0;dashed=0;shape=mxgraph.ios7.icons.location_2;" parent="1" vertex="1">
          <mxGeometry x="280" y="30" width="30" height="30" as="geometry" />
        </mxCell>
        <mxCell id="9fai15Jy2hckLmUoozY7-49" style="edgeStyle=orthogonalEdgeStyle;rounded=0;orthogonalLoop=1;jettySize=auto;html=1;strokeWidth=3;strokeColor=#2de16c;endArrow=none;endFill=0;" parent="1" source="9fai15Jy2hckLmUoozY7-44" target="9fai15Jy2hckLmUoozY7-21" edge="1">
          <mxGeometry relative="1" as="geometry">
            <mxPoint x="325" y="140" as="targetPoint" />
            <Array as="points">
              <mxPoint x="55" y="53" />
            </Array>
          </mxGeometry>
        </mxCell>
        <mxCell id="9fai15Jy2hckLmUoozY7-44" value="B&amp;amp;G 270 MHU&lt;br&gt;Windsensor" style="verticalLabelPosition=bottom;sketch=0;html=1;fillColor=#A153A0;strokeColor=#ffffff;verticalAlign=top;align=center;points=[[0,0.5,0],[0.125,0.25,0],[0.25,0,0],[0.5,0,0],[0.75,0,0],[0.875,0.25,0],[1,0.5,0],[0.875,0.75,0],[0.75,1,0],[0.5,1,0],[0.125,0.75,0]];pointerEvents=1;shape=mxgraph.cisco_safe.compositeIcon;bgIcon=mxgraph.cisco_safe.design.blank_device;resIcon=mxgraph.cisco_safe.design.flow_sensor;labelBackgroundColor=default;" parent="1" vertex="1">
          <mxGeometry x="-165" y="30" width="50" height="45" as="geometry" />
        </mxCell>
        <mxCell id="9fai15Jy2hckLmUoozY7-50" style="edgeStyle=orthogonalEdgeStyle;rounded=0;orthogonalLoop=1;jettySize=auto;html=1;strokeColor=#2de16c;strokeWidth=3;align=center;verticalAlign=middle;fontFamily=Helvetica;fontSize=11;fontColor=default;labelBackgroundColor=default;endArrow=none;endFill=0;" parent="1" source="9fai15Jy2hckLmUoozY7-45" target="9fai15Jy2hckLmUoozY7-21" edge="1">
          <mxGeometry relative="1" as="geometry">
            <Array as="points">
              <mxPoint x="425" y="150" />
            </Array>
          </mxGeometry>
        </mxCell>
        <mxCell id="9fai15Jy2hckLmUoozY7-45" value="B&amp;amp;G speed&lt;div&gt;sensor&lt;/div&gt;" style="sketch=0;html=1;aspect=fixed;strokeColor=none;shadow=0;fillColor=#3B8DF1;verticalAlign=top;labelPosition=center;verticalLabelPosition=bottom;shape=mxgraph.gcp2.database_speed;labelBackgroundColor=default;" parent="1" vertex="1">
          <mxGeometry x="408" y="20" width="34.5" height="50" as="geometry" />
        </mxCell>
        <mxCell id="9fai15Jy2hckLmUoozY7-51" style="edgeStyle=orthogonalEdgeStyle;rounded=0;orthogonalLoop=1;jettySize=auto;html=1;exitX=0.5;exitY=1;exitDx=0;exitDy=0;exitPerimeter=0;strokeColor=#2de16c;strokeWidth=3;align=center;verticalAlign=middle;fontFamily=Helvetica;fontSize=11;fontColor=default;labelBackgroundColor=default;endArrow=none;endFill=0;" parent="1" source="9fai15Jy2hckLmUoozY7-46" target="9fai15Jy2hckLmUoozY7-21" edge="1">
          <mxGeometry relative="1" as="geometry">
            <Array as="points">
              <mxPoint x="521" y="160" />
            </Array>
          </mxGeometry>
        </mxCell>
        <mxCell id="9fai15Jy2hckLmUoozY7-46" value="B&amp;amp;G depth&lt;div&gt;sensor&lt;/div&gt;" style="sketch=0;pointerEvents=1;shadow=0;dashed=0;html=1;strokeColor=none;labelPosition=center;verticalLabelPosition=bottom;verticalAlign=top;align=center;fillColor=#505050;shape=mxgraph.mscae.intune.intune_wifi_profiles;labelBackgroundColor=default;" parent="1" vertex="1">
          <mxGeometry x="500" y="25" width="43" height="50" as="geometry" />
        </mxCell>
        <mxCell id="9fai15Jy2hckLmUoozY7-53" value="15&quot; ELO touch screen" style="verticalLabelPosition=bottom;html=1;verticalAlign=top;align=center;strokeColor=none;fillColor=#00BEF2;shape=mxgraph.azure.computer;pointerEvents=1;" parent="1" vertex="1">
          <mxGeometry x="685.5" y="597.5" width="100" height="85" as="geometry" />
        </mxCell>
        <mxCell id="9fai15Jy2hckLmUoozY7-104" style="edgeStyle=orthogonalEdgeStyle;rounded=0;orthogonalLoop=1;jettySize=auto;html=1;exitX=0.5;exitY=1;exitDx=0;exitDy=0;strokeWidth=3;strokeColor=#adadad;endArrow=none;endFill=0;" parent="1" source="9fai15Jy2hckLmUoozY7-54" target="9fai15Jy2hckLmUoozY7-52" edge="1">
          <mxGeometry relative="1" as="geometry">
            <Array as="points">
              <mxPoint x="377" y="535" />
              <mxPoint x="470" y="535" />
            </Array>
          </mxGeometry>
        </mxCell>
        <mxCell id="9fai15Jy2hckLmUoozY7-137" style="edgeStyle=orthogonalEdgeStyle;rounded=0;orthogonalLoop=1;jettySize=auto;html=1;strokeColor=#FFD966;strokeWidth=3;align=center;verticalAlign=middle;fontFamily=Helvetica;fontSize=11;fontColor=default;labelBackgroundColor=default;endArrow=none;endFill=0;" parent="1" source="9fai15Jy2hckLmUoozY7-54" target="9fai15Jy2hckLmUoozY7-132" edge="1">
          <mxGeometry relative="1" as="geometry">
            <Array as="points">
              <mxPoint x="377" y="380" />
              <mxPoint x="562" y="380" />
            </Array>
          </mxGeometry>
        </mxCell>
        <mxCell id="9fai15Jy2hckLmUoozY7-54" value="Sandberg 5 port &lt;br&gt;USB hub powered" style="image;html=1;image=img/lib/clip_art/computers/USB_Hub_128x128.png" parent="1" vertex="1">
          <mxGeometry x="337" y="390" width="80" height="80" as="geometry" />
        </mxCell>
        <mxCell id="9fai15Jy2hckLmUoozY7-106" style="edgeStyle=orthogonalEdgeStyle;rounded=0;orthogonalLoop=1;jettySize=auto;html=1;entryX=0.25;entryY=0;entryDx=0;entryDy=0;strokeColor=default;strokeWidth=3;align=center;verticalAlign=middle;fontFamily=Helvetica;fontSize=11;fontColor=default;labelBackgroundColor=default;endArrow=none;endFill=0;" parent="1" source="9fai15Jy2hckLmUoozY7-56" target="9fai15Jy2hckLmUoozY7-54" edge="1">
          <mxGeometry relative="1" as="geometry" />
        </mxCell>
        <mxCell id="9fai15Jy2hckLmUoozY7-56" value="RS232 &amp;lt;-&amp;gt; USB" style="sketch=0;outlineConnect=0;fontColor=#232F3E;gradientColor=none;fillColor=#ED7100;strokeColor=none;dashed=0;verticalLabelPosition=bottom;verticalAlign=top;align=center;html=1;fontSize=12;fontStyle=0;aspect=fixed;pointerEvents=1;shape=mxgraph.aws4.r5_instance;" parent="1" vertex="1">
          <mxGeometry x="210" y="206" width="48" height="48" as="geometry" />
        </mxCell>
        <mxCell id="9fai15Jy2hckLmUoozY7-57" value="RS232 &amp;lt;-&amp;gt; USB" style="sketch=0;outlineConnect=0;fontColor=#232F3E;gradientColor=none;fillColor=#ED7100;strokeColor=none;dashed=0;verticalLabelPosition=bottom;verticalAlign=top;align=center;html=1;fontSize=12;fontStyle=0;aspect=fixed;pointerEvents=1;shape=mxgraph.aws4.r5_instance;" parent="1" vertex="1">
          <mxGeometry x="210" y="281" width="48" height="48" as="geometry" />
        </mxCell>
        <mxCell id="9fai15Jy2hckLmUoozY7-73" value="B&amp;G H2000&#xa;NMEA MFD" style="group;labelPosition=center;verticalLabelPosition=bottom;align=center;verticalAlign=top;" parent="1" vertex="1" connectable="0">
          <mxGeometry x="-180" y="479" width="80" height="50" as="geometry" />
        </mxCell>
        <mxCell id="9fai15Jy2hckLmUoozY7-74" value="" style="rounded=0;whiteSpace=wrap;html=1;" parent="9fai15Jy2hckLmUoozY7-73" vertex="1">
          <mxGeometry width="80" height="50" as="geometry" />
        </mxCell>
        <mxCell id="9fai15Jy2hckLmUoozY7-75" value="" style="rounded=0;whiteSpace=wrap;html=1;" parent="9fai15Jy2hckLmUoozY7-73" vertex="1">
          <mxGeometry x="6.67" y="8.329999999999984" width="43.33" height="31.67" as="geometry" />
        </mxCell>
        <mxCell id="9fai15Jy2hckLmUoozY7-76" value="" style="ellipse;whiteSpace=wrap;html=1;aspect=fixed;" parent="9fai15Jy2hckLmUoozY7-73" vertex="1">
          <mxGeometry x="54" y="8.329999999999984" width="8" height="8" as="geometry" />
        </mxCell>
        <mxCell id="9fai15Jy2hckLmUoozY7-77" value="" style="ellipse;whiteSpace=wrap;html=1;aspect=fixed;" parent="9fai15Jy2hckLmUoozY7-73" vertex="1">
          <mxGeometry x="66" y="8" width="8" height="8" as="geometry" />
        </mxCell>
        <mxCell id="9fai15Jy2hckLmUoozY7-78" value="" style="ellipse;whiteSpace=wrap;html=1;aspect=fixed;" parent="9fai15Jy2hckLmUoozY7-73" vertex="1">
          <mxGeometry x="54" y="20.329999999999984" width="8" height="8" as="geometry" />
        </mxCell>
        <mxCell id="9fai15Jy2hckLmUoozY7-79" value="" style="ellipse;whiteSpace=wrap;html=1;aspect=fixed;" parent="9fai15Jy2hckLmUoozY7-73" vertex="1">
          <mxGeometry x="66" y="20" width="8" height="8" as="geometry" />
        </mxCell>
        <mxCell id="9fai15Jy2hckLmUoozY7-80" value="" style="ellipse;whiteSpace=wrap;html=1;aspect=fixed;" parent="9fai15Jy2hckLmUoozY7-73" vertex="1">
          <mxGeometry x="54" y="32" width="8" height="8" as="geometry" />
        </mxCell>
        <mxCell id="9fai15Jy2hckLmUoozY7-81" value="" style="ellipse;whiteSpace=wrap;html=1;aspect=fixed;" parent="9fai15Jy2hckLmUoozY7-73" vertex="1">
          <mxGeometry x="66" y="31.670000000000016" width="8" height="8" as="geometry" />
        </mxCell>
        <mxCell id="9fai15Jy2hckLmUoozY7-82" value="B&amp;G Halcyon 2000&#xa;MFD" style="group;labelPosition=center;verticalLabelPosition=bottom;align=center;verticalAlign=top;" parent="1" vertex="1" connectable="0">
          <mxGeometry x="-180" y="580" width="80" height="50" as="geometry" />
        </mxCell>
        <mxCell id="9fai15Jy2hckLmUoozY7-83" value="" style="rounded=0;whiteSpace=wrap;html=1;" parent="9fai15Jy2hckLmUoozY7-82" vertex="1">
          <mxGeometry width="80" height="50" as="geometry" />
        </mxCell>
        <mxCell id="9fai15Jy2hckLmUoozY7-84" value="" style="rounded=0;whiteSpace=wrap;html=1;" parent="9fai15Jy2hckLmUoozY7-82" vertex="1">
          <mxGeometry x="6.67" y="8.329999999999984" width="43.33" height="31.67" as="geometry" />
        </mxCell>
        <mxCell id="9fai15Jy2hckLmUoozY7-85" value="" style="ellipse;whiteSpace=wrap;html=1;aspect=fixed;" parent="9fai15Jy2hckLmUoozY7-82" vertex="1">
          <mxGeometry x="54" y="8.329999999999984" width="8" height="8" as="geometry" />
        </mxCell>
        <mxCell id="9fai15Jy2hckLmUoozY7-86" value="" style="ellipse;whiteSpace=wrap;html=1;aspect=fixed;" parent="9fai15Jy2hckLmUoozY7-82" vertex="1">
          <mxGeometry x="66" y="8" width="8" height="8" as="geometry" />
        </mxCell>
        <mxCell id="9fai15Jy2hckLmUoozY7-87" value="" style="ellipse;whiteSpace=wrap;html=1;aspect=fixed;" parent="9fai15Jy2hckLmUoozY7-82" vertex="1">
          <mxGeometry x="54" y="20.329999999999984" width="8" height="8" as="geometry" />
        </mxCell>
        <mxCell id="9fai15Jy2hckLmUoozY7-88" value="" style="ellipse;whiteSpace=wrap;html=1;aspect=fixed;" parent="9fai15Jy2hckLmUoozY7-82" vertex="1">
          <mxGeometry x="66" y="20" width="8" height="8" as="geometry" />
        </mxCell>
        <mxCell id="9fai15Jy2hckLmUoozY7-89" value="" style="ellipse;whiteSpace=wrap;html=1;aspect=fixed;" parent="9fai15Jy2hckLmUoozY7-82" vertex="1">
          <mxGeometry x="54" y="32" width="8" height="8" as="geometry" />
        </mxCell>
        <mxCell id="9fai15Jy2hckLmUoozY7-90" value="" style="ellipse;whiteSpace=wrap;html=1;aspect=fixed;" parent="9fai15Jy2hckLmUoozY7-82" vertex="1">
          <mxGeometry x="66" y="31.670000000000016" width="8" height="8" as="geometry" />
        </mxCell>
        <mxCell id="9fai15Jy2hckLmUoozY7-93" value="B&amp;G H1000 CND" style="group;labelPosition=center;verticalLabelPosition=bottom;align=center;verticalAlign=top;labelBackgroundColor=default;" parent="1" vertex="1" connectable="0">
          <mxGeometry x="194" y="520" width="80" height="50" as="geometry" />
        </mxCell>
        <mxCell id="9fai15Jy2hckLmUoozY7-94" value="" style="rounded=0;whiteSpace=wrap;html=1;" parent="9fai15Jy2hckLmUoozY7-93" vertex="1">
          <mxGeometry width="80" height="50" as="geometry" />
        </mxCell>
        <mxCell id="9fai15Jy2hckLmUoozY7-95" value="" style="rounded=0;whiteSpace=wrap;html=1;" parent="9fai15Jy2hckLmUoozY7-93" vertex="1">
          <mxGeometry x="6.67" y="8.329999999999984" width="43.33" height="31.67" as="geometry" />
        </mxCell>
        <mxCell id="9fai15Jy2hckLmUoozY7-96" value="" style="ellipse;whiteSpace=wrap;html=1;aspect=fixed;" parent="9fai15Jy2hckLmUoozY7-93" vertex="1">
          <mxGeometry x="54" y="8.329999999999984" width="8" height="8" as="geometry" />
        </mxCell>
        <mxCell id="9fai15Jy2hckLmUoozY7-97" value="" style="ellipse;whiteSpace=wrap;html=1;aspect=fixed;" parent="9fai15Jy2hckLmUoozY7-93" vertex="1">
          <mxGeometry x="66" y="8" width="8" height="8" as="geometry" />
        </mxCell>
        <mxCell id="9fai15Jy2hckLmUoozY7-98" value="" style="ellipse;whiteSpace=wrap;html=1;aspect=fixed;" parent="9fai15Jy2hckLmUoozY7-93" vertex="1">
          <mxGeometry x="54" y="20.329999999999984" width="8" height="8" as="geometry" />
        </mxCell>
        <mxCell id="9fai15Jy2hckLmUoozY7-99" value="" style="ellipse;whiteSpace=wrap;html=1;aspect=fixed;" parent="9fai15Jy2hckLmUoozY7-93" vertex="1">
          <mxGeometry x="66" y="20" width="8" height="8" as="geometry" />
        </mxCell>
        <mxCell id="9fai15Jy2hckLmUoozY7-100" value="" style="ellipse;whiteSpace=wrap;html=1;aspect=fixed;" parent="9fai15Jy2hckLmUoozY7-93" vertex="1">
          <mxGeometry x="54" y="32" width="8" height="8" as="geometry" />
        </mxCell>
        <mxCell id="9fai15Jy2hckLmUoozY7-101" value="" style="ellipse;whiteSpace=wrap;html=1;aspect=fixed;" parent="9fai15Jy2hckLmUoozY7-93" vertex="1">
          <mxGeometry x="66" y="31.670000000000016" width="8" height="8" as="geometry" />
        </mxCell>
        <mxCell id="9fai15Jy2hckLmUoozY7-105" style="edgeStyle=orthogonalEdgeStyle;rounded=0;orthogonalLoop=1;jettySize=auto;html=1;entryX=0.038;entryY=0.125;entryDx=0;entryDy=0;entryPerimeter=0;endArrow=none;endFill=0;strokeWidth=3;" parent="1" source="9fai15Jy2hckLmUoozY7-57" target="9fai15Jy2hckLmUoozY7-54" edge="1">
          <mxGeometry relative="1" as="geometry" />
        </mxCell>
        <mxCell id="9fai15Jy2hckLmUoozY7-107" style="edgeStyle=orthogonalEdgeStyle;rounded=0;orthogonalLoop=1;jettySize=auto;html=1;entryX=0;entryY=0.25;entryDx=0;entryDy=0;strokeColor=default;strokeWidth=3;align=center;verticalAlign=middle;fontFamily=Helvetica;fontSize=11;fontColor=default;labelBackgroundColor=default;endArrow=none;endFill=0;" parent="1" source="9fai15Jy2hckLmUoozY7-103" target="9fai15Jy2hckLmUoozY7-54" edge="1">
          <mxGeometry relative="1" as="geometry" />
        </mxCell>
        <mxCell id="9fai15Jy2hckLmUoozY7-115" style="edgeStyle=orthogonalEdgeStyle;rounded=0;orthogonalLoop=1;jettySize=auto;html=1;entryX=0;entryY=0.5;entryDx=0;entryDy=0;strokeColor=#6c8ebf;strokeWidth=3;align=center;verticalAlign=middle;fontFamily=Helvetica;fontSize=11;fontColor=default;labelBackgroundColor=default;endArrow=none;endFill=0;fillColor=#dae8fc;" parent="1" source="9fai15Jy2hckLmUoozY7-111" target="9fai15Jy2hckLmUoozY7-94" edge="1">
          <mxGeometry relative="1" as="geometry">
            <Array as="points">
              <mxPoint x="60" y="810" />
              <mxPoint x="60" y="545" />
            </Array>
          </mxGeometry>
        </mxCell>
        <mxCell id="9fai15Jy2hckLmUoozY7-111" value="TrueNorth GPS Antenna" style="verticalLabelPosition=bottom;shadow=0;dashed=0;align=center;html=1;verticalAlign=top;shape=mxgraph.electrical.radio.aerial_-_antenna_1;" parent="1" vertex="1">
          <mxGeometry x="-160" y="780" width="40" height="40" as="geometry" />
        </mxCell>
        <mxCell id="9fai15Jy2hckLmUoozY7-114" style="edgeStyle=orthogonalEdgeStyle;rounded=0;orthogonalLoop=1;jettySize=auto;html=1;strokeColor=#6c8ebf;strokeWidth=3;align=center;verticalAlign=middle;fontFamily=Helvetica;fontSize=11;fontColor=default;labelBackgroundColor=default;endArrow=none;endFill=0;fillColor=#dae8fc;" parent="1" source="9fai15Jy2hckLmUoozY7-113" target="9fai15Jy2hckLmUoozY7-23" edge="1">
          <mxGeometry relative="1" as="geometry">
            <Array as="points">
              <mxPoint x="50" y="700" />
            </Array>
          </mxGeometry>
        </mxCell>
        <mxCell id="9fai15Jy2hckLmUoozY7-113" value="Garmin GPS 24XD &lt;br&gt;HVS - NMEA 0183" style="verticalLabelPosition=bottom;shadow=0;dashed=0;align=center;html=1;verticalAlign=top;shape=mxgraph.electrical.radio.aerial_-_antenna_1;" parent="1" vertex="1">
          <mxGeometry x="-160" y="680" width="40" height="40" as="geometry" />
        </mxCell>
        <mxCell id="9fai15Jy2hckLmUoozY7-116" style="edgeStyle=orthogonalEdgeStyle;rounded=0;orthogonalLoop=1;jettySize=auto;html=1;strokeColor=#6c8ebf;strokeWidth=3;align=center;verticalAlign=middle;fontFamily=Helvetica;fontSize=11;fontColor=default;labelBackgroundColor=default;endArrow=none;endFill=0;fillColor=#dae8fc;" parent="1" source="9fai15Jy2hckLmUoozY7-94" target="9fai15Jy2hckLmUoozY7-103" edge="1">
          <mxGeometry relative="1" as="geometry" />
        </mxCell>
        <mxCell id="9fai15Jy2hckLmUoozY7-126" style="edgeStyle=orthogonalEdgeStyle;rounded=0;orthogonalLoop=1;jettySize=auto;html=1;strokeColor=default;strokeWidth=3;align=center;verticalAlign=middle;fontFamily=Helvetica;fontSize=11;fontColor=default;labelBackgroundColor=default;endArrow=none;endFill=0;" parent="1" source="9fai15Jy2hckLmUoozY7-117" edge="1">
          <mxGeometry relative="1" as="geometry">
            <mxPoint x="-240" y="200" as="targetPoint" />
          </mxGeometry>
        </mxCell>
        <mxCell id="9fai15Jy2hckLmUoozY7-117" value="Starboard - display&lt;br&gt;push button" style="html=1;shape=mxgraph.electrical.electro-mechanical.pushbutton;aspect=fixed;elSwitchState=off;labelPosition=center;verticalLabelPosition=bottom;align=center;verticalAlign=top;" parent="1" vertex="1">
          <mxGeometry x="-380" y="110" width="75" height="20" as="geometry" />
        </mxCell>
        <mxCell id="9fai15Jy2hckLmUoozY7-125" style="edgeStyle=orthogonalEdgeStyle;rounded=0;orthogonalLoop=1;jettySize=auto;html=1;entryX=0;entryY=0.5;entryDx=0;entryDy=0;strokeColor=default;strokeWidth=3;align=center;verticalAlign=middle;fontFamily=Helvetica;fontSize=11;fontColor=default;labelBackgroundColor=default;endArrow=none;endFill=0;" parent="1" source="9fai15Jy2hckLmUoozY7-120" target="9fai15Jy2hckLmUoozY7-31" edge="1">
          <mxGeometry relative="1" as="geometry">
            <Array as="points">
              <mxPoint x="-240" y="190" />
              <mxPoint x="-240" y="305" />
            </Array>
          </mxGeometry>
        </mxCell>
        <mxCell id="9fai15Jy2hckLmUoozY7-287" style="edgeStyle=orthogonalEdgeStyle;rounded=0;orthogonalLoop=1;jettySize=auto;html=1;exitX=0;exitY=0.8;exitDx=0;exitDy=0;entryX=0.5;entryY=0;entryDx=0;entryDy=0;entryPerimeter=0;strokeColor=default;strokeWidth=3;align=center;verticalAlign=middle;fontFamily=Helvetica;fontSize=11;fontColor=default;labelBackgroundColor=default;endArrow=none;endFill=0;" parent="1" source="9fai15Jy2hckLmUoozY7-120" target="9fai15Jy2hckLmUoozY7-285" edge="1">
          <mxGeometry relative="1" as="geometry">
            <mxPoint x="-410" y="240" as="targetPoint" />
          </mxGeometry>
        </mxCell>
        <mxCell id="9fai15Jy2hckLmUoozY7-120" value="Port - display&lt;br&gt;push button" style="html=1;shape=mxgraph.electrical.electro-mechanical.pushbutton;aspect=fixed;elSwitchState=off;labelPosition=center;verticalLabelPosition=bottom;align=center;verticalAlign=top;" parent="1" vertex="1">
          <mxGeometry x="-380" y="180" width="75" height="20" as="geometry" />
        </mxCell>
        <mxCell id="9fai15Jy2hckLmUoozY7-414" style="edgeStyle=orthogonalEdgeStyle;rounded=0;orthogonalLoop=1;jettySize=auto;html=1;strokeColor=#FFB366;strokeWidth=3;align=center;verticalAlign=middle;fontFamily=Helvetica;fontSize=11;fontColor=default;labelBackgroundColor=default;endArrow=none;endFill=0;" parent="1" source="9fai15Jy2hckLmUoozY7-127" target="9fai15Jy2hckLmUoozY7-401" edge="1">
          <mxGeometry relative="1" as="geometry">
            <Array as="points">
              <mxPoint x="820" y="530" />
              <mxPoint x="820" y="1310" />
            </Array>
          </mxGeometry>
        </mxCell>
        <mxCell id="9fai15Jy2hckLmUoozY7-127" value="Linksys WiFi + 5G router" style="image;html=1;image=img/lib/clip_art/networking/Wireless_Router_N_128x128.png" parent="1" vertex="1">
          <mxGeometry x="580" y="470" width="80" height="80" as="geometry" />
        </mxCell>
        <mxCell id="9fai15Jy2hckLmUoozY7-128" style="edgeStyle=orthogonalEdgeStyle;rounded=0;orthogonalLoop=1;jettySize=auto;html=1;strokeColor=#FFB366;strokeWidth=3;align=center;verticalAlign=middle;fontFamily=Helvetica;fontSize=11;fontColor=default;labelBackgroundColor=default;endArrow=none;endFill=0;" parent="1" source="9fai15Jy2hckLmUoozY7-127" target="9fai15Jy2hckLmUoozY7-52" edge="1">
          <mxGeometry relative="1" as="geometry">
            <Array as="points">
              <mxPoint x="490" y="530" />
            </Array>
          </mxGeometry>
        </mxCell>
        <mxCell id="9fai15Jy2hckLmUoozY7-129" style="edgeStyle=orthogonalEdgeStyle;rounded=0;orthogonalLoop=1;jettySize=auto;html=1;entryX=0;entryY=0.5;entryDx=0;entryDy=0;entryPerimeter=0;strokeColor=default;strokeWidth=3;align=center;verticalAlign=middle;fontFamily=Helvetica;fontSize=11;fontColor=default;labelBackgroundColor=default;endArrow=none;endFill=0;" parent="1" source="9fai15Jy2hckLmUoozY7-52" target="9fai15Jy2hckLmUoozY7-53" edge="1">
          <mxGeometry relative="1" as="geometry">
            <Array as="points">
              <mxPoint x="520" y="640" />
              <mxPoint x="520" y="640" />
            </Array>
          </mxGeometry>
        </mxCell>
        <mxCell id="9fai15Jy2hckLmUoozY7-136" style="edgeStyle=orthogonalEdgeStyle;rounded=0;orthogonalLoop=1;jettySize=auto;html=1;strokeColor=#FFD966;strokeWidth=3;align=center;verticalAlign=middle;fontFamily=Helvetica;fontSize=11;fontColor=default;labelBackgroundColor=default;endArrow=none;endFill=0;" parent="1" source="9fai15Jy2hckLmUoozY7-132" target="9fai15Jy2hckLmUoozY7-127" edge="1">
          <mxGeometry relative="1" as="geometry">
            <Array as="points">
              <mxPoint x="562" y="400" />
              <mxPoint x="562" y="400" />
            </Array>
          </mxGeometry>
        </mxCell>
        <mxCell id="9fai15Jy2hckLmUoozY7-135" style="edgeStyle=orthogonalEdgeStyle;rounded=0;orthogonalLoop=1;jettySize=auto;html=1;entryX=0.5;entryY=0;entryDx=0;entryDy=0;entryPerimeter=0;strokeColor=#0000FF;strokeWidth=3;align=center;verticalAlign=middle;fontFamily=Helvetica;fontSize=11;fontColor=default;labelBackgroundColor=default;endArrow=none;endFill=0;exitX=0.786;exitY=0.998;exitDx=0;exitDy=0;exitPerimeter=0;" parent="1" source="9fai15Jy2hckLmUoozY7-130" target="9fai15Jy2hckLmUoozY7-53" edge="1">
          <mxGeometry relative="1" as="geometry" />
        </mxCell>
        <mxCell id="9fai15Jy2hckLmUoozY7-133" value="Mean Well &lt;br&gt;5.1V 6A" style="html=1;verticalLabelPosition=bottom;verticalAlign=top;outlineConnect=0;shadow=0;dashed=0;shape=mxgraph.rack.hpe_aruba.switches.j9829a_5400r_1100w_poeplus_zl2_power_supply;labelBackgroundColor=default;" parent="1" vertex="1">
          <mxGeometry x="408" y="283.5" width="63" height="43" as="geometry" />
        </mxCell>
        <mxCell id="9fai15Jy2hckLmUoozY7-132" value="Mean Well&lt;br&gt;&amp;nbsp;5V 6A" style="html=1;verticalLabelPosition=bottom;verticalAlign=top;outlineConnect=0;shadow=0;dashed=0;shape=mxgraph.rack.hpe_aruba.switches.j9829a_5400r_1100w_poeplus_zl2_power_supply;labelBackgroundColor=default;" parent="1" vertex="1">
          <mxGeometry x="517" y="283.5" width="63" height="43" as="geometry" />
        </mxCell>
        <mxCell id="9fai15Jy2hckLmUoozY7-130" value="Mean Well&lt;br&gt;&amp;nbsp;12V 6A" style="html=1;verticalLabelPosition=bottom;verticalAlign=top;outlineConnect=0;shadow=0;dashed=0;shape=mxgraph.rack.hpe_aruba.switches.j9829a_5400r_1100w_poeplus_zl2_power_supply;labelBackgroundColor=default;" parent="1" vertex="1">
          <mxGeometry x="617.5" y="283.5" width="63" height="43" as="geometry" />
        </mxCell>
        <mxCell id="dnTUehm-ubC7icJpAnx4-3" value="200Ah - 12V - LiFePo4&lt;br&gt;Std. BMS" style="image;html=1;image=img/lib/clip_art/general/Battery_75_128x128.png" parent="1" vertex="1">
          <mxGeometry x="1055" y="22.5" width="80" height="80" as="geometry" />
        </mxCell>
        <mxCell id="9fai15Jy2hckLmUoozY7-148" value="&lt;font style=&quot;font-size: 13px;&quot;&gt;~12V&lt;/font&gt;" style="edgeStyle=orthogonalEdgeStyle;rounded=0;orthogonalLoop=1;jettySize=auto;html=1;strokeColor=#0000FF;strokeWidth=3;align=center;verticalAlign=middle;fontFamily=Helvetica;fontSize=11;fontColor=default;labelBackgroundColor=default;endArrow=none;endFill=0;" parent="1" edge="1">
          <mxGeometry x="-0.3334" relative="1" as="geometry">
            <mxPoint x="139.48" y="330" as="targetPoint" />
            <mxPoint x="79.48" y="310" as="sourcePoint" />
            <mxPoint as="offset" />
          </mxGeometry>
        </mxCell>
        <mxCell id="9fai15Jy2hckLmUoozY7-23" value="TrueHeading AIS-CTRX&lt;br&gt;Transponder" style="sketch=0;pointerEvents=1;shadow=0;dashed=0;html=1;strokeColor=none;fillColor=#434445;aspect=fixed;labelPosition=center;verticalLabelPosition=bottom;verticalAlign=top;align=center;outlineConnect=0;shape=mxgraph.vvd.cpu;labelBackgroundColor=default;" parent="1" vertex="1">
          <mxGeometry x="30" y="280" width="50" height="50" as="geometry" />
        </mxCell>
        <mxCell id="9fai15Jy2hckLmUoozY7-142" value="KPlex - NMEA multiplexer" style="image;html=1;image=img/lib/clip_art/computers/Software_128x128.png;align=left;" parent="1" vertex="1">
          <mxGeometry x="500" y="700" width="50" height="40" as="geometry" />
        </mxCell>
        <mxCell id="9fai15Jy2hckLmUoozY7-146" style="edgeStyle=orthogonalEdgeStyle;rounded=0;orthogonalLoop=1;jettySize=auto;html=1;strokeColor=#adadad;strokeWidth=3;align=center;verticalAlign=middle;fontFamily=Helvetica;fontSize=11;fontColor=default;labelBackgroundColor=default;endArrow=none;endFill=0;" parent="1" source="9fai15Jy2hckLmUoozY7-144" target="9fai15Jy2hckLmUoozY7-52" edge="1">
          <mxGeometry relative="1" as="geometry" />
        </mxCell>
        <mxCell id="9fai15Jy2hckLmUoozY7-144" value="M2 USB3&lt;br&gt;Disk 500Gb" style="image;html=1;image=img/lib/clip_art/computers/Harddrive_128x128.png" parent="1" vertex="1">
          <mxGeometry x="376" y="580" width="50" height="50" as="geometry" />
        </mxCell>
        <mxCell id="9fai15Jy2hckLmUoozY7-149" value="&lt;font style=&quot;font-size: 13px;&quot;&gt;~12V&lt;/font&gt;" style="edgeStyle=orthogonalEdgeStyle;rounded=0;orthogonalLoop=1;jettySize=auto;html=1;strokeColor=#0000FF;strokeWidth=3;align=center;verticalAlign=middle;fontFamily=Helvetica;fontSize=11;fontColor=default;labelBackgroundColor=default;endArrow=none;endFill=0;" parent="1" edge="1">
          <mxGeometry x="-0.3334" relative="1" as="geometry">
            <mxPoint x="140" y="260" as="targetPoint" />
            <mxPoint x="80" y="240" as="sourcePoint" />
            <mxPoint as="offset" />
          </mxGeometry>
        </mxCell>
        <mxCell id="9fai15Jy2hckLmUoozY7-150" value="&lt;font style=&quot;font-size: 13px;&quot;&gt;~12V&lt;/font&gt;" style="edgeStyle=orthogonalEdgeStyle;rounded=0;orthogonalLoop=1;jettySize=auto;html=1;strokeColor=#0000FF;strokeWidth=3;align=center;verticalAlign=middle;fontFamily=Helvetica;fontSize=11;fontColor=default;labelBackgroundColor=default;endArrow=none;endFill=0;" parent="1" edge="1">
          <mxGeometry x="-0.3334" relative="1" as="geometry">
            <mxPoint x="140" y="190" as="targetPoint" />
            <mxPoint x="80" y="170" as="sourcePoint" />
            <mxPoint as="offset" />
          </mxGeometry>
        </mxCell>
        <mxCell id="9fai15Jy2hckLmUoozY7-151" value="&lt;font style=&quot;font-size: 13px;&quot;&gt;~12V&lt;/font&gt;" style="edgeStyle=orthogonalEdgeStyle;rounded=0;orthogonalLoop=1;jettySize=auto;html=1;strokeColor=#0000FF;strokeWidth=3;align=center;verticalAlign=middle;fontFamily=Helvetica;fontSize=11;fontColor=default;labelBackgroundColor=default;endArrow=none;endFill=0;" parent="1" edge="1">
          <mxGeometry x="-0.3334" relative="1" as="geometry">
            <mxPoint x="336.5" y="580" as="targetPoint" />
            <mxPoint x="276.5" y="560" as="sourcePoint" />
            <mxPoint as="offset" />
          </mxGeometry>
        </mxCell>
        <mxCell id="9fai15Jy2hckLmUoozY7-164" style="edgeStyle=orthogonalEdgeStyle;rounded=0;orthogonalLoop=1;jettySize=auto;html=1;entryX=0;entryY=0.75;entryDx=0;entryDy=0;endArrow=none;endFill=0;fillColor=#dae8fc;strokeColor=#6c8ebf;strokeWidth=2;" parent="1" source="9fai15Jy2hckLmUoozY7-152" target="9fai15Jy2hckLmUoozY7-159" edge="1">
          <mxGeometry relative="1" as="geometry">
            <Array as="points">
              <mxPoint x="600" y="780" />
              <mxPoint x="600" y="820" />
            </Array>
          </mxGeometry>
        </mxCell>
        <mxCell id="9fai15Jy2hckLmUoozY7-168" style="edgeStyle=orthogonalEdgeStyle;rounded=0;orthogonalLoop=1;jettySize=auto;html=1;strokeColor=#6c8ebf;strokeWidth=2;align=center;verticalAlign=middle;fontFamily=Helvetica;fontSize=11;fontColor=default;labelBackgroundColor=default;endArrow=none;endFill=0;fillColor=#dae8fc;" parent="1" source="9fai15Jy2hckLmUoozY7-152" edge="1">
          <mxGeometry relative="1" as="geometry">
            <mxPoint x="480" y="720" as="targetPoint" />
          </mxGeometry>
        </mxCell>
        <mxCell id="9fai15Jy2hckLmUoozY7-152" value="OpenCpn" style="image;html=1;image=img/lib/clip_art/computers/Software_128x128.png;align=left;" parent="1" vertex="1">
          <mxGeometry x="500" y="760" width="50" height="40" as="geometry" />
        </mxCell>
        <mxCell id="9fai15Jy2hckLmUoozY7-169" style="edgeStyle=orthogonalEdgeStyle;rounded=0;orthogonalLoop=1;jettySize=auto;html=1;strokeColor=#6c8ebf;strokeWidth=2;align=center;verticalAlign=middle;fontFamily=Helvetica;fontSize=11;fontColor=default;labelBackgroundColor=default;endArrow=none;endFill=0;fillColor=#dae8fc;" parent="1" source="9fai15Jy2hckLmUoozY7-153" edge="1">
          <mxGeometry relative="1" as="geometry">
            <mxPoint x="480" y="780" as="targetPoint" />
          </mxGeometry>
        </mxCell>
        <mxCell id="9fai15Jy2hckLmUoozY7-153" value="VNC" style="image;html=1;image=img/lib/clip_art/computers/Software_128x128.png;align=left;" parent="1" vertex="1">
          <mxGeometry x="500" y="830" width="50" height="40" as="geometry" />
        </mxCell>
        <mxCell id="9fai15Jy2hckLmUoozY7-170" style="edgeStyle=orthogonalEdgeStyle;rounded=0;orthogonalLoop=1;jettySize=auto;html=1;strokeColor=#6c8ebf;strokeWidth=2;align=center;verticalAlign=middle;fontFamily=Helvetica;fontSize=11;fontColor=default;labelBackgroundColor=default;endArrow=none;endFill=0;fillColor=#dae8fc;" parent="1" source="9fai15Jy2hckLmUoozY7-154" edge="1">
          <mxGeometry relative="1" as="geometry">
            <mxPoint x="480" y="850" as="targetPoint" />
          </mxGeometry>
        </mxCell>
        <mxCell id="9fai15Jy2hckLmUoozY7-154" value="NodeRed" style="image;html=1;image=img/lib/clip_art/computers/Software_128x128.png;align=left;" parent="1" vertex="1">
          <mxGeometry x="500" y="900" width="50" height="40" as="geometry" />
        </mxCell>
        <mxCell id="9fai15Jy2hckLmUoozY7-171" style="edgeStyle=orthogonalEdgeStyle;rounded=0;orthogonalLoop=1;jettySize=auto;html=1;strokeColor=#6c8ebf;strokeWidth=2;align=center;verticalAlign=middle;fontFamily=Helvetica;fontSize=11;fontColor=default;labelBackgroundColor=default;endArrow=none;endFill=0;fillColor=#dae8fc;" parent="1" source="9fai15Jy2hckLmUoozY7-155" edge="1">
          <mxGeometry relative="1" as="geometry">
            <mxPoint x="480" y="920" as="targetPoint" />
          </mxGeometry>
        </mxCell>
        <mxCell id="9fai15Jy2hckLmUoozY7-155" value="WebBrowser" style="image;html=1;image=img/lib/clip_art/computers/Software_128x128.png;align=left;" parent="1" vertex="1">
          <mxGeometry x="500" y="970" width="50" height="40" as="geometry" />
        </mxCell>
        <mxCell id="9fai15Jy2hckLmUoozY7-172" style="edgeStyle=orthogonalEdgeStyle;rounded=0;orthogonalLoop=1;jettySize=auto;html=1;strokeColor=#6c8ebf;strokeWidth=2;align=center;verticalAlign=middle;fontFamily=Helvetica;fontSize=11;fontColor=default;labelBackgroundColor=default;endArrow=none;endFill=0;fillColor=#dae8fc;" parent="1" source="9fai15Jy2hckLmUoozY7-156" edge="1">
          <mxGeometry relative="1" as="geometry">
            <mxPoint x="480" y="990" as="targetPoint" />
          </mxGeometry>
        </mxCell>
        <mxCell id="9fai15Jy2hckLmUoozY7-156" value="Grafana" style="image;html=1;image=img/lib/clip_art/computers/Software_128x128.png;align=left;" parent="1" vertex="1">
          <mxGeometry x="500" y="1040" width="50" height="40" as="geometry" />
        </mxCell>
        <mxCell id="9fai15Jy2hckLmUoozY7-173" style="edgeStyle=orthogonalEdgeStyle;rounded=0;orthogonalLoop=1;jettySize=auto;html=1;strokeColor=#6c8ebf;strokeWidth=2;align=center;verticalAlign=middle;fontFamily=Helvetica;fontSize=11;fontColor=default;labelBackgroundColor=default;endArrow=none;endFill=0;fillColor=#dae8fc;" parent="1" source="9fai15Jy2hckLmUoozY7-158" edge="1">
          <mxGeometry relative="1" as="geometry">
            <mxPoint x="480" y="1060" as="targetPoint" />
          </mxGeometry>
        </mxCell>
        <mxCell id="9fai15Jy2hckLmUoozY7-227" style="edgeStyle=orthogonalEdgeStyle;rounded=0;orthogonalLoop=1;jettySize=auto;html=1;entryX=0;entryY=0.5;entryDx=0;entryDy=0;strokeColor=default;strokeWidth=3;align=center;verticalAlign=middle;fontFamily=Helvetica;fontSize=11;fontColor=default;labelBackgroundColor=default;endArrow=none;endFill=0;" parent="1" source="9fai15Jy2hckLmUoozY7-158" target="9fai15Jy2hckLmUoozY7-223" edge="1">
          <mxGeometry relative="1" as="geometry" />
        </mxCell>
        <mxCell id="9fai15Jy2hckLmUoozY7-228" style="edgeStyle=orthogonalEdgeStyle;rounded=0;orthogonalLoop=1;jettySize=auto;html=1;entryX=0;entryY=0.5;entryDx=0;entryDy=0;strokeColor=default;strokeWidth=3;align=center;verticalAlign=middle;fontFamily=Helvetica;fontSize=11;fontColor=default;labelBackgroundColor=default;endArrow=none;endFill=0;" parent="1" source="9fai15Jy2hckLmUoozY7-158" target="9fai15Jy2hckLmUoozY7-225" edge="1">
          <mxGeometry relative="1" as="geometry" />
        </mxCell>
        <mxCell id="9fai15Jy2hckLmUoozY7-229" style="edgeStyle=orthogonalEdgeStyle;rounded=0;orthogonalLoop=1;jettySize=auto;html=1;entryX=0;entryY=0.5;entryDx=0;entryDy=0;strokeColor=default;strokeWidth=3;align=center;verticalAlign=middle;fontFamily=Helvetica;fontSize=11;fontColor=default;labelBackgroundColor=default;endArrow=none;endFill=0;" parent="1" source="9fai15Jy2hckLmUoozY7-158" target="9fai15Jy2hckLmUoozY7-226" edge="1">
          <mxGeometry relative="1" as="geometry" />
        </mxCell>
        <mxCell id="9fai15Jy2hckLmUoozY7-270" style="edgeStyle=orthogonalEdgeStyle;rounded=0;orthogonalLoop=1;jettySize=auto;html=1;entryX=0;entryY=0.5;entryDx=0;entryDy=0;strokeColor=default;strokeWidth=3;align=center;verticalAlign=middle;fontFamily=Helvetica;fontSize=11;fontColor=default;labelBackgroundColor=default;endArrow=none;endFill=0;" parent="1" source="9fai15Jy2hckLmUoozY7-158" target="9fai15Jy2hckLmUoozY7-269" edge="1">
          <mxGeometry relative="1" as="geometry" />
        </mxCell>
        <mxCell id="9fai15Jy2hckLmUoozY7-158" value="InFluxDB" style="shape=datastore;whiteSpace=wrap;html=1;labelPosition=center;verticalLabelPosition=bottom;align=center;verticalAlign=top;" parent="1" vertex="1">
          <mxGeometry x="505" y="1110" width="40" height="40" as="geometry" />
        </mxCell>
        <mxCell id="9fai15Jy2hckLmUoozY7-159" value="PyPilot plugin" style="image;html=1;image=img/lib/clip_art/computers/Software_128x128.png;align=left;" parent="1" vertex="1">
          <mxGeometry x="610" y="790" width="50" height="40" as="geometry" />
        </mxCell>
        <mxCell id="9fai15Jy2hckLmUoozY7-165" style="edgeStyle=orthogonalEdgeStyle;rounded=0;orthogonalLoop=1;jettySize=auto;html=1;endArrow=none;endFill=0;fillColor=#dae8fc;strokeColor=#6c8ebf;strokeWidth=2;" parent="1" source="9fai15Jy2hckLmUoozY7-160" edge="1">
          <mxGeometry relative="1" as="geometry">
            <mxPoint x="550" y="780" as="targetPoint" />
            <Array as="points">
              <mxPoint x="590" y="880" />
              <mxPoint x="590" y="780" />
            </Array>
          </mxGeometry>
        </mxCell>
        <mxCell id="9fai15Jy2hckLmUoozY7-160" value="Tatics plugin" style="image;html=1;image=img/lib/clip_art/computers/Software_128x128.png;align=left;" parent="1" vertex="1">
          <mxGeometry x="610" y="860" width="50" height="40" as="geometry" />
        </mxCell>
        <mxCell id="9fai15Jy2hckLmUoozY7-166" style="edgeStyle=orthogonalEdgeStyle;rounded=0;orthogonalLoop=1;jettySize=auto;html=1;endArrow=none;endFill=0;fillColor=#dae8fc;strokeColor=#6c8ebf;strokeWidth=2;" parent="1" source="9fai15Jy2hckLmUoozY7-163" target="9fai15Jy2hckLmUoozY7-152" edge="1">
          <mxGeometry relative="1" as="geometry">
            <mxPoint x="550" y="770" as="targetPoint" />
            <Array as="points">
              <mxPoint x="580" y="950" />
              <mxPoint x="580" y="780" />
            </Array>
          </mxGeometry>
        </mxCell>
        <mxCell id="9fai15Jy2hckLmUoozY7-163" value="O-charts - DK+SE charts" style="image;html=1;image=img/lib/clip_art/computers/Software_128x128.png;align=left;" parent="1" vertex="1">
          <mxGeometry x="617.5" y="930" width="50" height="40" as="geometry" />
        </mxCell>
        <mxCell id="9fai15Jy2hckLmUoozY7-52" value="&lt;font color=&quot;#000000&quot;&gt;Raspberry Pi 4b 8Gb ram&lt;/font&gt;" style="fontColor=#0066CC;verticalAlign=top;verticalLabelPosition=bottom;labelPosition=center;align=center;html=1;outlineConnect=0;fillColor=#CCCCCC;strokeColor=#6881B3;gradientColor=none;gradientDirection=north;strokeWidth=2;shape=mxgraph.networks.desktop_pc;labelBackgroundColor=default;" parent="1" vertex="1">
          <mxGeometry x="462" y="610" width="30" height="60" as="geometry" />
        </mxCell>
        <mxCell id="9fai15Jy2hckLmUoozY7-174" value="Fresh water sensor" style="verticalLabelPosition=bottom;align=center;outlineConnect=0;dashed=0;html=1;verticalAlign=top;shape=mxgraph.pid.flow_sensors.target;" parent="1" vertex="1">
          <mxGeometry x="1070" y="1520" width="50" height="50" as="geometry" />
        </mxCell>
        <mxCell id="9fai15Jy2hckLmUoozY7-175" value="Diesel sensor" style="verticalLabelPosition=bottom;align=center;outlineConnect=0;dashed=0;html=1;verticalAlign=top;shape=mxgraph.pid.flow_sensors.target;" parent="1" vertex="1">
          <mxGeometry x="915" y="1520" width="50" height="50" as="geometry" />
        </mxCell>
        <mxCell id="9fai15Jy2hckLmUoozY7-185" value="" style="group" parent="1" vertex="1" connectable="0">
          <mxGeometry x="1035" y="1350" width="120" height="120" as="geometry" />
        </mxCell>
        <mxCell id="9fai15Jy2hckLmUoozY7-186" value="" style="whiteSpace=wrap;html=1;aspect=fixed;fillColor=none;" parent="9fai15Jy2hckLmUoozY7-185" vertex="1">
          <mxGeometry width="120" height="120" as="geometry" />
        </mxCell>
        <mxCell id="9fai15Jy2hckLmUoozY7-187" value="ESP32" style="sketch=0;outlineConnect=0;fontColor=#232F3E;gradientColor=none;fillColor=#7AA116;strokeColor=none;dashed=0;verticalLabelPosition=bottom;verticalAlign=top;align=center;html=1;fontSize=12;fontStyle=0;aspect=fixed;pointerEvents=1;shape=mxgraph.aws4.iot_thing_plc;" parent="9fai15Jy2hckLmUoozY7-185" vertex="1">
          <mxGeometry x="21" y="62" width="38" height="38" as="geometry" />
        </mxCell>
        <mxCell id="9fai15Jy2hckLmUoozY7-188" style="edgeStyle=orthogonalEdgeStyle;rounded=0;orthogonalLoop=1;jettySize=auto;html=1;" parent="9fai15Jy2hckLmUoozY7-185" source="9fai15Jy2hckLmUoozY7-190" target="9fai15Jy2hckLmUoozY7-187" edge="1">
          <mxGeometry relative="1" as="geometry" />
        </mxCell>
        <mxCell id="9fai15Jy2hckLmUoozY7-189" value="" style="edgeStyle=orthogonalEdgeStyle;rounded=0;orthogonalLoop=1;jettySize=auto;html=1;" parent="9fai15Jy2hckLmUoozY7-185" source="9fai15Jy2hckLmUoozY7-190" target="9fai15Jy2hckLmUoozY7-187" edge="1">
          <mxGeometry relative="1" as="geometry" />
        </mxCell>
        <mxCell id="9fai15Jy2hckLmUoozY7-190" value="WiFi" style="verticalLabelPosition=middle;shadow=0;dashed=0;align=center;html=1;verticalAlign=middle;shape=mxgraph.electrical.radio.aerial_-_antenna_1;labelPosition=center;" parent="9fai15Jy2hckLmUoozY7-185" vertex="1">
          <mxGeometry x="21" y="10" width="20" height="30" as="geometry" />
        </mxCell>
        <mxCell id="9fai15Jy2hckLmUoozY7-191" style="edgeStyle=orthogonalEdgeStyle;rounded=0;orthogonalLoop=1;jettySize=auto;html=1;" parent="9fai15Jy2hckLmUoozY7-185" source="9fai15Jy2hckLmUoozY7-192" target="9fai15Jy2hckLmUoozY7-187" edge="1">
          <mxGeometry relative="1" as="geometry" />
        </mxCell>
        <mxCell id="9fai15Jy2hckLmUoozY7-192" value="~12V to 3.3V" style="verticalLabelPosition=bottom;shadow=0;dashed=0;align=center;html=1;verticalAlign=top;shape=mxgraph.electrical.abstract.voltage_regulator;labelBackgroundColor=none;" parent="9fai15Jy2hckLmUoozY7-185" vertex="1">
          <mxGeometry x="71" y="30" width="25" height="18" as="geometry" />
        </mxCell>
        <mxCell id="9fai15Jy2hckLmUoozY7-194" style="edgeStyle=orthogonalEdgeStyle;rounded=0;orthogonalLoop=1;jettySize=auto;html=1;entryX=0.5;entryY=0;entryDx=0;entryDy=0;entryPerimeter=0;strokeColor=default;strokeWidth=3;align=center;verticalAlign=middle;fontFamily=Helvetica;fontSize=11;fontColor=default;labelBackgroundColor=default;endArrow=none;endFill=0;" parent="1" source="9fai15Jy2hckLmUoozY7-186" target="9fai15Jy2hckLmUoozY7-174" edge="1">
          <mxGeometry relative="1" as="geometry" />
        </mxCell>
        <mxCell id="9fai15Jy2hckLmUoozY7-195" value="" style="group" parent="1" vertex="1" connectable="0">
          <mxGeometry x="880" y="1350" width="120" height="120" as="geometry" />
        </mxCell>
        <mxCell id="9fai15Jy2hckLmUoozY7-196" value="" style="whiteSpace=wrap;html=1;aspect=fixed;fillColor=none;" parent="9fai15Jy2hckLmUoozY7-195" vertex="1">
          <mxGeometry width="120" height="120" as="geometry" />
        </mxCell>
        <mxCell id="9fai15Jy2hckLmUoozY7-197" value="ESP32" style="sketch=0;outlineConnect=0;fontColor=#232F3E;gradientColor=none;fillColor=#7AA116;strokeColor=none;dashed=0;verticalLabelPosition=bottom;verticalAlign=top;align=center;html=1;fontSize=12;fontStyle=0;aspect=fixed;pointerEvents=1;shape=mxgraph.aws4.iot_thing_plc;" parent="9fai15Jy2hckLmUoozY7-195" vertex="1">
          <mxGeometry x="21" y="62" width="38" height="38" as="geometry" />
        </mxCell>
        <mxCell id="9fai15Jy2hckLmUoozY7-198" style="edgeStyle=orthogonalEdgeStyle;rounded=0;orthogonalLoop=1;jettySize=auto;html=1;" parent="9fai15Jy2hckLmUoozY7-195" source="9fai15Jy2hckLmUoozY7-200" target="9fai15Jy2hckLmUoozY7-197" edge="1">
          <mxGeometry relative="1" as="geometry" />
        </mxCell>
        <mxCell id="9fai15Jy2hckLmUoozY7-199" value="" style="edgeStyle=orthogonalEdgeStyle;rounded=0;orthogonalLoop=1;jettySize=auto;html=1;" parent="9fai15Jy2hckLmUoozY7-195" source="9fai15Jy2hckLmUoozY7-200" target="9fai15Jy2hckLmUoozY7-197" edge="1">
          <mxGeometry relative="1" as="geometry" />
        </mxCell>
        <mxCell id="9fai15Jy2hckLmUoozY7-200" value="WiFi" style="verticalLabelPosition=middle;shadow=0;dashed=0;align=center;html=1;verticalAlign=middle;shape=mxgraph.electrical.radio.aerial_-_antenna_1;labelPosition=center;" parent="9fai15Jy2hckLmUoozY7-195" vertex="1">
          <mxGeometry x="21" y="10" width="20" height="30" as="geometry" />
        </mxCell>
        <mxCell id="9fai15Jy2hckLmUoozY7-201" style="edgeStyle=orthogonalEdgeStyle;rounded=0;orthogonalLoop=1;jettySize=auto;html=1;" parent="9fai15Jy2hckLmUoozY7-195" source="9fai15Jy2hckLmUoozY7-202" target="9fai15Jy2hckLmUoozY7-197" edge="1">
          <mxGeometry relative="1" as="geometry" />
        </mxCell>
        <mxCell id="9fai15Jy2hckLmUoozY7-202" value="~12V to 3.3V" style="verticalLabelPosition=bottom;shadow=0;dashed=0;align=center;html=1;verticalAlign=top;shape=mxgraph.electrical.abstract.voltage_regulator;labelBackgroundColor=none;" parent="9fai15Jy2hckLmUoozY7-195" vertex="1">
          <mxGeometry x="71" y="30" width="25" height="18" as="geometry" />
        </mxCell>
        <mxCell id="9fai15Jy2hckLmUoozY7-203" style="edgeStyle=orthogonalEdgeStyle;rounded=0;orthogonalLoop=1;jettySize=auto;html=1;entryX=0.5;entryY=0;entryDx=0;entryDy=0;entryPerimeter=0;strokeColor=default;strokeWidth=3;align=center;verticalAlign=middle;fontFamily=Helvetica;fontSize=11;fontColor=default;labelBackgroundColor=default;endArrow=none;endFill=0;" parent="1" source="9fai15Jy2hckLmUoozY7-196" target="9fai15Jy2hckLmUoozY7-175" edge="1">
          <mxGeometry relative="1" as="geometry" />
        </mxCell>
        <mxCell id="9fai15Jy2hckLmUoozY7-205" value="&lt;font style=&quot;font-size: 13px;&quot;&gt;~12V&lt;/font&gt;" style="edgeStyle=orthogonalEdgeStyle;rounded=0;orthogonalLoop=1;jettySize=auto;html=1;strokeColor=#0000FF;strokeWidth=3;align=center;verticalAlign=middle;fontFamily=Helvetica;fontSize=11;fontColor=default;labelBackgroundColor=default;endArrow=none;endFill=0;" parent="1" edge="1">
          <mxGeometry x="-0.3334" relative="1" as="geometry">
            <mxPoint x="1055" y="1350" as="targetPoint" />
            <mxPoint x="995" y="1330" as="sourcePoint" />
            <mxPoint as="offset" />
          </mxGeometry>
        </mxCell>
        <mxCell id="9fai15Jy2hckLmUoozY7-206" value="&lt;font style=&quot;font-size: 13px;&quot;&gt;~12V&lt;/font&gt;" style="edgeStyle=orthogonalEdgeStyle;rounded=0;orthogonalLoop=1;jettySize=auto;html=1;strokeColor=#0000FF;strokeWidth=3;align=center;verticalAlign=middle;fontFamily=Helvetica;fontSize=11;fontColor=default;labelBackgroundColor=default;endArrow=none;endFill=0;" parent="1" edge="1">
          <mxGeometry x="-0.3334" relative="1" as="geometry">
            <mxPoint x="899.5" y="1350" as="targetPoint" />
            <mxPoint x="839.5" y="1330" as="sourcePoint" />
            <mxPoint as="offset" />
          </mxGeometry>
        </mxCell>
        <mxCell id="9fai15Jy2hckLmUoozY7-207" value="" style="group" parent="1" vertex="1" connectable="0">
          <mxGeometry x="370.75" y="1359" width="120" height="120" as="geometry" />
        </mxCell>
        <mxCell id="9fai15Jy2hckLmUoozY7-208" value="" style="whiteSpace=wrap;html=1;aspect=fixed;fillColor=none;" parent="9fai15Jy2hckLmUoozY7-207" vertex="1">
          <mxGeometry width="120" height="120" as="geometry" />
        </mxCell>
        <mxCell id="9fai15Jy2hckLmUoozY7-209" value="ESP32" style="sketch=0;outlineConnect=0;fontColor=#232F3E;gradientColor=none;fillColor=#7AA116;strokeColor=none;dashed=0;verticalLabelPosition=bottom;verticalAlign=top;align=center;html=1;fontSize=12;fontStyle=0;aspect=fixed;pointerEvents=1;shape=mxgraph.aws4.iot_thing_plc;" parent="9fai15Jy2hckLmUoozY7-207" vertex="1">
          <mxGeometry x="21" y="62" width="38" height="38" as="geometry" />
        </mxCell>
        <mxCell id="9fai15Jy2hckLmUoozY7-210" style="edgeStyle=orthogonalEdgeStyle;rounded=0;orthogonalLoop=1;jettySize=auto;html=1;" parent="9fai15Jy2hckLmUoozY7-207" source="9fai15Jy2hckLmUoozY7-212" target="9fai15Jy2hckLmUoozY7-209" edge="1">
          <mxGeometry relative="1" as="geometry" />
        </mxCell>
        <mxCell id="9fai15Jy2hckLmUoozY7-211" value="" style="edgeStyle=orthogonalEdgeStyle;rounded=0;orthogonalLoop=1;jettySize=auto;html=1;" parent="9fai15Jy2hckLmUoozY7-207" source="9fai15Jy2hckLmUoozY7-212" target="9fai15Jy2hckLmUoozY7-209" edge="1">
          <mxGeometry relative="1" as="geometry" />
        </mxCell>
        <mxCell id="9fai15Jy2hckLmUoozY7-212" value="WiFi" style="verticalLabelPosition=middle;shadow=0;dashed=0;align=center;html=1;verticalAlign=middle;shape=mxgraph.electrical.radio.aerial_-_antenna_1;labelPosition=center;" parent="9fai15Jy2hckLmUoozY7-207" vertex="1">
          <mxGeometry x="21" y="10" width="20" height="30" as="geometry" />
        </mxCell>
        <mxCell id="9fai15Jy2hckLmUoozY7-213" style="edgeStyle=orthogonalEdgeStyle;rounded=0;orthogonalLoop=1;jettySize=auto;html=1;" parent="9fai15Jy2hckLmUoozY7-207" source="9fai15Jy2hckLmUoozY7-214" target="9fai15Jy2hckLmUoozY7-209" edge="1">
          <mxGeometry relative="1" as="geometry" />
        </mxCell>
        <mxCell id="9fai15Jy2hckLmUoozY7-214" value="~12V to 3.3V" style="verticalLabelPosition=bottom;shadow=0;dashed=0;align=center;html=1;verticalAlign=top;shape=mxgraph.electrical.abstract.voltage_regulator;labelBackgroundColor=none;" parent="9fai15Jy2hckLmUoozY7-207" vertex="1">
          <mxGeometry x="71" y="30" width="25" height="18" as="geometry" />
        </mxCell>
        <mxCell id="9fai15Jy2hckLmUoozY7-215" value="&lt;span style=&quot;font-size: 13px;&quot;&gt;Altenator ~12V&lt;/span&gt;" style="edgeStyle=orthogonalEdgeStyle;rounded=0;orthogonalLoop=1;jettySize=auto;html=1;strokeColor=#0000FF;strokeWidth=3;align=center;verticalAlign=middle;fontFamily=Helvetica;fontSize=11;fontColor=default;labelBackgroundColor=default;endArrow=none;endFill=0;exitX=1;exitY=0.5;exitDx=0;exitDy=0;entryX=0;entryY=0.5;entryDx=0;entryDy=0;" parent="1" source="9fai15Jy2hckLmUoozY7-476" target="9fai15Jy2hckLmUoozY7-208" edge="1">
          <mxGeometry x="-0.3334" relative="1" as="geometry">
            <mxPoint x="380" y="1370" as="targetPoint" />
            <mxPoint x="320" y="1350" as="sourcePoint" />
            <mxPoint as="offset" />
          </mxGeometry>
        </mxCell>
        <mxCell id="9fai15Jy2hckLmUoozY7-216" value="DS18B20 - &lt;br&gt;Engine &lt;br&gt;cool water" style="sketch=0;outlineConnect=0;fontColor=#232F3E;gradientColor=none;fillColor=#7AA116;strokeColor=none;dashed=0;verticalLabelPosition=bottom;verticalAlign=top;align=center;html=1;fontSize=12;fontStyle=0;aspect=fixed;pointerEvents=1;shape=mxgraph.aws4.iot_thing_temperature_sensor;" parent="1" vertex="1">
          <mxGeometry x="350.25" y="1522" width="38" height="38" as="geometry" />
        </mxCell>
        <mxCell id="9fai15Jy2hckLmUoozY7-221" style="edgeStyle=orthogonalEdgeStyle;rounded=0;orthogonalLoop=1;jettySize=auto;html=1;strokeColor=default;strokeWidth=3;align=center;verticalAlign=middle;fontFamily=Helvetica;fontSize=11;fontColor=default;labelBackgroundColor=default;endArrow=none;endFill=0;" parent="1" source="9fai15Jy2hckLmUoozY7-218" target="9fai15Jy2hckLmUoozY7-208" edge="1">
          <mxGeometry relative="1" as="geometry">
            <mxPoint x="429" y="1490" as="targetPoint" />
            <Array as="points">
              <mxPoint x="430" y="1490" />
              <mxPoint x="430" y="1490" />
            </Array>
          </mxGeometry>
        </mxCell>
        <mxCell id="9fai15Jy2hckLmUoozY7-218" value="DS18B20 - &lt;br&gt;Engine &lt;br&gt;Exhaust" style="sketch=0;outlineConnect=0;fontColor=#232F3E;gradientColor=none;fillColor=#7AA116;strokeColor=none;dashed=0;verticalLabelPosition=bottom;verticalAlign=top;align=center;html=1;fontSize=12;fontStyle=0;aspect=fixed;pointerEvents=1;shape=mxgraph.aws4.iot_thing_temperature_sensor;" parent="1" vertex="1">
          <mxGeometry x="421.75" y="1522" width="38" height="38" as="geometry" />
        </mxCell>
        <mxCell id="9fai15Jy2hckLmUoozY7-219" value="DS18B20 - &lt;br&gt;Engine &lt;br&gt;Head" style="sketch=0;outlineConnect=0;fontColor=#232F3E;gradientColor=none;fillColor=#7AA116;strokeColor=none;dashed=0;verticalLabelPosition=bottom;verticalAlign=top;align=center;html=1;fontSize=12;fontStyle=0;aspect=fixed;pointerEvents=1;shape=mxgraph.aws4.iot_thing_temperature_sensor;" parent="1" vertex="1">
          <mxGeometry x="490.75" y="1522" width="38" height="38" as="geometry" />
        </mxCell>
        <mxCell id="9fai15Jy2hckLmUoozY7-220" style="edgeStyle=orthogonalEdgeStyle;rounded=0;orthogonalLoop=1;jettySize=auto;html=1;strokeColor=default;strokeWidth=3;align=center;verticalAlign=middle;fontFamily=Helvetica;fontSize=11;fontColor=default;labelBackgroundColor=default;endArrow=none;endFill=0;" parent="1" source="9fai15Jy2hckLmUoozY7-216" target="9fai15Jy2hckLmUoozY7-208" edge="1">
          <mxGeometry relative="1" as="geometry">
            <Array as="points">
              <mxPoint x="359" y="1490" />
              <mxPoint x="430" y="1490" />
            </Array>
          </mxGeometry>
        </mxCell>
        <mxCell id="9fai15Jy2hckLmUoozY7-222" style="edgeStyle=orthogonalEdgeStyle;rounded=0;orthogonalLoop=1;jettySize=auto;html=1;strokeColor=default;strokeWidth=3;align=center;verticalAlign=middle;fontFamily=Helvetica;fontSize=11;fontColor=default;labelBackgroundColor=default;endArrow=none;endFill=0;" parent="1" source="9fai15Jy2hckLmUoozY7-219" target="9fai15Jy2hckLmUoozY7-208" edge="1">
          <mxGeometry relative="1" as="geometry">
            <Array as="points">
              <mxPoint x="500" y="1490" />
              <mxPoint x="430" y="1490" />
            </Array>
          </mxGeometry>
        </mxCell>
        <mxCell id="9fai15Jy2hckLmUoozY7-223" value="Fresh Water&lt;br&gt;Tank level" style="text;html=1;align=center;verticalAlign=middle;whiteSpace=wrap;rounded=0;strokeColor=default;" parent="1" vertex="1">
          <mxGeometry x="585" y="1140" width="75" height="30" as="geometry" />
        </mxCell>
        <mxCell id="9fai15Jy2hckLmUoozY7-225" value="Diesel&lt;br&gt;Tank level" style="text;html=1;align=center;verticalAlign=middle;whiteSpace=wrap;rounded=0;strokeColor=default;" parent="1" vertex="1">
          <mxGeometry x="585" y="1179" width="75" height="30" as="geometry" />
        </mxCell>
        <mxCell id="9fai15Jy2hckLmUoozY7-226" value="Engine temperatures" style="text;html=1;align=center;verticalAlign=middle;whiteSpace=wrap;rounded=0;strokeColor=default;" parent="1" vertex="1">
          <mxGeometry x="585" y="1220" width="75" height="30" as="geometry" />
        </mxCell>
        <mxCell id="9fai15Jy2hckLmUoozY7-91" style="edgeStyle=orthogonalEdgeStyle;rounded=0;orthogonalLoop=1;jettySize=auto;html=1;strokeColor=#FF3333;strokeWidth=4;align=center;verticalAlign=middle;fontFamily=Helvetica;fontSize=11;fontColor=default;labelBackgroundColor=default;endArrow=none;endFill=0;" parent="1" source="9fai15Jy2hckLmUoozY7-81" target="9fai15Jy2hckLmUoozY7-22" edge="1">
          <mxGeometry relative="1" as="geometry">
            <mxPoint x="-30" y="320" as="targetPoint" />
            <Array as="points">
              <mxPoint x="-50" y="515" />
              <mxPoint x="-50" y="230" />
            </Array>
          </mxGeometry>
        </mxCell>
        <mxCell id="9fai15Jy2hckLmUoozY7-92" style="edgeStyle=orthogonalEdgeStyle;rounded=0;orthogonalLoop=1;jettySize=auto;html=1;strokeColor=#FF3333;strokeWidth=4;align=center;verticalAlign=middle;fontFamily=Helvetica;fontSize=11;fontColor=default;labelBackgroundColor=default;endArrow=none;endFill=0;" parent="1" source="9fai15Jy2hckLmUoozY7-83" target="9fai15Jy2hckLmUoozY7-22" edge="1">
          <mxGeometry relative="1" as="geometry">
            <mxPoint x="-30" y="510" as="targetPoint" />
            <Array as="points">
              <mxPoint x="-50" y="605" />
              <mxPoint x="-50" y="230" />
            </Array>
          </mxGeometry>
        </mxCell>
        <mxCell id="9fai15Jy2hckLmUoozY7-238" style="edgeStyle=orthogonalEdgeStyle;rounded=0;orthogonalLoop=1;jettySize=auto;html=1;entryX=0;entryY=0.75;entryDx=0;entryDy=0;strokeColor=default;strokeWidth=3;align=center;verticalAlign=middle;fontFamily=Helvetica;fontSize=11;fontColor=default;labelBackgroundColor=default;endArrow=none;endFill=0;" parent="1" source="9fai15Jy2hckLmUoozY7-232" target="9fai15Jy2hckLmUoozY7-234" edge="1">
          <mxGeometry relative="1" as="geometry" />
        </mxCell>
        <mxCell id="9fai15Jy2hckLmUoozY7-240" style="edgeStyle=orthogonalEdgeStyle;rounded=0;orthogonalLoop=1;jettySize=auto;html=1;entryX=0;entryY=0.5;entryDx=0;entryDy=0;strokeColor=default;strokeWidth=3;align=center;verticalAlign=middle;fontFamily=Helvetica;fontSize=11;fontColor=default;labelBackgroundColor=default;endArrow=none;endFill=0;" parent="1" source="9fai15Jy2hckLmUoozY7-232" target="9fai15Jy2hckLmUoozY7-235" edge="1">
          <mxGeometry relative="1" as="geometry" />
        </mxCell>
        <mxCell id="9fai15Jy2hckLmUoozY7-241" style="edgeStyle=orthogonalEdgeStyle;rounded=0;orthogonalLoop=1;jettySize=auto;html=1;entryX=0;entryY=0.5;entryDx=0;entryDy=0;strokeColor=default;strokeWidth=3;align=center;verticalAlign=middle;fontFamily=Helvetica;fontSize=11;fontColor=default;labelBackgroundColor=default;endArrow=none;endFill=0;" parent="1" source="9fai15Jy2hckLmUoozY7-232" target="9fai15Jy2hckLmUoozY7-236" edge="1">
          <mxGeometry relative="1" as="geometry" />
        </mxCell>
        <mxCell id="9fai15Jy2hckLmUoozY7-242" style="edgeStyle=orthogonalEdgeStyle;rounded=0;orthogonalLoop=1;jettySize=auto;html=1;entryX=0;entryY=0.5;entryDx=0;entryDy=0;strokeColor=default;strokeWidth=3;align=center;verticalAlign=middle;fontFamily=Helvetica;fontSize=11;fontColor=default;labelBackgroundColor=default;endArrow=none;endFill=0;" parent="1" source="9fai15Jy2hckLmUoozY7-232" target="9fai15Jy2hckLmUoozY7-237" edge="1">
          <mxGeometry relative="1" as="geometry" />
        </mxCell>
        <mxCell id="9fai15Jy2hckLmUoozY7-234" value="Fresh Water&lt;br&gt;Tank level" style="text;html=1;align=center;verticalAlign=middle;whiteSpace=wrap;rounded=0;strokeColor=default;" parent="1" vertex="1">
          <mxGeometry x="1070" y="549" width="75" height="30" as="geometry" />
        </mxCell>
        <mxCell id="9fai15Jy2hckLmUoozY7-235" value="Diesel&lt;br&gt;Tank level" style="text;html=1;align=center;verticalAlign=middle;whiteSpace=wrap;rounded=0;strokeColor=default;" parent="1" vertex="1">
          <mxGeometry x="1070" y="588" width="75" height="30" as="geometry" />
        </mxCell>
        <mxCell id="9fai15Jy2hckLmUoozY7-236" value="Engine temperatures" style="text;html=1;align=center;verticalAlign=middle;whiteSpace=wrap;rounded=0;strokeColor=default;" parent="1" vertex="1">
          <mxGeometry x="1070" y="629" width="75" height="30" as="geometry" />
        </mxCell>
        <mxCell id="9fai15Jy2hckLmUoozY7-237" value="NMEA data" style="text;html=1;align=center;verticalAlign=middle;whiteSpace=wrap;rounded=0;strokeColor=default;" parent="1" vertex="1">
          <mxGeometry x="1070" y="670" width="75" height="30" as="geometry" />
        </mxCell>
        <mxCell id="9fai15Jy2hckLmUoozY7-268" style="edgeStyle=orthogonalEdgeStyle;rounded=0;orthogonalLoop=1;jettySize=auto;html=1;entryX=0;entryY=0.5;entryDx=0;entryDy=0;strokeColor=default;strokeWidth=3;align=center;verticalAlign=middle;fontFamily=Helvetica;fontSize=11;fontColor=default;labelBackgroundColor=default;endArrow=none;endFill=0;" parent="1" source="9fai15Jy2hckLmUoozY7-232" target="9fai15Jy2hckLmUoozY7-267" edge="1">
          <mxGeometry relative="1" as="geometry" />
        </mxCell>
        <mxCell id="9fai15Jy2hckLmUoozY7-232" value="4d Systems -GEN4-IOD-24T&lt;br&gt;Touchscreen display&lt;br&gt;Queries from InFluxDB" style="verticalLabelPosition=bottom;html=1;verticalAlign=top;align=center;strokeColor=none;fillColor=#00BEF2;shape=mxgraph.azure.computer;pointerEvents=1;labelBackgroundColor=default;" parent="1" vertex="1">
          <mxGeometry x="1000" y="410" width="90" height="80" as="geometry" />
        </mxCell>
        <mxCell id="9fai15Jy2hckLmUoozY7-251" value="" style="group" parent="1" vertex="1" connectable="0">
          <mxGeometry x="777" y="1430" width="35" height="60" as="geometry" />
        </mxCell>
        <mxCell id="9fai15Jy2hckLmUoozY7-249" value="" style="pointerEvents=1;verticalLabelPosition=bottom;shadow=0;dashed=0;align=center;html=1;verticalAlign=top;shape=mxgraph.electrical.electro-mechanical.loudspeaker;" parent="9fai15Jy2hckLmUoozY7-251" vertex="1">
          <mxGeometry width="25" height="50" as="geometry" />
        </mxCell>
        <mxCell id="9fai15Jy2hckLmUoozY7-250" value="2x Speakers below" style="pointerEvents=1;verticalLabelPosition=bottom;shadow=0;dashed=0;align=center;html=1;verticalAlign=top;shape=mxgraph.electrical.electro-mechanical.loudspeaker;" parent="9fai15Jy2hckLmUoozY7-251" vertex="1">
          <mxGeometry x="10" y="10" width="25" height="50" as="geometry" />
        </mxCell>
        <mxCell id="9fai15Jy2hckLmUoozY7-252" value="" style="group" parent="1" vertex="1" connectable="0">
          <mxGeometry x="-160" y="950" width="35" height="60" as="geometry" />
        </mxCell>
        <mxCell id="9fai15Jy2hckLmUoozY7-253" value="" style="pointerEvents=1;verticalLabelPosition=bottom;shadow=0;dashed=0;align=center;html=1;verticalAlign=top;shape=mxgraph.electrical.electro-mechanical.loudspeaker;" parent="9fai15Jy2hckLmUoozY7-252" vertex="1">
          <mxGeometry width="25" height="50" as="geometry" />
        </mxCell>
        <mxCell id="9fai15Jy2hckLmUoozY7-254" value="2x Speakers Cockpit" style="pointerEvents=1;verticalLabelPosition=bottom;shadow=0;dashed=0;align=center;html=1;verticalAlign=top;shape=mxgraph.electrical.electro-mechanical.loudspeaker;" parent="9fai15Jy2hckLmUoozY7-252" vertex="1">
          <mxGeometry x="10" y="10" width="25" height="50" as="geometry" />
        </mxCell>
        <mxCell id="9fai15Jy2hckLmUoozY7-255" value="" style="group" parent="1" vertex="1" connectable="0">
          <mxGeometry x="157" y="1068" width="180" height="182" as="geometry" />
        </mxCell>
        <mxCell id="9fai15Jy2hckLmUoozY7-247" value="" style="group" parent="9fai15Jy2hckLmUoozY7-255" vertex="1" connectable="0">
          <mxGeometry x="50" y="10" width="130" height="172" as="geometry" />
        </mxCell>
        <mxCell id="9fai15Jy2hckLmUoozY7-246" value="" style="rounded=0;whiteSpace=wrap;html=1;fillColor=none;" parent="9fai15Jy2hckLmUoozY7-247" vertex="1">
          <mxGeometry y="10" width="130" height="172" as="geometry" />
        </mxCell>
        <mxCell id="9fai15Jy2hckLmUoozY7-243" value="" style="image;html=1;image=img/lib/clip_art/general/Bluetooth_128x128.png" parent="9fai15Jy2hckLmUoozY7-247" vertex="1">
          <mxGeometry x="45" y="10" width="50" height="40" as="geometry" />
        </mxCell>
        <mxCell id="9fai15Jy2hckLmUoozY7-244" value="Bluetooth audio amp" style="verticalLabelPosition=bottom;shadow=0;dashed=0;align=center;html=1;verticalAlign=top;shape=mxgraph.electrical.abstract.ota_2;" parent="9fai15Jy2hckLmUoozY7-247" vertex="1">
          <mxGeometry x="25" y="82" width="70" height="50" as="geometry" />
        </mxCell>
        <mxCell id="9fai15Jy2hckLmUoozY7-245" style="edgeStyle=orthogonalEdgeStyle;rounded=0;orthogonalLoop=1;jettySize=auto;html=1;entryX=0.4;entryY=0.05;entryDx=0;entryDy=0;entryPerimeter=0;strokeColor=default;strokeWidth=3;align=center;verticalAlign=middle;fontFamily=Helvetica;fontSize=11;fontColor=default;labelBackgroundColor=default;endArrow=none;endFill=0;" parent="9fai15Jy2hckLmUoozY7-247" source="9fai15Jy2hckLmUoozY7-243" target="9fai15Jy2hckLmUoozY7-244" edge="1">
          <mxGeometry relative="1" as="geometry" />
        </mxCell>
        <mxCell id="9fai15Jy2hckLmUoozY7-248" value="&lt;font style=&quot;font-size: 13px;&quot;&gt;~12V&lt;/font&gt;" style="edgeStyle=orthogonalEdgeStyle;rounded=0;orthogonalLoop=1;jettySize=auto;html=1;strokeColor=#0000FF;strokeWidth=3;align=center;verticalAlign=middle;fontFamily=Helvetica;fontSize=11;fontColor=default;labelBackgroundColor=default;endArrow=none;endFill=0;" parent="9fai15Jy2hckLmUoozY7-255" edge="1">
          <mxGeometry x="-0.3334" relative="1" as="geometry">
            <mxPoint x="60" y="20" as="targetPoint" />
            <mxPoint as="sourcePoint" />
            <mxPoint as="offset" />
          </mxGeometry>
        </mxCell>
        <mxCell id="9fai15Jy2hckLmUoozY7-256" style="edgeStyle=orthogonalEdgeStyle;rounded=0;orthogonalLoop=1;jettySize=auto;html=1;entryX=0.25;entryY=0;entryDx=0;entryDy=0;strokeColor=default;strokeWidth=3;align=center;verticalAlign=middle;fontFamily=Helvetica;fontSize=11;fontColor=default;labelBackgroundColor=default;endArrow=none;endFill=0;" parent="1" source="9fai15Jy2hckLmUoozY7-254" target="9fai15Jy2hckLmUoozY7-246" edge="1">
          <mxGeometry relative="1" as="geometry" />
        </mxCell>
        <mxCell id="9fai15Jy2hckLmUoozY7-257" style="edgeStyle=orthogonalEdgeStyle;rounded=0;orthogonalLoop=1;jettySize=auto;html=1;entryX=0.5;entryY=1;entryDx=0;entryDy=0;strokeColor=default;strokeWidth=3;align=center;verticalAlign=middle;fontFamily=Helvetica;fontSize=11;fontColor=default;labelBackgroundColor=default;endArrow=none;endFill=0;" parent="1" source="9fai15Jy2hckLmUoozY7-250" target="9fai15Jy2hckLmUoozY7-246" edge="1">
          <mxGeometry relative="1" as="geometry">
            <Array as="points">
              <mxPoint x="272" y="1330" />
            </Array>
          </mxGeometry>
        </mxCell>
        <mxCell id="9fai15Jy2hckLmUoozY7-264" value="Light Nav Station&lt;br&gt;White/Red" style="verticalLabelPosition=bottom;shadow=0;dashed=0;align=center;html=1;verticalAlign=top;shape=mxgraph.electrical.opto_electronics.led_2;pointerEvents=1;" parent="1" vertex="1">
          <mxGeometry x="-699.09" y="114" width="100" height="70" as="geometry" />
        </mxCell>
        <mxCell id="9fai15Jy2hckLmUoozY7-279" style="edgeStyle=orthogonalEdgeStyle;rounded=0;orthogonalLoop=1;jettySize=auto;html=1;shape=link;strokeColor=#66FF66;strokeWidth=3;align=center;verticalAlign=middle;fontFamily=Helvetica;fontSize=11;fontColor=default;labelBackgroundColor=default;endArrow=classic;" parent="1" source="9fai15Jy2hckLmUoozY7-266" target="9fai15Jy2hckLmUoozY7-271" edge="1">
          <mxGeometry relative="1" as="geometry" />
        </mxCell>
        <mxCell id="9fai15Jy2hckLmUoozY7-266" value="230V mains input&lt;br&gt;from HPFI and 10A Fuse" style="image;aspect=fixed;html=1;points=[];align=center;fontSize=12;image=img/lib/azure2/general/Power.svg;" parent="1" vertex="1">
          <mxGeometry x="635.44" y="22.5" width="29.12" height="45" as="geometry" />
        </mxCell>
        <mxCell id="9fai15Jy2hckLmUoozY7-267" value="Battery info" style="text;html=1;align=center;verticalAlign=middle;whiteSpace=wrap;rounded=0;strokeColor=default;" parent="1" vertex="1">
          <mxGeometry x="1070" y="710" width="75" height="30" as="geometry" />
        </mxCell>
        <mxCell id="9fai15Jy2hckLmUoozY7-269" value="Battery info" style="text;html=1;align=center;verticalAlign=middle;whiteSpace=wrap;rounded=0;strokeColor=default;" parent="1" vertex="1">
          <mxGeometry x="585" y="1260" width="75" height="30" as="geometry" />
        </mxCell>
        <mxCell id="9fai15Jy2hckLmUoozY7-473" value="Both" style="edgeStyle=none;rounded=0;orthogonalLoop=1;jettySize=auto;html=1;strokeColor=#0000FF;strokeWidth=3;align=center;verticalAlign=middle;fontFamily=Helvetica;fontSize=11;fontColor=default;labelBackgroundColor=default;endArrow=classic;shape=link;" parent="1" source="9fai15Jy2hckLmUoozY7-272" edge="1">
          <mxGeometry relative="1" as="geometry">
            <mxPoint x="960" y="212" as="targetPoint" />
          </mxGeometry>
        </mxCell>
        <mxCell id="9fai15Jy2hckLmUoozY7-272" value="Main Battery&lt;br&gt;selector" style="pointerEvents=1;verticalLabelPosition=bottom;shadow=0;dashed=0;align=center;html=1;verticalAlign=top;shape=mxgraph.electrical.electro-mechanical.selectorSwitch3Position2;elSwitchState=1;" parent="1" vertex="1">
          <mxGeometry x="820" y="189" width="75" height="46" as="geometry" />
        </mxCell>
        <mxCell id="9fai15Jy2hckLmUoozY7-273" style="edgeStyle=orthogonalEdgeStyle;rounded=0;orthogonalLoop=1;jettySize=auto;html=1;entryX=0.962;entryY=0.047;entryDx=0;entryDy=0;entryPerimeter=0;strokeColor=#0000FF;strokeWidth=3;align=center;verticalAlign=middle;fontFamily=Helvetica;fontSize=11;fontColor=default;labelBackgroundColor=default;endArrow=classic;shape=link;exitX=0.5;exitY=1;exitDx=0;exitDy=0;" parent="1" source="dnTUehm-ubC7icJpAnx4-2" target="9fai15Jy2hckLmUoozY7-272" edge="1">
          <mxGeometry relative="1" as="geometry">
            <Array as="points">
              <mxPoint x="955" y="191" />
            </Array>
          </mxGeometry>
        </mxCell>
        <mxCell id="9fai15Jy2hckLmUoozY7-274" style="edgeStyle=orthogonalEdgeStyle;rounded=0;orthogonalLoop=1;jettySize=auto;html=1;entryX=1;entryY=0.3;entryDx=0;entryDy=0;entryPerimeter=0;strokeColor=#0000FF;strokeWidth=3;align=center;verticalAlign=middle;fontFamily=Helvetica;fontSize=11;fontColor=default;labelBackgroundColor=default;endArrow=classic;shape=link;" parent="1" source="9fai15Jy2hckLmUoozY7-272" target="9fai15Jy2hckLmUoozY7-1" edge="1">
          <mxGeometry relative="1" as="geometry" />
        </mxCell>
        <mxCell id="9fai15Jy2hckLmUoozY7-278" style="edgeStyle=orthogonalEdgeStyle;rounded=0;orthogonalLoop=1;jettySize=auto;html=1;entryX=0;entryY=0.3;entryDx=0;entryDy=0;entryPerimeter=0;strokeColor=#0000FF;strokeWidth=3;align=center;verticalAlign=middle;fontFamily=Helvetica;fontSize=11;fontColor=default;labelBackgroundColor=default;endArrow=classic;shape=link;" parent="1" source="9fai15Jy2hckLmUoozY7-271" target="9fai15Jy2hckLmUoozY7-1" edge="1">
          <mxGeometry relative="1" as="geometry" />
        </mxCell>
        <mxCell id="9fai15Jy2hckLmUoozY7-271" value="Victron&lt;br&gt;MultiPlus 12/500" style="html=1;verticalLabelPosition=bottom;verticalAlign=top;outlineConnect=0;shadow=0;dashed=0;shape=mxgraph.rack.hpe_aruba.switches.j9829a_5400r_1100w_poeplus_zl2_power_supply;labelBackgroundColor=default;" parent="1" vertex="1">
          <mxGeometry x="763" y="23.5" width="63" height="43" as="geometry" />
        </mxCell>
        <object label="150Ah - 12V - LiFePo4&lt;br&gt;Bluetooth Xiaoxiang BMS" Text="150A LiFePo4" placeholders="1" id="dnTUehm-ubC7icJpAnx4-2">
          <mxCell style="image;html=1;image=img/lib/clip_art/general/Battery_75_128x128.png;shadow=0;" parent="1" vertex="1">
            <mxGeometry x="915" y="25" width="80" height="80" as="geometry" />
          </mxCell>
        </object>
        <mxCell id="9fai15Jy2hckLmUoozY7-282" style="edgeStyle=orthogonalEdgeStyle;rounded=0;orthogonalLoop=1;jettySize=auto;html=1;exitX=0;exitY=0.3;exitDx=0;exitDy=0;exitPerimeter=0;entryX=0.97;entryY=0.96;entryDx=0;entryDy=0;entryPerimeter=0;strokeColor=#0000FF;strokeWidth=3;align=center;verticalAlign=middle;fontFamily=Helvetica;fontSize=11;fontColor=default;labelBackgroundColor=default;endArrow=classic;shape=link;" parent="1" source="9fai15Jy2hckLmUoozY7-4" target="9fai15Jy2hckLmUoozY7-272" edge="1">
          <mxGeometry relative="1" as="geometry" />
        </mxCell>
        <mxCell id="9fai15Jy2hckLmUoozY7-285" value="" style="pointerEvents=1;verticalLabelPosition=bottom;shadow=0;dashed=0;align=center;html=1;verticalAlign=top;shape=mxgraph.electrical.signal_sources.protective_earth;" parent="1" vertex="1">
          <mxGeometry x="-420" y="235" width="25" height="20" as="geometry" />
        </mxCell>
        <mxCell id="9fai15Jy2hckLmUoozY7-286" style="edgeStyle=orthogonalEdgeStyle;rounded=0;orthogonalLoop=1;jettySize=auto;html=1;exitX=0;exitY=0.8;exitDx=0;exitDy=0;entryX=0.5;entryY=0;entryDx=0;entryDy=0;entryPerimeter=0;strokeColor=default;strokeWidth=3;align=center;verticalAlign=middle;fontFamily=Helvetica;fontSize=11;fontColor=default;labelBackgroundColor=default;endArrow=none;endFill=0;" parent="1" source="9fai15Jy2hckLmUoozY7-117" target="9fai15Jy2hckLmUoozY7-285" edge="1">
          <mxGeometry relative="1" as="geometry" />
        </mxCell>
        <mxCell id="9fai15Jy2hckLmUoozY7-300" style="edgeStyle=orthogonalEdgeStyle;rounded=0;orthogonalLoop=1;jettySize=auto;html=1;strokeColor=#FF00FF;strokeWidth=3;align=center;verticalAlign=middle;fontFamily=Helvetica;fontSize=11;fontColor=default;labelBackgroundColor=default;endArrow=none;endFill=0;" parent="1" source="9fai15Jy2hckLmUoozY7-289" target="9fai15Jy2hckLmUoozY7-295" edge="1">
          <mxGeometry relative="1" as="geometry" />
        </mxCell>
        <mxCell id="9fai15Jy2hckLmUoozY7-289" value="Mast Head&lt;br&gt;VHF Antenna" style="verticalLabelPosition=bottom;shadow=0;dashed=0;align=center;html=1;verticalAlign=top;shape=mxgraph.electrical.radio.aerial_-_antenna_1;" parent="1" vertex="1">
          <mxGeometry x="-160" y="860" width="40" height="40" as="geometry" />
        </mxCell>
        <mxCell id="9fai15Jy2hckLmUoozY7-291" value="&lt;font style=&quot;font-size: 13px;&quot;&gt;~12V&lt;/font&gt;" style="edgeStyle=orthogonalEdgeStyle;rounded=0;orthogonalLoop=1;jettySize=auto;html=1;strokeColor=#0000FF;strokeWidth=3;align=center;verticalAlign=middle;fontFamily=Helvetica;fontSize=11;fontColor=default;labelBackgroundColor=default;endArrow=none;endFill=0;" parent="1" edge="1">
          <mxGeometry x="-0.3334" relative="1" as="geometry">
            <mxPoint x="336.46" y="679" as="targetPoint" />
            <mxPoint x="276.46" y="659" as="sourcePoint" />
            <mxPoint as="offset" />
          </mxGeometry>
        </mxCell>
        <mxCell id="9fai15Jy2hckLmUoozY7-296" style="edgeStyle=orthogonalEdgeStyle;rounded=0;orthogonalLoop=1;jettySize=auto;html=1;endArrow=none;endFill=0;strokeWidth=3;strokeColor=#FF00FF;" parent="1" source="9fai15Jy2hckLmUoozY7-295" target="9fai15Jy2hckLmUoozY7-290" edge="1">
          <mxGeometry relative="1" as="geometry">
            <Array as="points">
              <mxPoint x="234" y="890" />
            </Array>
          </mxGeometry>
        </mxCell>
        <mxCell id="9fai15Jy2hckLmUoozY7-295" value="Active VHF combiner" style="verticalLabelPosition=bottom;shadow=0;dashed=0;align=center;html=1;verticalAlign=top;shape=mxgraph.electrical.abstract.amplifier;direction=west;" parent="1" vertex="1">
          <mxGeometry y="850" width="57" height="60" as="geometry" />
        </mxCell>
        <mxCell id="9fai15Jy2hckLmUoozY7-290" value="VHF Radio - Shipmate" style="sketch=0;pointerEvents=1;shadow=0;dashed=0;html=1;strokeColor=none;fillColor=#505050;labelPosition=center;verticalLabelPosition=bottom;verticalAlign=top;outlineConnect=0;align=center;shape=mxgraph.office.devices.phone_voip;labelBackgroundColor=default;" parent="1" vertex="1">
          <mxGeometry x="205.5" y="629" width="57" height="51" as="geometry" />
        </mxCell>
        <mxCell id="9fai15Jy2hckLmUoozY7-301" value="&lt;font style=&quot;font-size: 13px;&quot;&gt;~12V&lt;/font&gt;" style="edgeStyle=orthogonalEdgeStyle;rounded=0;orthogonalLoop=1;jettySize=auto;html=1;strokeColor=#0000FF;strokeWidth=3;align=center;verticalAlign=middle;fontFamily=Helvetica;fontSize=11;fontColor=default;labelBackgroundColor=default;endArrow=none;endFill=0;" parent="1" edge="1">
          <mxGeometry x="-0.3334" relative="1" as="geometry">
            <mxPoint x="116.99999999999997" y="920" as="targetPoint" />
            <mxPoint x="56.99999999999997" y="900" as="sourcePoint" />
            <mxPoint as="offset" />
          </mxGeometry>
        </mxCell>
        <mxCell id="9fai15Jy2hckLmUoozY7-309" value="Light Kitchen&lt;br&gt;White/Red" style="verticalLabelPosition=bottom;shadow=0;dashed=0;align=center;html=1;verticalAlign=top;shape=mxgraph.electrical.opto_electronics.led_2;pointerEvents=1;" parent="1" vertex="1">
          <mxGeometry x="-699.09" y="224" width="100" height="70" as="geometry" />
        </mxCell>
        <mxCell id="9fai15Jy2hckLmUoozY7-388" style="edgeStyle=orthogonalEdgeStyle;rounded=0;orthogonalLoop=1;jettySize=auto;html=1;entryX=1;entryY=0.1;entryDx=0;entryDy=0;strokeColor=#3333FF;strokeWidth=2;align=center;verticalAlign=middle;fontFamily=Helvetica;fontSize=11;fontColor=default;labelBackgroundColor=default;endArrow=none;endFill=0;exitX=0;exitY=0.57;exitDx=0;exitDy=0;exitPerimeter=0;" parent="1" source="9fai15Jy2hckLmUoozY7-312" target="9fai15Jy2hckLmUoozY7-367" edge="1">
          <mxGeometry relative="1" as="geometry" />
        </mxCell>
        <mxCell id="9fai15Jy2hckLmUoozY7-312" value="Light Saloon" style="verticalLabelPosition=bottom;shadow=0;dashed=0;align=center;html=1;verticalAlign=top;shape=mxgraph.electrical.opto_electronics.led_2;pointerEvents=1;" parent="1" vertex="1">
          <mxGeometry x="-699.09" y="334" width="100" height="70" as="geometry" />
        </mxCell>
        <mxCell id="9fai15Jy2hckLmUoozY7-389" style="edgeStyle=orthogonalEdgeStyle;rounded=0;orthogonalLoop=1;jettySize=auto;html=1;exitX=0;exitY=0.57;exitDx=0;exitDy=0;exitPerimeter=0;entryX=1;entryY=0.1;entryDx=0;entryDy=0;strokeColor=#3333FF;strokeWidth=2;align=center;verticalAlign=middle;fontFamily=Helvetica;fontSize=11;fontColor=default;labelBackgroundColor=default;endArrow=none;endFill=0;" parent="1" source="9fai15Jy2hckLmUoozY7-313" target="9fai15Jy2hckLmUoozY7-370" edge="1">
          <mxGeometry relative="1" as="geometry" />
        </mxCell>
        <mxCell id="9fai15Jy2hckLmUoozY7-313" value="Light Aft Starboard Cabin" style="verticalLabelPosition=bottom;shadow=0;dashed=0;align=center;html=1;verticalAlign=top;shape=mxgraph.electrical.opto_electronics.led_2;pointerEvents=1;" parent="1" vertex="1">
          <mxGeometry x="-699.09" y="430" width="100" height="70" as="geometry" />
        </mxCell>
        <mxCell id="9fai15Jy2hckLmUoozY7-390" style="edgeStyle=orthogonalEdgeStyle;rounded=0;orthogonalLoop=1;jettySize=auto;html=1;exitX=0;exitY=0.57;exitDx=0;exitDy=0;exitPerimeter=0;entryX=1;entryY=0.1;entryDx=0;entryDy=0;strokeColor=#3333FF;strokeWidth=2;align=center;verticalAlign=middle;fontFamily=Helvetica;fontSize=11;fontColor=default;labelBackgroundColor=default;endArrow=none;endFill=0;" parent="1" source="9fai15Jy2hckLmUoozY7-314" target="9fai15Jy2hckLmUoozY7-376" edge="1">
          <mxGeometry relative="1" as="geometry" />
        </mxCell>
        <mxCell id="9fai15Jy2hckLmUoozY7-314" value="Light Aft&amp;nbsp; Port Cabin" style="verticalLabelPosition=bottom;shadow=0;dashed=0;align=center;html=1;verticalAlign=top;shape=mxgraph.electrical.opto_electronics.led_2;pointerEvents=1;" parent="1" vertex="1">
          <mxGeometry x="-699.09" y="528" width="100" height="70" as="geometry" />
        </mxCell>
        <mxCell id="9fai15Jy2hckLmUoozY7-391" style="edgeStyle=orthogonalEdgeStyle;rounded=0;orthogonalLoop=1;jettySize=auto;html=1;exitX=0;exitY=0.57;exitDx=0;exitDy=0;exitPerimeter=0;entryX=1;entryY=0.1;entryDx=0;entryDy=0;strokeColor=#3333FF;strokeWidth=2;align=center;verticalAlign=middle;fontFamily=Helvetica;fontSize=11;fontColor=default;labelBackgroundColor=default;endArrow=none;endFill=0;" parent="1" source="9fai15Jy2hckLmUoozY7-315" target="9fai15Jy2hckLmUoozY7-382" edge="1">
          <mxGeometry relative="1" as="geometry" />
        </mxCell>
        <mxCell id="9fai15Jy2hckLmUoozY7-315" value="Light Forward Cabin" style="verticalLabelPosition=bottom;shadow=0;dashed=0;align=center;html=1;verticalAlign=top;shape=mxgraph.electrical.opto_electronics.led_2;pointerEvents=1;" parent="1" vertex="1">
          <mxGeometry x="-699.09" y="622" width="100" height="70" as="geometry" />
        </mxCell>
        <mxCell id="9fai15Jy2hckLmUoozY7-392" style="edgeStyle=orthogonalEdgeStyle;rounded=0;orthogonalLoop=1;jettySize=auto;html=1;exitX=0;exitY=0.57;exitDx=0;exitDy=0;exitPerimeter=0;entryX=1;entryY=0.1;entryDx=0;entryDy=0;strokeColor=#3333FF;strokeWidth=2;align=center;verticalAlign=middle;fontFamily=Helvetica;fontSize=11;fontColor=default;labelBackgroundColor=default;endArrow=none;endFill=0;" parent="1" source="9fai15Jy2hckLmUoozY7-316" target="9fai15Jy2hckLmUoozY7-385" edge="1">
          <mxGeometry relative="1" as="geometry" />
        </mxCell>
        <mxCell id="9fai15Jy2hckLmUoozY7-316" value="Light Head" style="verticalLabelPosition=bottom;shadow=0;dashed=0;align=center;html=1;verticalAlign=top;shape=mxgraph.electrical.opto_electronics.led_2;pointerEvents=1;" parent="1" vertex="1">
          <mxGeometry x="-699.09" y="724" width="100" height="70" as="geometry" />
        </mxCell>
        <mxCell id="9fai15Jy2hckLmUoozY7-320" value="Stepping switch" style="html=1;shape=mxgraph.electrical.electro-mechanical.temperatureActuatedSwitch;aspect=fixed;elSwitchState=off;labelPosition=center;verticalLabelPosition=bottom;align=center;verticalAlign=top;" parent="1" vertex="1">
          <mxGeometry x="-950" y="154" width="75" height="31" as="geometry" />
        </mxCell>
        <mxCell id="9fai15Jy2hckLmUoozY7-322" style="edgeStyle=orthogonalEdgeStyle;rounded=0;orthogonalLoop=1;jettySize=auto;html=1;exitX=1;exitY=0.8;exitDx=0;exitDy=0;entryX=0;entryY=0.1;entryDx=0;entryDy=0;strokeColor=#3333FF;strokeWidth=2;endArrow=none;endFill=0;" parent="1" source="9fai15Jy2hckLmUoozY7-321" target="9fai15Jy2hckLmUoozY7-320" edge="1">
          <mxGeometry relative="1" as="geometry" />
        </mxCell>
        <mxCell id="9fai15Jy2hckLmUoozY7-321" value="Light push button" style="html=1;shape=mxgraph.electrical.electro-mechanical.pushbutton;aspect=fixed;elSwitchState=off;labelPosition=center;verticalLabelPosition=bottom;align=center;verticalAlign=top;" parent="1" vertex="1">
          <mxGeometry x="-1080" y="140" width="75" height="20" as="geometry" />
        </mxCell>
        <mxCell id="9fai15Jy2hckLmUoozY7-345" style="edgeStyle=orthogonalEdgeStyle;rounded=0;orthogonalLoop=1;jettySize=auto;html=1;entryX=0;entryY=0.8;entryDx=0;entryDy=0;strokeColor=#3333FF;strokeWidth=2;align=center;verticalAlign=middle;fontFamily=Helvetica;fontSize=11;fontColor=default;labelBackgroundColor=default;endArrow=none;endFill=0;" parent="1" source="9fai15Jy2hckLmUoozY7-323" target="9fai15Jy2hckLmUoozY7-321" edge="1">
          <mxGeometry relative="1" as="geometry">
            <mxPoint x="-1140" y="150" as="targetPoint" />
            <Array as="points">
              <mxPoint x="-1130" y="53" />
              <mxPoint x="-1130" y="156" />
            </Array>
          </mxGeometry>
        </mxCell>
        <mxCell id="9fai15Jy2hckLmUoozY7-361" style="edgeStyle=orthogonalEdgeStyle;rounded=0;orthogonalLoop=1;jettySize=auto;html=1;entryX=0;entryY=0.8;entryDx=0;entryDy=0;strokeColor=#3333FF;strokeWidth=2;align=center;verticalAlign=middle;fontFamily=Helvetica;fontSize=11;fontColor=default;labelBackgroundColor=default;endArrow=none;endFill=0;" parent="1" source="9fai15Jy2hckLmUoozY7-323" target="9fai15Jy2hckLmUoozY7-348" edge="1">
          <mxGeometry relative="1" as="geometry">
            <Array as="points">
              <mxPoint x="-1130" y="53" />
              <mxPoint x="-1130" y="261" />
            </Array>
          </mxGeometry>
        </mxCell>
        <mxCell id="9fai15Jy2hckLmUoozY7-323" value="Red/White light&lt;br&gt;reverse polarity switch" style="pointerEvents=1;verticalLabelPosition=bottom;shadow=0;dashed=0;align=center;html=1;verticalAlign=top;shape=mxgraph.electrical.electro-mechanical.selectorSwitch3Position2;elSwitchState=1;direction=east;" parent="1" vertex="1">
          <mxGeometry x="-1030" y="30" width="75" height="46" as="geometry" />
        </mxCell>
        <mxCell id="9fai15Jy2hckLmUoozY7-325" value="&lt;font style=&quot;font-size: 13px;&quot;&gt;~12V&lt;/font&gt;" style="edgeStyle=orthogonalEdgeStyle;rounded=0;orthogonalLoop=1;jettySize=auto;html=1;strokeColor=#0000FF;strokeWidth=3;align=center;verticalAlign=middle;fontFamily=Helvetica;fontSize=11;fontColor=default;labelBackgroundColor=default;endArrow=none;endFill=0;exitX=0.949;exitY=0.028;exitDx=0;exitDy=0;exitPerimeter=0;" parent="1" source="9fai15Jy2hckLmUoozY7-323" edge="1">
          <mxGeometry x="-0.3334" relative="1" as="geometry">
            <mxPoint x="-895" y="50" as="targetPoint" />
            <mxPoint x="-955" y="30" as="sourcePoint" />
            <mxPoint as="offset" />
            <Array as="points">
              <mxPoint x="-925" y="31" />
              <mxPoint x="-925" y="30" />
              <mxPoint x="-895" y="30" />
            </Array>
          </mxGeometry>
        </mxCell>
        <mxCell id="9fai15Jy2hckLmUoozY7-327" value="&lt;font style=&quot;font-size: 13px;&quot;&gt;~12V&lt;/font&gt;" style="edgeStyle=orthogonalEdgeStyle;rounded=0;orthogonalLoop=1;jettySize=auto;html=1;strokeColor=#0000FF;strokeWidth=3;align=center;verticalAlign=middle;fontFamily=Helvetica;fontSize=11;fontColor=default;labelBackgroundColor=default;endArrow=none;endFill=0;exitX=0.949;exitY=0.028;exitDx=0;exitDy=0;exitPerimeter=0;" parent="1" edge="1">
          <mxGeometry x="-0.3334" relative="1" as="geometry">
            <mxPoint x="-896" y="90" as="targetPoint" />
            <mxPoint x="-960" y="71" as="sourcePoint" />
            <mxPoint as="offset" />
            <Array as="points">
              <mxPoint x="-926" y="71" />
              <mxPoint x="-926" y="70" />
              <mxPoint x="-896" y="70" />
            </Array>
          </mxGeometry>
        </mxCell>
        <mxCell id="9fai15Jy2hckLmUoozY7-339" value="Red/whight &#xa;diode brigde" style="group;labelBackgroundColor=default;labelPosition=center;verticalLabelPosition=bottom;align=center;verticalAlign=top;" parent="1" vertex="1" connectable="0">
          <mxGeometry x="-800.0008152801713" y="139" width="44.04163056034258" height="50" as="geometry" />
        </mxCell>
        <mxCell id="9fai15Jy2hckLmUoozY7-328" value="" style="rounded=0;whiteSpace=wrap;html=1;fillColor=none;" parent="9fai15Jy2hckLmUoozY7-339" vertex="1">
          <mxGeometry x="2.0208152801712913" width="40" height="50" as="geometry" />
        </mxCell>
        <mxCell id="9fai15Jy2hckLmUoozY7-324" value="" style="pointerEvents=1;fillColor=strokeColor;verticalLabelPosition=bottom;shadow=0;dashed=0;align=center;html=1;verticalAlign=top;shape=mxgraph.electrical.diodes.diode;rotation=45;" parent="9fai15Jy2hckLmUoozY7-339" vertex="1">
          <mxGeometry x="2.0208152801712913" y="30" width="20" height="14" as="geometry" />
        </mxCell>
        <mxCell id="9fai15Jy2hckLmUoozY7-329" value="" style="pointerEvents=1;fillColor=strokeColor;verticalLabelPosition=bottom;shadow=0;dashed=0;align=center;html=1;verticalAlign=top;shape=mxgraph.electrical.diodes.diode;rotation=-45;" parent="9fai15Jy2hckLmUoozY7-339" vertex="1">
          <mxGeometry x="2.0208152801712913" y="11" width="20" height="14" as="geometry" />
        </mxCell>
        <mxCell id="9fai15Jy2hckLmUoozY7-333" value="" style="pointerEvents=1;fillColor=strokeColor;verticalLabelPosition=bottom;shadow=0;dashed=0;align=center;html=1;verticalAlign=top;shape=mxgraph.electrical.diodes.diode;rotation=-45;" parent="9fai15Jy2hckLmUoozY7-339" vertex="1">
          <mxGeometry x="22.02081528017129" y="30" width="20" height="14" as="geometry" />
        </mxCell>
        <mxCell id="9fai15Jy2hckLmUoozY7-334" value="" style="pointerEvents=1;fillColor=strokeColor;verticalLabelPosition=bottom;shadow=0;dashed=0;align=center;html=1;verticalAlign=top;shape=mxgraph.electrical.diodes.diode;rotation=45;" parent="9fai15Jy2hckLmUoozY7-339" vertex="1">
          <mxGeometry x="22.02081528017129" y="11" width="20" height="14" as="geometry" />
        </mxCell>
        <mxCell id="9fai15Jy2hckLmUoozY7-335" style="edgeStyle=orthogonalEdgeStyle;rounded=0;orthogonalLoop=1;jettySize=auto;html=1;exitX=1;exitY=0.5;exitDx=0;exitDy=0;exitPerimeter=0;entryX=0;entryY=0.5;entryDx=0;entryDy=0;entryPerimeter=0;endArrow=none;endFill=0;" parent="9fai15Jy2hckLmUoozY7-339" source="9fai15Jy2hckLmUoozY7-329" target="9fai15Jy2hckLmUoozY7-334" edge="1">
          <mxGeometry relative="1" as="geometry" />
        </mxCell>
        <mxCell id="9fai15Jy2hckLmUoozY7-337" style="edgeStyle=orthogonalEdgeStyle;rounded=0;orthogonalLoop=1;jettySize=auto;html=1;exitX=1;exitY=0.5;exitDx=0;exitDy=0;exitPerimeter=0;entryX=0;entryY=0.5;entryDx=0;entryDy=0;entryPerimeter=0;endArrow=none;endFill=0;" parent="9fai15Jy2hckLmUoozY7-339" source="9fai15Jy2hckLmUoozY7-324" target="9fai15Jy2hckLmUoozY7-333" edge="1">
          <mxGeometry relative="1" as="geometry" />
        </mxCell>
        <mxCell id="9fai15Jy2hckLmUoozY7-338" style="edgeStyle=orthogonalEdgeStyle;rounded=0;orthogonalLoop=1;jettySize=auto;html=1;exitX=0;exitY=0.5;exitDx=0;exitDy=0;exitPerimeter=0;entryX=0;entryY=0.5;entryDx=0;entryDy=0;entryPerimeter=0;endArrow=none;endFill=0;" parent="9fai15Jy2hckLmUoozY7-339" source="9fai15Jy2hckLmUoozY7-329" target="9fai15Jy2hckLmUoozY7-324" edge="1">
          <mxGeometry relative="1" as="geometry" />
        </mxCell>
        <mxCell id="9fai15Jy2hckLmUoozY7-341" style="edgeStyle=orthogonalEdgeStyle;rounded=0;orthogonalLoop=1;jettySize=auto;html=1;entryX=1;entryY=0.1;entryDx=0;entryDy=0;strokeColor=#3333FF;strokeWidth=2;align=center;verticalAlign=middle;fontFamily=Helvetica;fontSize=11;fontColor=default;labelBackgroundColor=default;endArrow=none;endFill=0;" parent="1" source="9fai15Jy2hckLmUoozY7-329" target="9fai15Jy2hckLmUoozY7-320" edge="1">
          <mxGeometry relative="1" as="geometry" />
        </mxCell>
        <mxCell id="9fai15Jy2hckLmUoozY7-343" value="Red+&amp;nbsp;" style="edgeStyle=orthogonalEdgeStyle;rounded=0;orthogonalLoop=1;jettySize=auto;html=1;entryX=0.318;entryY=0.375;entryDx=0;entryDy=0;entryPerimeter=0;strokeColor=#3333FF;strokeWidth=2;align=center;verticalAlign=middle;fontFamily=Helvetica;fontSize=11;fontColor=default;labelBackgroundColor=default;endArrow=none;endFill=0;" parent="1" source="9fai15Jy2hckLmUoozY7-334" target="9fai15Jy2hckLmUoozY7-264" edge="1">
          <mxGeometry relative="1" as="geometry" />
        </mxCell>
        <mxCell id="9fai15Jy2hckLmUoozY7-344" value="White+&amp;nbsp;" style="edgeStyle=orthogonalEdgeStyle;rounded=0;orthogonalLoop=1;jettySize=auto;html=1;entryX=0.301;entryY=0.807;entryDx=0;entryDy=0;entryPerimeter=0;strokeColor=#3333FF;strokeWidth=2;align=center;verticalAlign=middle;fontFamily=Helvetica;fontSize=11;fontColor=default;labelBackgroundColor=default;endArrow=none;endFill=0;" parent="1" source="9fai15Jy2hckLmUoozY7-334" target="9fai15Jy2hckLmUoozY7-264" edge="1">
          <mxGeometry relative="1" as="geometry" />
        </mxCell>
        <mxCell id="9fai15Jy2hckLmUoozY7-346" value="Stepping switch" style="html=1;shape=mxgraph.electrical.electro-mechanical.temperatureActuatedSwitch;aspect=fixed;elSwitchState=off;labelPosition=center;verticalLabelPosition=bottom;align=center;verticalAlign=top;" parent="1" vertex="1">
          <mxGeometry x="-950" y="259" width="75" height="31" as="geometry" />
        </mxCell>
        <mxCell id="9fai15Jy2hckLmUoozY7-347" style="edgeStyle=orthogonalEdgeStyle;rounded=0;orthogonalLoop=1;jettySize=auto;html=1;exitX=1;exitY=0.8;exitDx=0;exitDy=0;entryX=0;entryY=0.1;entryDx=0;entryDy=0;strokeColor=#3333FF;strokeWidth=2;endArrow=none;endFill=0;" parent="1" source="9fai15Jy2hckLmUoozY7-348" target="9fai15Jy2hckLmUoozY7-346" edge="1">
          <mxGeometry relative="1" as="geometry" />
        </mxCell>
        <mxCell id="9fai15Jy2hckLmUoozY7-348" value="Light push button" style="html=1;shape=mxgraph.electrical.electro-mechanical.pushbutton;aspect=fixed;elSwitchState=off;labelPosition=center;verticalLabelPosition=bottom;align=center;verticalAlign=top;" parent="1" vertex="1">
          <mxGeometry x="-1080" y="245" width="75" height="20" as="geometry" />
        </mxCell>
        <mxCell id="9fai15Jy2hckLmUoozY7-349" value="Red/whight &#xa;diode brigde" style="group;labelBackgroundColor=default;labelPosition=center;verticalLabelPosition=bottom;align=center;verticalAlign=top;" parent="1" vertex="1" connectable="0">
          <mxGeometry x="-800.0008152801713" y="244" width="44.04163056034258" height="50" as="geometry" />
        </mxCell>
        <mxCell id="9fai15Jy2hckLmUoozY7-350" value="" style="rounded=0;whiteSpace=wrap;html=1;fillColor=none;" parent="9fai15Jy2hckLmUoozY7-349" vertex="1">
          <mxGeometry x="2.0208152801712913" width="40" height="50" as="geometry" />
        </mxCell>
        <mxCell id="9fai15Jy2hckLmUoozY7-351" value="" style="pointerEvents=1;fillColor=strokeColor;verticalLabelPosition=bottom;shadow=0;dashed=0;align=center;html=1;verticalAlign=top;shape=mxgraph.electrical.diodes.diode;rotation=45;" parent="9fai15Jy2hckLmUoozY7-349" vertex="1">
          <mxGeometry x="2.0208152801712913" y="30" width="20" height="14" as="geometry" />
        </mxCell>
        <mxCell id="9fai15Jy2hckLmUoozY7-352" value="" style="pointerEvents=1;fillColor=strokeColor;verticalLabelPosition=bottom;shadow=0;dashed=0;align=center;html=1;verticalAlign=top;shape=mxgraph.electrical.diodes.diode;rotation=-45;" parent="9fai15Jy2hckLmUoozY7-349" vertex="1">
          <mxGeometry x="2.0208152801712913" y="11" width="20" height="14" as="geometry" />
        </mxCell>
        <mxCell id="9fai15Jy2hckLmUoozY7-353" value="" style="pointerEvents=1;fillColor=strokeColor;verticalLabelPosition=bottom;shadow=0;dashed=0;align=center;html=1;verticalAlign=top;shape=mxgraph.electrical.diodes.diode;rotation=-45;" parent="9fai15Jy2hckLmUoozY7-349" vertex="1">
          <mxGeometry x="22.02081528017129" y="30" width="20" height="14" as="geometry" />
        </mxCell>
        <mxCell id="9fai15Jy2hckLmUoozY7-354" value="" style="pointerEvents=1;fillColor=strokeColor;verticalLabelPosition=bottom;shadow=0;dashed=0;align=center;html=1;verticalAlign=top;shape=mxgraph.electrical.diodes.diode;rotation=45;" parent="9fai15Jy2hckLmUoozY7-349" vertex="1">
          <mxGeometry x="22.02081528017129" y="11" width="20" height="14" as="geometry" />
        </mxCell>
        <mxCell id="9fai15Jy2hckLmUoozY7-355" style="edgeStyle=orthogonalEdgeStyle;rounded=0;orthogonalLoop=1;jettySize=auto;html=1;exitX=1;exitY=0.5;exitDx=0;exitDy=0;exitPerimeter=0;entryX=0;entryY=0.5;entryDx=0;entryDy=0;entryPerimeter=0;endArrow=none;endFill=0;" parent="9fai15Jy2hckLmUoozY7-349" source="9fai15Jy2hckLmUoozY7-352" target="9fai15Jy2hckLmUoozY7-354" edge="1">
          <mxGeometry relative="1" as="geometry" />
        </mxCell>
        <mxCell id="9fai15Jy2hckLmUoozY7-356" style="edgeStyle=orthogonalEdgeStyle;rounded=0;orthogonalLoop=1;jettySize=auto;html=1;exitX=1;exitY=0.5;exitDx=0;exitDy=0;exitPerimeter=0;entryX=0;entryY=0.5;entryDx=0;entryDy=0;entryPerimeter=0;endArrow=none;endFill=0;" parent="9fai15Jy2hckLmUoozY7-349" source="9fai15Jy2hckLmUoozY7-351" target="9fai15Jy2hckLmUoozY7-353" edge="1">
          <mxGeometry relative="1" as="geometry" />
        </mxCell>
        <mxCell id="9fai15Jy2hckLmUoozY7-357" style="edgeStyle=orthogonalEdgeStyle;rounded=0;orthogonalLoop=1;jettySize=auto;html=1;exitX=0;exitY=0.5;exitDx=0;exitDy=0;exitPerimeter=0;entryX=0;entryY=0.5;entryDx=0;entryDy=0;entryPerimeter=0;endArrow=none;endFill=0;" parent="9fai15Jy2hckLmUoozY7-349" source="9fai15Jy2hckLmUoozY7-352" target="9fai15Jy2hckLmUoozY7-351" edge="1">
          <mxGeometry relative="1" as="geometry" />
        </mxCell>
        <mxCell id="9fai15Jy2hckLmUoozY7-358" style="edgeStyle=orthogonalEdgeStyle;rounded=0;orthogonalLoop=1;jettySize=auto;html=1;entryX=1;entryY=0.1;entryDx=0;entryDy=0;strokeColor=#3333FF;strokeWidth=2;align=center;verticalAlign=middle;fontFamily=Helvetica;fontSize=11;fontColor=default;labelBackgroundColor=default;endArrow=none;endFill=0;" parent="1" source="9fai15Jy2hckLmUoozY7-352" target="9fai15Jy2hckLmUoozY7-346" edge="1">
          <mxGeometry relative="1" as="geometry" />
        </mxCell>
        <mxCell id="9fai15Jy2hckLmUoozY7-359" value="Red+&amp;nbsp;" style="edgeStyle=orthogonalEdgeStyle;rounded=0;orthogonalLoop=1;jettySize=auto;html=1;strokeColor=#3333FF;strokeWidth=2;align=center;verticalAlign=middle;fontFamily=Helvetica;fontSize=11;fontColor=default;labelBackgroundColor=default;endArrow=none;endFill=0;entryX=0.288;entryY=0.257;entryDx=0;entryDy=0;entryPerimeter=0;" parent="1" source="9fai15Jy2hckLmUoozY7-354" target="9fai15Jy2hckLmUoozY7-309" edge="1">
          <mxGeometry relative="1" as="geometry">
            <mxPoint x="-670" y="250" as="targetPoint" />
            <Array as="points">
              <mxPoint x="-728" y="262" />
              <mxPoint x="-728" y="242" />
            </Array>
          </mxGeometry>
        </mxCell>
        <mxCell id="9fai15Jy2hckLmUoozY7-360" value="White+&amp;nbsp;" style="edgeStyle=orthogonalEdgeStyle;rounded=0;orthogonalLoop=1;jettySize=auto;html=1;entryX=0.281;entryY=0.768;entryDx=0;entryDy=0;entryPerimeter=0;strokeColor=#3333FF;strokeWidth=2;align=center;verticalAlign=middle;fontFamily=Helvetica;fontSize=11;fontColor=default;labelBackgroundColor=default;endArrow=none;endFill=0;" parent="1" source="9fai15Jy2hckLmUoozY7-354" target="9fai15Jy2hckLmUoozY7-309" edge="1">
          <mxGeometry relative="1" as="geometry">
            <mxPoint x="-669" y="275" as="targetPoint" />
          </mxGeometry>
        </mxCell>
        <mxCell id="9fai15Jy2hckLmUoozY7-367" value="Stepping switch" style="html=1;shape=mxgraph.electrical.electro-mechanical.temperatureActuatedSwitch;aspect=fixed;elSwitchState=off;labelPosition=center;verticalLabelPosition=bottom;align=center;verticalAlign=top;" parent="1" vertex="1">
          <mxGeometry x="-950" y="373" width="75" height="31" as="geometry" />
        </mxCell>
        <mxCell id="9fai15Jy2hckLmUoozY7-368" style="edgeStyle=orthogonalEdgeStyle;rounded=0;orthogonalLoop=1;jettySize=auto;html=1;exitX=1;exitY=0.8;exitDx=0;exitDy=0;entryX=0;entryY=0.1;entryDx=0;entryDy=0;strokeColor=#3333FF;strokeWidth=2;endArrow=none;endFill=0;" parent="1" source="9fai15Jy2hckLmUoozY7-369" target="9fai15Jy2hckLmUoozY7-367" edge="1">
          <mxGeometry relative="1" as="geometry" />
        </mxCell>
        <mxCell id="9fai15Jy2hckLmUoozY7-399" style="edgeStyle=orthogonalEdgeStyle;rounded=0;orthogonalLoop=1;jettySize=auto;html=1;strokeColor=#3333FF;strokeWidth=2;align=center;verticalAlign=middle;fontFamily=Helvetica;fontSize=11;fontColor=default;labelBackgroundColor=default;endArrow=none;endFill=0;" parent="1" source="9fai15Jy2hckLmUoozY7-369" edge="1">
          <mxGeometry relative="1" as="geometry">
            <mxPoint x="-1130" y="460" as="targetPoint" />
          </mxGeometry>
        </mxCell>
        <mxCell id="9fai15Jy2hckLmUoozY7-369" value="Light push button" style="html=1;shape=mxgraph.electrical.electro-mechanical.pushbutton;aspect=fixed;elSwitchState=off;labelPosition=center;verticalLabelPosition=bottom;align=center;verticalAlign=top;" parent="1" vertex="1">
          <mxGeometry x="-1080" y="359" width="75" height="20" as="geometry" />
        </mxCell>
        <mxCell id="9fai15Jy2hckLmUoozY7-370" value="Stepping switch" style="html=1;shape=mxgraph.electrical.electro-mechanical.temperatureActuatedSwitch;aspect=fixed;elSwitchState=off;labelPosition=center;verticalLabelPosition=bottom;align=center;verticalAlign=top;" parent="1" vertex="1">
          <mxGeometry x="-950" y="463" width="75" height="31" as="geometry" />
        </mxCell>
        <mxCell id="9fai15Jy2hckLmUoozY7-371" style="edgeStyle=orthogonalEdgeStyle;rounded=0;orthogonalLoop=1;jettySize=auto;html=1;exitX=1;exitY=0.8;exitDx=0;exitDy=0;entryX=0;entryY=0.1;entryDx=0;entryDy=0;strokeColor=#3333FF;strokeWidth=2;endArrow=none;endFill=0;" parent="1" source="9fai15Jy2hckLmUoozY7-372" target="9fai15Jy2hckLmUoozY7-370" edge="1">
          <mxGeometry relative="1" as="geometry" />
        </mxCell>
        <mxCell id="9fai15Jy2hckLmUoozY7-398" style="edgeStyle=orthogonalEdgeStyle;rounded=0;orthogonalLoop=1;jettySize=auto;html=1;strokeColor=#3333FF;strokeWidth=2;align=center;verticalAlign=middle;fontFamily=Helvetica;fontSize=11;fontColor=default;labelBackgroundColor=default;endArrow=none;endFill=0;" parent="1" source="9fai15Jy2hckLmUoozY7-372" edge="1">
          <mxGeometry relative="1" as="geometry">
            <mxPoint x="-1130" y="570" as="targetPoint" />
          </mxGeometry>
        </mxCell>
        <mxCell id="9fai15Jy2hckLmUoozY7-372" value="Light push button" style="html=1;shape=mxgraph.electrical.electro-mechanical.pushbutton;aspect=fixed;elSwitchState=off;labelPosition=center;verticalLabelPosition=bottom;align=center;verticalAlign=top;" parent="1" vertex="1">
          <mxGeometry x="-1080" y="449" width="75" height="20" as="geometry" />
        </mxCell>
        <mxCell id="9fai15Jy2hckLmUoozY7-376" value="Stepping switch" style="html=1;shape=mxgraph.electrical.electro-mechanical.temperatureActuatedSwitch;aspect=fixed;elSwitchState=off;labelPosition=center;verticalLabelPosition=bottom;align=center;verticalAlign=top;" parent="1" vertex="1">
          <mxGeometry x="-950" y="567" width="75" height="31" as="geometry" />
        </mxCell>
        <mxCell id="9fai15Jy2hckLmUoozY7-377" style="edgeStyle=orthogonalEdgeStyle;rounded=0;orthogonalLoop=1;jettySize=auto;html=1;exitX=1;exitY=0.8;exitDx=0;exitDy=0;entryX=0;entryY=0.1;entryDx=0;entryDy=0;strokeColor=#3333FF;strokeWidth=2;endArrow=none;endFill=0;" parent="1" source="9fai15Jy2hckLmUoozY7-378" target="9fai15Jy2hckLmUoozY7-376" edge="1">
          <mxGeometry relative="1" as="geometry" />
        </mxCell>
        <mxCell id="9fai15Jy2hckLmUoozY7-397" style="edgeStyle=orthogonalEdgeStyle;rounded=0;orthogonalLoop=1;jettySize=auto;html=1;strokeColor=#3333FF;strokeWidth=2;align=center;verticalAlign=middle;fontFamily=Helvetica;fontSize=11;fontColor=default;labelBackgroundColor=default;endArrow=none;endFill=0;" parent="1" source="9fai15Jy2hckLmUoozY7-378" edge="1">
          <mxGeometry relative="1" as="geometry">
            <mxPoint x="-1130" y="660" as="targetPoint" />
          </mxGeometry>
        </mxCell>
        <mxCell id="9fai15Jy2hckLmUoozY7-378" value="Light push button" style="html=1;shape=mxgraph.electrical.electro-mechanical.pushbutton;aspect=fixed;elSwitchState=off;labelPosition=center;verticalLabelPosition=bottom;align=center;verticalAlign=top;" parent="1" vertex="1">
          <mxGeometry x="-1080" y="553" width="75" height="20" as="geometry" />
        </mxCell>
        <mxCell id="9fai15Jy2hckLmUoozY7-382" value="Stepping switch" style="html=1;shape=mxgraph.electrical.electro-mechanical.temperatureActuatedSwitch;aspect=fixed;elSwitchState=off;labelPosition=center;verticalLabelPosition=bottom;align=center;verticalAlign=top;" parent="1" vertex="1">
          <mxGeometry x="-950" y="661" width="75" height="31" as="geometry" />
        </mxCell>
        <mxCell id="9fai15Jy2hckLmUoozY7-383" style="edgeStyle=orthogonalEdgeStyle;rounded=0;orthogonalLoop=1;jettySize=auto;html=1;exitX=1;exitY=0.8;exitDx=0;exitDy=0;entryX=0;entryY=0.1;entryDx=0;entryDy=0;strokeColor=#3333FF;strokeWidth=2;endArrow=none;endFill=0;" parent="1" source="9fai15Jy2hckLmUoozY7-384" target="9fai15Jy2hckLmUoozY7-382" edge="1">
          <mxGeometry relative="1" as="geometry" />
        </mxCell>
        <mxCell id="9fai15Jy2hckLmUoozY7-396" style="edgeStyle=orthogonalEdgeStyle;rounded=0;orthogonalLoop=1;jettySize=auto;html=1;strokeColor=#3333FF;strokeWidth=2;align=center;verticalAlign=middle;fontFamily=Helvetica;fontSize=11;fontColor=default;labelBackgroundColor=default;endArrow=none;endFill=0;" parent="1" source="9fai15Jy2hckLmUoozY7-384" edge="1">
          <mxGeometry relative="1" as="geometry">
            <mxPoint x="-1130" y="759.9999999999998" as="targetPoint" />
          </mxGeometry>
        </mxCell>
        <mxCell id="9fai15Jy2hckLmUoozY7-384" value="Light push button" style="html=1;shape=mxgraph.electrical.electro-mechanical.pushbutton;aspect=fixed;elSwitchState=off;labelPosition=center;verticalLabelPosition=bottom;align=center;verticalAlign=top;" parent="1" vertex="1">
          <mxGeometry x="-1080" y="647" width="75" height="20" as="geometry" />
        </mxCell>
        <mxCell id="9fai15Jy2hckLmUoozY7-385" value="Stepping switch" style="html=1;shape=mxgraph.electrical.electro-mechanical.temperatureActuatedSwitch;aspect=fixed;elSwitchState=off;labelPosition=center;verticalLabelPosition=bottom;align=center;verticalAlign=top;" parent="1" vertex="1">
          <mxGeometry x="-950" y="763" width="75" height="31" as="geometry" />
        </mxCell>
        <mxCell id="9fai15Jy2hckLmUoozY7-386" style="edgeStyle=orthogonalEdgeStyle;rounded=0;orthogonalLoop=1;jettySize=auto;html=1;exitX=1;exitY=0.8;exitDx=0;exitDy=0;entryX=0;entryY=0.1;entryDx=0;entryDy=0;strokeColor=#3333FF;strokeWidth=2;endArrow=none;endFill=0;" parent="1" source="9fai15Jy2hckLmUoozY7-387" target="9fai15Jy2hckLmUoozY7-385" edge="1">
          <mxGeometry relative="1" as="geometry" />
        </mxCell>
        <mxCell id="9fai15Jy2hckLmUoozY7-395" style="edgeStyle=orthogonalEdgeStyle;rounded=0;orthogonalLoop=1;jettySize=auto;html=1;strokeColor=#3333FF;strokeWidth=2;align=center;verticalAlign=middle;fontFamily=Helvetica;fontSize=11;fontColor=default;labelBackgroundColor=default;endArrow=none;endFill=0;" parent="1" source="9fai15Jy2hckLmUoozY7-387" edge="1">
          <mxGeometry relative="1" as="geometry">
            <mxPoint x="-1080" y="840" as="targetPoint" />
            <Array as="points">
              <mxPoint x="-1130" y="759" />
              <mxPoint x="-1130" y="840" />
            </Array>
          </mxGeometry>
        </mxCell>
        <mxCell id="9fai15Jy2hckLmUoozY7-387" value="Light push button" style="html=1;shape=mxgraph.electrical.electro-mechanical.pushbutton;aspect=fixed;elSwitchState=off;labelPosition=center;verticalLabelPosition=bottom;align=center;verticalAlign=top;" parent="1" vertex="1">
          <mxGeometry x="-1080" y="749" width="75" height="20" as="geometry" />
        </mxCell>
        <mxCell id="9fai15Jy2hckLmUoozY7-394" value="&lt;font style=&quot;font-size: 13px;&quot;&gt;~12V&lt;/font&gt;" style="edgeStyle=orthogonalEdgeStyle;rounded=0;orthogonalLoop=1;jettySize=auto;html=1;strokeColor=#0000FF;strokeWidth=3;align=center;verticalAlign=middle;fontFamily=Helvetica;fontSize=11;fontColor=default;labelBackgroundColor=default;endArrow=none;endFill=0;" parent="1" edge="1">
          <mxGeometry x="-0.3334" relative="1" as="geometry">
            <mxPoint x="-1020" y="860" as="targetPoint" />
            <mxPoint x="-1080" y="840" as="sourcePoint" />
            <mxPoint as="offset" />
          </mxGeometry>
        </mxCell>
        <mxCell id="9fai15Jy2hckLmUoozY7-400" value="Auto Pilot in Aft Compartment" style="whiteSpace=wrap;html=1;aspect=fixed;fillColor=none;strokeWidth=2;dashed=1;labelPosition=center;verticalLabelPosition=top;align=left;verticalAlign=bottom;fontSize=22;" parent="1" vertex="1">
          <mxGeometry x="-480" y="1140" width="490" height="490" as="geometry" />
        </mxCell>
        <mxCell id="9fai15Jy2hckLmUoozY7-408" style="edgeStyle=orthogonalEdgeStyle;rounded=0;orthogonalLoop=1;jettySize=auto;html=1;strokeColor=default;strokeWidth=3;align=center;verticalAlign=middle;fontFamily=Helvetica;fontSize=11;fontColor=default;labelBackgroundColor=default;endArrow=none;endFill=0;" parent="1" source="9fai15Jy2hckLmUoozY7-402" target="9fai15Jy2hckLmUoozY7-401" edge="1">
          <mxGeometry relative="1" as="geometry" />
        </mxCell>
        <mxCell id="9fai15Jy2hckLmUoozY7-402" value="Arduino Nano" style="sketch=0;outlineConnect=0;fontColor=#232F3E;gradientColor=none;fillColor=#7AA116;strokeColor=none;dashed=0;verticalLabelPosition=bottom;verticalAlign=top;align=center;html=1;fontSize=12;fontStyle=0;aspect=fixed;pointerEvents=1;shape=mxgraph.aws4.iot_thing_plc;" parent="1" vertex="1">
          <mxGeometry x="-220" y="1462" width="78" height="78" as="geometry" />
        </mxCell>
        <mxCell id="9fai15Jy2hckLmUoozY7-409" style="edgeStyle=orthogonalEdgeStyle;rounded=0;orthogonalLoop=1;jettySize=auto;html=1;strokeColor=default;strokeWidth=3;align=center;verticalAlign=middle;fontFamily=Helvetica;fontSize=11;fontColor=default;labelBackgroundColor=default;endArrow=none;endFill=0;" parent="1" source="9fai15Jy2hckLmUoozY7-403" target="9fai15Jy2hckLmUoozY7-402" edge="1">
          <mxGeometry relative="1" as="geometry">
            <Array as="points">
              <mxPoint x="-280" y="1188" />
              <mxPoint x="-280" y="1480" />
            </Array>
          </mxGeometry>
        </mxCell>
        <mxCell id="9fai15Jy2hckLmUoozY7-403" value="Rudder angle sensor&lt;br&gt;Resistive" style="pointerEvents=1;verticalLabelPosition=bottom;shadow=0;dashed=0;align=center;html=1;verticalAlign=top;shape=mxgraph.electrical.plc_ladder.not_output_2;" parent="1" vertex="1">
          <mxGeometry x="-430" y="1175" width="50" height="25" as="geometry" />
        </mxCell>
        <mxCell id="9fai15Jy2hckLmUoozY7-406" style="edgeStyle=orthogonalEdgeStyle;rounded=0;orthogonalLoop=1;jettySize=auto;html=1;entryX=0.387;entryY=1;entryDx=0;entryDy=0;entryPerimeter=0;strokeColor=default;strokeWidth=3;align=center;verticalAlign=middle;fontFamily=Helvetica;fontSize=11;fontColor=default;labelBackgroundColor=default;endArrow=none;endFill=0;" parent="1" source="9fai15Jy2hckLmUoozY7-405" target="9fai15Jy2hckLmUoozY7-404" edge="1">
          <mxGeometry relative="1" as="geometry" />
        </mxCell>
        <mxCell id="9fai15Jy2hckLmUoozY7-407" style="edgeStyle=orthogonalEdgeStyle;rounded=0;orthogonalLoop=1;jettySize=auto;html=1;strokeColor=default;strokeWidth=3;align=center;verticalAlign=middle;fontFamily=Helvetica;fontSize=11;fontColor=default;labelBackgroundColor=default;endArrow=none;endFill=0;" parent="1" source="9fai15Jy2hckLmUoozY7-405" target="9fai15Jy2hckLmUoozY7-402" edge="1">
          <mxGeometry relative="1" as="geometry" />
        </mxCell>
        <mxCell id="9fai15Jy2hckLmUoozY7-405" value="H-Brigde motor driver" style="verticalLabelPosition=bottom;shadow=0;dashed=0;align=center;html=1;verticalAlign=top;shape=mxgraph.electrical.mosfets1.mosfet_ic_n;" parent="1" vertex="1">
          <mxGeometry x="-452" y="1451" width="95" height="100" as="geometry" />
        </mxCell>
        <mxCell id="9fai15Jy2hckLmUoozY7-404" value="HyPro ML+40 Ram&lt;br&gt;Electro hydralic liniar actuator" style="verticalLabelPosition=bottom;aspect=fixed;html=1;verticalAlign=top;fillColor=strokeColor;align=center;outlineConnect=0;shape=mxgraph.fluid_power.x11410;points=[[0.387,0,0],[0.387,1,0]];labelBackgroundColor=default;" parent="1" vertex="1">
          <mxGeometry x="-445" y="1280" width="105.9" height="92.9" as="geometry" />
        </mxCell>
        <mxCell id="9fai15Jy2hckLmUoozY7-413" style="edgeStyle=orthogonalEdgeStyle;rounded=0;orthogonalLoop=1;jettySize=auto;html=1;strokeColor=#6c8ebf;strokeWidth=2;align=center;verticalAlign=middle;fontFamily=Helvetica;fontSize=11;fontColor=default;labelBackgroundColor=default;endArrow=none;endFill=0;fillColor=#dae8fc;" parent="1" source="9fai15Jy2hckLmUoozY7-401" target="9fai15Jy2hckLmUoozY7-410" edge="1">
          <mxGeometry relative="1" as="geometry">
            <Array as="points">
              <mxPoint x="-85" y="1340" />
            </Array>
          </mxGeometry>
        </mxCell>
        <mxCell id="9fai15Jy2hckLmUoozY7-401" value="&lt;font color=&quot;#000000&quot;&gt;Raspberry Pi 3b 4Gb ram&lt;br&gt;With RO SD-card&lt;/font&gt;" style="fontColor=#0066CC;verticalAlign=top;verticalLabelPosition=bottom;labelPosition=center;align=center;html=1;outlineConnect=0;fillColor=#CCCCCC;strokeColor=#6881B3;gradientColor=none;gradientDirection=north;strokeWidth=2;shape=mxgraph.networks.desktop_pc;labelBackgroundColor=default;" parent="1" vertex="1">
          <mxGeometry x="-196" y="1296.45" width="30" height="60" as="geometry" />
        </mxCell>
        <mxCell id="9fai15Jy2hckLmUoozY7-410" value="PyPilot" style="image;html=1;image=img/lib/clip_art/computers/Software_128x128.png;align=left;" parent="1" vertex="1">
          <mxGeometry x="-110" y="1390" width="50" height="40" as="geometry" />
        </mxCell>
        <mxCell id="9fai15Jy2hckLmUoozY7-412" style="edgeStyle=orthogonalEdgeStyle;rounded=0;orthogonalLoop=1;jettySize=auto;html=1;entryX=0;entryY=0.5;entryDx=0;entryDy=0;entryPerimeter=0;strokeColor=default;strokeWidth=3;align=center;verticalAlign=middle;fontFamily=Helvetica;fontSize=11;fontColor=default;labelBackgroundColor=default;endArrow=none;endFill=0;" parent="1" source="9fai15Jy2hckLmUoozY7-411" target="9fai15Jy2hckLmUoozY7-401" edge="1">
          <mxGeometry relative="1" as="geometry" />
        </mxCell>
        <mxCell id="9fai15Jy2hckLmUoozY7-416" style="edgeStyle=orthogonalEdgeStyle;rounded=0;orthogonalLoop=1;jettySize=auto;html=1;strokeColor=#0000FF;strokeWidth=3;align=center;verticalAlign=middle;fontFamily=Helvetica;fontSize=11;fontColor=default;labelBackgroundColor=default;endArrow=none;endFill=0;" parent="1" source="9fai15Jy2hckLmUoozY7-415" target="9fai15Jy2hckLmUoozY7-401" edge="1">
          <mxGeometry relative="1" as="geometry">
            <Array as="points">
              <mxPoint x="-170" y="1209" />
            </Array>
          </mxGeometry>
        </mxCell>
        <mxCell id="9fai15Jy2hckLmUoozY7-415" value="Mean Well 5V 6A" style="html=1;verticalLabelPosition=bottom;verticalAlign=top;outlineConnect=0;shadow=0;dashed=0;shape=mxgraph.rack.hpe_aruba.switches.j9829a_5400r_1100w_poeplus_zl2_power_supply;labelBackgroundColor=default;" parent="1" vertex="1">
          <mxGeometry x="-123" y="1187" width="63" height="43" as="geometry" />
        </mxCell>
        <mxCell id="9fai15Jy2hckLmUoozY7-417" value="&lt;font style=&quot;font-size: 13px;&quot;&gt;~12V&lt;/font&gt;" style="edgeStyle=orthogonalEdgeStyle;rounded=0;orthogonalLoop=1;jettySize=auto;html=1;strokeColor=#0000FF;strokeWidth=3;align=center;verticalAlign=middle;fontFamily=Helvetica;fontSize=11;fontColor=default;labelBackgroundColor=default;endArrow=none;endFill=0;" parent="1" edge="1">
          <mxGeometry x="-0.3334" relative="1" as="geometry">
            <mxPoint x="-1" y="1216" as="targetPoint" />
            <mxPoint x="-61" y="1196" as="sourcePoint" />
            <mxPoint as="offset" />
          </mxGeometry>
        </mxCell>
        <mxCell id="9fai15Jy2hckLmUoozY7-411" value="IMU&lt;br&gt;MPU9250" style="sketch=0;outlineConnect=0;fontColor=#232F3E;gradientColor=none;fillColor=#ED7100;strokeColor=none;dashed=0;verticalLabelPosition=bottom;verticalAlign=top;align=center;html=1;fontSize=12;fontStyle=0;aspect=fixed;pointerEvents=1;shape=mxgraph.aws4.i3en;labelBackgroundColor=default;" parent="1" vertex="1">
          <mxGeometry x="-244" y="1182" width="48" height="48" as="geometry" />
        </mxCell>
        <mxCell id="9fai15Jy2hckLmUoozY7-418" value="&lt;font style=&quot;font-size: 13px;&quot;&gt;~12V&lt;/font&gt;" style="edgeStyle=orthogonalEdgeStyle;rounded=0;orthogonalLoop=1;jettySize=auto;html=1;strokeColor=#0000FF;strokeWidth=3;align=center;verticalAlign=middle;fontFamily=Helvetica;fontSize=11;fontColor=default;labelBackgroundColor=default;endArrow=none;endFill=0;" parent="1" edge="1">
          <mxGeometry x="-0.3334" relative="1" as="geometry">
            <mxPoint x="-297" y="1542" as="targetPoint" />
            <mxPoint x="-357" y="1522" as="sourcePoint" />
            <mxPoint as="offset" />
          </mxGeometry>
        </mxCell>
        <mxCell id="9fai15Jy2hckLmUoozY7-432" style="edgeStyle=orthogonalEdgeStyle;rounded=0;orthogonalLoop=1;jettySize=auto;html=1;exitX=0;exitY=0.57;exitDx=0;exitDy=0;exitPerimeter=0;strokeColor=#3333FF;strokeWidth=2;align=center;verticalAlign=middle;fontFamily=Helvetica;fontSize=11;fontColor=default;labelBackgroundColor=default;endArrow=none;endFill=0;" parent="1" source="9fai15Jy2hckLmUoozY7-419" edge="1">
          <mxGeometry relative="1" as="geometry">
            <mxPoint x="-520" y="900" as="targetPoint" />
          </mxGeometry>
        </mxCell>
        <mxCell id="9fai15Jy2hckLmUoozY7-419" value="Aft Navigation light" style="verticalLabelPosition=bottom;shadow=0;dashed=0;align=center;html=1;verticalAlign=top;shape=mxgraph.electrical.opto_electronics.led_2;pointerEvents=1;" parent="1" vertex="1">
          <mxGeometry x="-439.1" y="775" width="100" height="70" as="geometry" />
        </mxCell>
        <mxCell id="9fai15Jy2hckLmUoozY7-420" value="Red/Green Navigation Light" style="verticalLabelPosition=bottom;shadow=0;dashed=0;align=center;html=1;verticalAlign=top;shape=mxgraph.electrical.opto_electronics.led_2;pointerEvents=1;" parent="1" vertex="1">
          <mxGeometry x="-442.05" y="860" width="100" height="70" as="geometry" />
        </mxCell>
        <mxCell id="9fai15Jy2hckLmUoozY7-421" value="Windex Light" style="verticalLabelPosition=bottom;shadow=0;dashed=0;align=center;html=1;verticalAlign=top;shape=mxgraph.electrical.opto_electronics.led_2;pointerEvents=1;" parent="1" vertex="1">
          <mxGeometry x="-445" y="970" width="100" height="70" as="geometry" />
        </mxCell>
        <mxCell id="9fai15Jy2hckLmUoozY7-430" style="edgeStyle=orthogonalEdgeStyle;rounded=0;orthogonalLoop=1;jettySize=auto;html=1;exitX=0;exitY=0.57;exitDx=0;exitDy=0;exitPerimeter=0;entryX=1;entryY=0.8;entryDx=0;entryDy=0;strokeColor=#3333FF;strokeWidth=2;align=center;verticalAlign=middle;fontFamily=Helvetica;fontSize=11;fontColor=default;labelBackgroundColor=default;endArrow=none;endFill=0;" parent="1" source="9fai15Jy2hckLmUoozY7-423" target="9fai15Jy2hckLmUoozY7-425" edge="1">
          <mxGeometry relative="1" as="geometry">
            <Array as="points">
              <mxPoint x="-760" y="1038" />
              <mxPoint x="-760" y="986" />
            </Array>
          </mxGeometry>
        </mxCell>
        <mxCell id="9fai15Jy2hckLmUoozY7-423" value="Red LED strip in Frigde" style="verticalLabelPosition=bottom;shadow=0;dashed=0;align=center;html=1;verticalAlign=top;shape=mxgraph.electrical.opto_electronics.led_2;pointerEvents=1;" parent="1" vertex="1">
          <mxGeometry x="-684" y="998" width="100" height="70" as="geometry" />
        </mxCell>
        <mxCell id="9fai15Jy2hckLmUoozY7-427" style="edgeStyle=orthogonalEdgeStyle;rounded=0;orthogonalLoop=1;jettySize=auto;html=1;strokeColor=#3333FF;strokeWidth=2;align=center;verticalAlign=middle;fontFamily=Helvetica;fontSize=11;fontColor=default;labelBackgroundColor=default;endArrow=none;endFill=0;" parent="1" source="9fai15Jy2hckLmUoozY7-424" edge="1">
          <mxGeometry relative="1" as="geometry">
            <mxPoint x="-1130" y="840" as="targetPoint" />
          </mxGeometry>
        </mxCell>
        <mxCell id="9fai15Jy2hckLmUoozY7-424" value="Nivigation light Switch" style="html=1;shape=mxgraph.electrical.electro-mechanical.pushbutton;aspect=fixed;elSwitchState=off;labelPosition=center;verticalLabelPosition=bottom;align=center;verticalAlign=top;" parent="1" vertex="1">
          <mxGeometry x="-1080" y="900" width="75" height="20" as="geometry" />
        </mxCell>
        <mxCell id="9fai15Jy2hckLmUoozY7-428" style="edgeStyle=orthogonalEdgeStyle;rounded=0;orthogonalLoop=1;jettySize=auto;html=1;strokeColor=#3333FF;strokeWidth=2;align=center;verticalAlign=middle;fontFamily=Helvetica;fontSize=11;fontColor=default;labelBackgroundColor=default;endArrow=none;endFill=0;" parent="1" source="9fai15Jy2hckLmUoozY7-425" edge="1">
          <mxGeometry relative="1" as="geometry">
            <mxPoint x="-1130" y="910" as="targetPoint" />
          </mxGeometry>
        </mxCell>
        <mxCell id="9fai15Jy2hckLmUoozY7-425" value="Top Light Switch" style="html=1;shape=mxgraph.electrical.electro-mechanical.pushbutton;aspect=fixed;elSwitchState=off;labelPosition=center;verticalLabelPosition=bottom;align=center;verticalAlign=top;" parent="1" vertex="1">
          <mxGeometry x="-1080" y="970" width="75" height="20" as="geometry" />
        </mxCell>
        <mxCell id="9fai15Jy2hckLmUoozY7-429" style="edgeStyle=orthogonalEdgeStyle;rounded=0;orthogonalLoop=1;jettySize=auto;html=1;entryX=0;entryY=0.57;entryDx=0;entryDy=0;entryPerimeter=0;strokeColor=#3333FF;strokeWidth=2;align=center;verticalAlign=middle;fontFamily=Helvetica;fontSize=11;fontColor=default;labelBackgroundColor=default;endArrow=none;endFill=0;exitX=1;exitY=0.8;exitDx=0;exitDy=0;" parent="1" source="9fai15Jy2hckLmUoozY7-425" target="9fai15Jy2hckLmUoozY7-421" edge="1">
          <mxGeometry relative="1" as="geometry">
            <Array as="points">
              <mxPoint x="-445" y="986" />
            </Array>
          </mxGeometry>
        </mxCell>
        <mxCell id="9fai15Jy2hckLmUoozY7-431" style="edgeStyle=orthogonalEdgeStyle;rounded=0;orthogonalLoop=1;jettySize=auto;html=1;exitX=1;exitY=0.8;exitDx=0;exitDy=0;entryX=0.055;entryY=0.57;entryDx=0;entryDy=0;entryPerimeter=0;strokeColor=#3333FF;strokeWidth=2;align=center;verticalAlign=middle;fontFamily=Helvetica;fontSize=11;fontColor=default;labelBackgroundColor=default;endArrow=none;endFill=0;" parent="1" source="9fai15Jy2hckLmUoozY7-424" target="9fai15Jy2hckLmUoozY7-420" edge="1">
          <mxGeometry relative="1" as="geometry" />
        </mxCell>
        <mxCell id="9fai15Jy2hckLmUoozY7-433" value="Bilge Pump" style="shape=mxgraph.pid.pumps.sump_pump;html=1;pointerEvents=1;align=center;verticalLabelPosition=bottom;verticalAlign=top;dashed=0;" parent="1" vertex="1">
          <mxGeometry x="-648.64" y="1111" width="60" height="76" as="geometry" />
        </mxCell>
        <mxCell id="9fai15Jy2hckLmUoozY7-437" style="edgeStyle=orthogonalEdgeStyle;rounded=0;orthogonalLoop=1;jettySize=auto;html=1;exitX=0;exitY=0.8;exitDx=0;exitDy=0;strokeColor=#3333FF;strokeWidth=2;align=center;verticalAlign=middle;fontFamily=Helvetica;fontSize=11;fontColor=default;labelBackgroundColor=default;endArrow=none;endFill=0;" parent="1" source="9fai15Jy2hckLmUoozY7-436" edge="1">
          <mxGeometry relative="1" as="geometry">
            <mxPoint x="-1130" y="980" as="targetPoint" />
          </mxGeometry>
        </mxCell>
        <mxCell id="9fai15Jy2hckLmUoozY7-436" value="Bilge Pump Switch" style="html=1;shape=mxgraph.electrical.electro-mechanical.pushbutton;aspect=fixed;elSwitchState=off;labelPosition=center;verticalLabelPosition=bottom;align=center;verticalAlign=top;" parent="1" vertex="1">
          <mxGeometry x="-1080" y="1100" width="75" height="20" as="geometry" />
        </mxCell>
        <mxCell id="9fai15Jy2hckLmUoozY7-438" style="edgeStyle=orthogonalEdgeStyle;rounded=0;orthogonalLoop=1;jettySize=auto;html=1;exitX=1;exitY=0.8;exitDx=0;exitDy=0;entryX=-0.053;entryY=0.06;entryDx=0;entryDy=0;entryPerimeter=0;strokeColor=#3333FF;strokeWidth=2;align=center;verticalAlign=middle;fontFamily=Helvetica;fontSize=11;fontColor=default;labelBackgroundColor=default;endArrow=none;endFill=0;" parent="1" source="9fai15Jy2hckLmUoozY7-436" target="9fai15Jy2hckLmUoozY7-433" edge="1">
          <mxGeometry relative="1" as="geometry" />
        </mxCell>
        <mxCell id="9fai15Jy2hckLmUoozY7-439" value="" style="rounded=0;whiteSpace=wrap;html=1;" parent="1" vertex="1">
          <mxGeometry x="-1140" y="1400.5" width="250" height="249" as="geometry" />
        </mxCell>
        <mxCell id="9fai15Jy2hckLmUoozY7-440" value="&lt;font style=&quot;font-size: 22px;&quot;&gt;Xilje - IMX 40 Electrical block diagram&lt;/font&gt;" style="text;html=1;align=center;verticalAlign=middle;whiteSpace=wrap;rounded=0;" parent="1" vertex="1">
          <mxGeometry x="-1130" y="1420" width="230" height="25" as="geometry" />
        </mxCell>
        <mxCell id="9fai15Jy2hckLmUoozY7-442" value="Frigde compressor&lt;br&gt;and regulator" style="shape=mxgraph.pid.compressors_-_iso.compressor_(piston);html=1;pointerEvents=1;align=center;verticalLabelPosition=bottom;verticalAlign=top;dashed=0;" parent="1" vertex="1">
          <mxGeometry x="-638.1800000000001" y="1230" width="39.09" height="40" as="geometry" />
        </mxCell>
        <mxCell id="9fai15Jy2hckLmUoozY7-445" style="edgeStyle=orthogonalEdgeStyle;rounded=0;orthogonalLoop=1;jettySize=auto;html=1;exitX=0;exitY=0.8;exitDx=0;exitDy=0;strokeColor=#3333FF;strokeWidth=2;align=center;verticalAlign=middle;fontFamily=Helvetica;fontSize=11;fontColor=default;labelBackgroundColor=default;endArrow=none;endFill=0;" parent="1" source="9fai15Jy2hckLmUoozY7-443" edge="1">
          <mxGeometry relative="1" as="geometry">
            <mxPoint x="-1130" y="1100" as="targetPoint" />
          </mxGeometry>
        </mxCell>
        <mxCell id="9fai15Jy2hckLmUoozY7-443" value="Bilge Pump Switch" style="html=1;shape=mxgraph.electrical.electro-mechanical.pushbutton;aspect=fixed;elSwitchState=off;labelPosition=center;verticalLabelPosition=bottom;align=center;verticalAlign=top;" parent="1" vertex="1">
          <mxGeometry x="-1080" y="1231" width="75" height="20" as="geometry" />
        </mxCell>
        <mxCell id="9fai15Jy2hckLmUoozY7-444" style="edgeStyle=orthogonalEdgeStyle;rounded=0;orthogonalLoop=1;jettySize=auto;html=1;exitX=1;exitY=0.8;exitDx=0;exitDy=0;entryX=0;entryY=0.5;entryDx=0;entryDy=0;entryPerimeter=0;strokeColor=#3333FF;strokeWidth=2;align=center;verticalAlign=middle;fontFamily=Helvetica;fontSize=11;fontColor=default;labelBackgroundColor=default;endArrow=none;endFill=0;" parent="1" source="9fai15Jy2hckLmUoozY7-443" target="9fai15Jy2hckLmUoozY7-442" edge="1">
          <mxGeometry relative="1" as="geometry" />
        </mxCell>
        <mxCell id="9fai15Jy2hckLmUoozY7-449" value="" style="group" parent="1" vertex="1" connectable="0">
          <mxGeometry x="-650" y="1300" width="55" height="58.049999999999955" as="geometry" />
        </mxCell>
        <mxCell id="9fai15Jy2hckLmUoozY7-447" value="2 x USB charger &lt;br&gt;Forward Cabin and&lt;br&gt;Aft Carbin Starboard" style="sketch=0;aspect=fixed;pointerEvents=1;shadow=0;dashed=0;html=1;strokeColor=none;labelPosition=center;verticalLabelPosition=bottom;verticalAlign=top;align=center;fillColor=#00188D;shape=mxgraph.mscae.enterprise.usb" parent="9fai15Jy2hckLmUoozY7-449" vertex="1">
          <mxGeometry x="5" y="35.049999999999955" width="50" height="23" as="geometry" />
        </mxCell>
        <mxCell id="9fai15Jy2hckLmUoozY7-451" value="&lt;font style=&quot;font-size: 13px;&quot;&gt;~12V&lt;/font&gt;" style="edgeStyle=orthogonalEdgeStyle;rounded=0;orthogonalLoop=1;jettySize=auto;html=1;strokeColor=#0000FF;strokeWidth=3;align=center;verticalAlign=middle;fontFamily=Helvetica;fontSize=11;fontColor=default;labelBackgroundColor=default;endArrow=none;endFill=0;" parent="9fai15Jy2hckLmUoozY7-449" edge="1">
          <mxGeometry x="-0.3334" relative="1" as="geometry">
            <mxPoint x="-70" y="58.049999999999955" as="targetPoint" />
            <mxPoint y="38.049999999999955" as="sourcePoint" />
            <mxPoint as="offset" />
          </mxGeometry>
        </mxCell>
        <mxCell id="9fai15Jy2hckLmUoozY7-446" value="" style="sketch=0;aspect=fixed;pointerEvents=1;shadow=0;dashed=0;html=1;strokeColor=none;labelPosition=center;verticalLabelPosition=bottom;verticalAlign=top;align=center;fillColor=#00188D;shape=mxgraph.mscae.enterprise.usb" parent="9fai15Jy2hckLmUoozY7-449" vertex="1">
          <mxGeometry y="10" width="50" height="23" as="geometry" />
        </mxCell>
        <mxCell id="9fai15Jy2hckLmUoozY7-454" value="" style="group" parent="1" vertex="1" connectable="0">
          <mxGeometry x="850" y="420" width="120" height="30" as="geometry" />
        </mxCell>
        <mxCell id="9fai15Jy2hckLmUoozY7-452" value="USB charger" style="sketch=0;aspect=fixed;pointerEvents=1;shadow=0;dashed=0;html=1;strokeColor=none;labelPosition=center;verticalLabelPosition=bottom;verticalAlign=top;align=center;fillColor=#00188D;shape=mxgraph.mscae.enterprise.usb" parent="9fai15Jy2hckLmUoozY7-454" vertex="1">
          <mxGeometry x="70" width="50" height="23" as="geometry" />
        </mxCell>
        <mxCell id="9fai15Jy2hckLmUoozY7-453" value="&lt;font style=&quot;font-size: 13px;&quot;&gt;~12V&lt;/font&gt;" style="edgeStyle=orthogonalEdgeStyle;rounded=0;orthogonalLoop=1;jettySize=auto;html=1;strokeColor=#0000FF;strokeWidth=3;align=center;verticalAlign=middle;fontFamily=Helvetica;fontSize=11;fontColor=default;labelBackgroundColor=default;endArrow=none;endFill=0;" parent="9fai15Jy2hckLmUoozY7-454" edge="1">
          <mxGeometry x="-0.3334" relative="1" as="geometry">
            <mxPoint y="30" as="targetPoint" />
            <mxPoint x="70" y="10" as="sourcePoint" />
            <mxPoint as="offset" />
          </mxGeometry>
        </mxCell>
        <mxCell id="9fai15Jy2hckLmUoozY7-467" style="edgeStyle=none;rounded=0;orthogonalLoop=1;jettySize=auto;html=1;exitX=1;exitY=0.5;exitDx=0;exitDy=0;strokeColor=#0000FF;strokeWidth=3;align=center;verticalAlign=middle;fontFamily=Helvetica;fontSize=11;fontColor=default;labelBackgroundColor=default;endArrow=classic;shape=link;" parent="1" source="9fai15Jy2hckLmUoozY7-457" edge="1">
          <mxGeometry relative="1" as="geometry">
            <mxPoint x="-960" y="1484.826086956522" as="targetPoint" />
          </mxGeometry>
        </mxCell>
        <mxCell id="9fai15Jy2hckLmUoozY7-457" value="Unfused 12V" style="text;html=1;align=left;verticalAlign=middle;whiteSpace=wrap;rounded=0;" parent="1" vertex="1">
          <mxGeometry x="-1120" y="1470" width="90" height="30" as="geometry" />
        </mxCell>
        <mxCell id="9fai15Jy2hckLmUoozY7-468" style="edgeStyle=none;rounded=0;orthogonalLoop=1;jettySize=auto;html=1;exitX=1;exitY=0.5;exitDx=0;exitDy=0;strokeColor=#3333FF;strokeWidth=2;align=center;verticalAlign=middle;fontFamily=Helvetica;fontSize=11;fontColor=default;labelBackgroundColor=default;endArrow=none;endFill=0;" parent="1" source="9fai15Jy2hckLmUoozY7-458" edge="1">
          <mxGeometry relative="1" as="geometry">
            <mxPoint x="-960" y="1504.826086956522" as="targetPoint" />
          </mxGeometry>
        </mxCell>
        <mxCell id="9fai15Jy2hckLmUoozY7-458" value="Fused 12V" style="text;html=1;align=left;verticalAlign=middle;whiteSpace=wrap;rounded=0;" parent="1" vertex="1">
          <mxGeometry x="-1120" y="1490" width="90" height="30" as="geometry" />
        </mxCell>
        <mxCell id="9fai15Jy2hckLmUoozY7-469" style="edgeStyle=none;rounded=0;orthogonalLoop=1;jettySize=auto;html=1;exitX=1;exitY=0.5;exitDx=0;exitDy=0;strokeColor=#6c8ebf;strokeWidth=3;align=center;verticalAlign=middle;fontFamily=Helvetica;fontSize=11;fontColor=default;labelBackgroundColor=default;endArrow=none;endFill=0;fillColor=#dae8fc;" parent="1" source="9fai15Jy2hckLmUoozY7-459" edge="1">
          <mxGeometry relative="1" as="geometry">
            <mxPoint x="-960" y="1524.826086956522" as="targetPoint" />
          </mxGeometry>
        </mxCell>
        <mxCell id="9fai15Jy2hckLmUoozY7-459" value="NMEA 0183" style="text;html=1;align=left;verticalAlign=middle;whiteSpace=wrap;rounded=0;" parent="1" vertex="1">
          <mxGeometry x="-1120" y="1510" width="90" height="30" as="geometry" />
        </mxCell>
        <mxCell id="9fai15Jy2hckLmUoozY7-470" style="edgeStyle=none;rounded=0;orthogonalLoop=1;jettySize=auto;html=1;exitX=1;exitY=0.5;exitDx=0;exitDy=0;strokeColor=#FF3333;strokeWidth=4;align=center;verticalAlign=middle;fontFamily=Helvetica;fontSize=11;fontColor=default;labelBackgroundColor=default;endArrow=none;endFill=0;" parent="1" source="9fai15Jy2hckLmUoozY7-460" edge="1">
          <mxGeometry relative="1" as="geometry">
            <mxPoint x="-960" y="1544.826086956522" as="targetPoint" />
          </mxGeometry>
        </mxCell>
        <mxCell id="9fai15Jy2hckLmUoozY7-460" value="B&amp;amp;G FastNet" style="text;html=1;align=left;verticalAlign=middle;whiteSpace=wrap;rounded=0;" parent="1" vertex="1">
          <mxGeometry x="-1120" y="1530" width="90" height="30" as="geometry" />
        </mxCell>
        <mxCell id="9fai15Jy2hckLmUoozY7-471" style="edgeStyle=none;rounded=0;orthogonalLoop=1;jettySize=auto;html=1;exitX=1;exitY=0.5;exitDx=0;exitDy=0;strokeColor=#FFB366;strokeWidth=3;align=center;verticalAlign=middle;fontFamily=Helvetica;fontSize=11;fontColor=default;labelBackgroundColor=default;endArrow=none;endFill=0;" parent="1" source="9fai15Jy2hckLmUoozY7-461" edge="1">
          <mxGeometry relative="1" as="geometry">
            <mxPoint x="-960" y="1565.695652173913" as="targetPoint" />
          </mxGeometry>
        </mxCell>
        <mxCell id="9fai15Jy2hckLmUoozY7-461" value="Ethernet" style="text;html=1;align=left;verticalAlign=middle;whiteSpace=wrap;rounded=0;" parent="1" vertex="1">
          <mxGeometry x="-1120" y="1551" width="90" height="30" as="geometry" />
        </mxCell>
        <mxCell id="9fai15Jy2hckLmUoozY7-472" style="edgeStyle=none;rounded=0;orthogonalLoop=1;jettySize=auto;html=1;exitX=1;exitY=0.5;exitDx=0;exitDy=0;strokeColor=#FF00FF;strokeWidth=3;align=center;verticalAlign=middle;fontFamily=Helvetica;fontSize=11;fontColor=default;labelBackgroundColor=default;endArrow=none;endFill=0;" parent="1" source="9fai15Jy2hckLmUoozY7-462" edge="1">
          <mxGeometry relative="1" as="geometry">
            <mxPoint x="-960" y="1584.826086956522" as="targetPoint" />
          </mxGeometry>
        </mxCell>
        <mxCell id="9fai15Jy2hckLmUoozY7-462" value="VHF RF" style="text;html=1;align=left;verticalAlign=middle;whiteSpace=wrap;rounded=0;" parent="1" vertex="1">
          <mxGeometry x="-1120" y="1570" width="90" height="30" as="geometry" />
        </mxCell>
        <mxCell id="9fai15Jy2hckLmUoozY7-476" value="" style="rounded=0;whiteSpace=wrap;html=1;fillColor=none;" parent="1" vertex="1">
          <mxGeometry x="30" y="1350" width="149.5" height="71.5" as="geometry" />
        </mxCell>
        <mxCell id="9fai15Jy2hckLmUoozY7-474" value="G" style="dashed=0;outlineConnect=0;align=center;html=1;shape=mxgraph.pid.engines.generator_(dc);fontSize=45;" parent="1" vertex="1">
          <mxGeometry x="37.5" y="1361.5" width="53" height="56" as="geometry" />
        </mxCell>
        <mxCell id="9fai15Jy2hckLmUoozY7-479" value="" style="sketch=0;outlineConnect=0;fontColor=#232F3E;gradientColor=none;fillColor=#8C4FFF;strokeColor=none;dashed=0;verticalLabelPosition=bottom;verticalAlign=top;align=center;html=1;fontSize=12;fontStyle=0;aspect=fixed;pointerEvents=1;shape=mxgraph.aws4.emr_engine;" parent="1" vertex="1">
          <mxGeometry x="95.5" y="1356.25" width="78" height="59" as="geometry" />
        </mxCell>
        <mxCell id="9fai15Jy2hckLmUoozY7-490" value="Engine control" style="group" parent="1" vertex="1" connectable="0">
          <mxGeometry x="217" y="1445" width="120" height="60" as="geometry" />
        </mxCell>
        <mxCell id="9fai15Jy2hckLmUoozY7-482" value="Engine Control" style="rounded=0;whiteSpace=wrap;html=1;labelPosition=center;verticalLabelPosition=bottom;align=center;verticalAlign=top;" parent="9fai15Jy2hckLmUoozY7-490" vertex="1">
          <mxGeometry width="120" height="60" as="geometry" />
        </mxCell>
        <mxCell id="9fai15Jy2hckLmUoozY7-483" value="" style="ellipse;whiteSpace=wrap;html=1;aspect=fixed;" parent="9fai15Jy2hckLmUoozY7-490" vertex="1">
          <mxGeometry x="10" y="10" width="40" height="40" as="geometry" />
        </mxCell>
        <mxCell id="9fai15Jy2hckLmUoozY7-484" value="" style="ellipse;whiteSpace=wrap;html=1;aspect=fixed;" parent="9fai15Jy2hckLmUoozY7-490" vertex="1">
          <mxGeometry x="70" y="10" width="10" height="10" as="geometry" />
        </mxCell>
        <mxCell id="9fai15Jy2hckLmUoozY7-485" value="" style="ellipse;whiteSpace=wrap;html=1;aspect=fixed;" parent="9fai15Jy2hckLmUoozY7-490" vertex="1">
          <mxGeometry x="90" y="10" width="10" height="10" as="geometry" />
        </mxCell>
        <mxCell id="9fai15Jy2hckLmUoozY7-487" value="" style="ellipse;whiteSpace=wrap;html=1;aspect=fixed;" parent="9fai15Jy2hckLmUoozY7-490" vertex="1">
          <mxGeometry x="70" y="30" width="10" height="10" as="geometry" />
        </mxCell>
        <mxCell id="9fai15Jy2hckLmUoozY7-486" value="" style="ellipse;whiteSpace=wrap;html=1;aspect=fixed;" parent="9fai15Jy2hckLmUoozY7-490" vertex="1">
          <mxGeometry x="90" y="30" width="10" height="10" as="geometry" />
        </mxCell>
        <mxCell id="9fai15Jy2hckLmUoozY7-491" style="edgeStyle=none;rounded=0;orthogonalLoop=1;jettySize=auto;html=1;exitX=0;exitY=0.75;exitDx=0;exitDy=0;" parent="1" source="9fai15Jy2hckLmUoozY7-481" target="9fai15Jy2hckLmUoozY7-481" edge="1">
          <mxGeometry relative="1" as="geometry" />
        </mxCell>
        <mxCell id="9fai15Jy2hckLmUoozY7-500" value="From Engine Charge Switch" style="edgeStyle=orthogonalEdgeStyle;rounded=0;orthogonalLoop=1;jettySize=auto;html=1;strokeColor=#0000FF;strokeWidth=3;align=center;verticalAlign=middle;fontFamily=Helvetica;fontSize=11;fontColor=default;labelBackgroundColor=default;endArrow=classic;shape=link;" parent="1" source="9fai15Jy2hckLmUoozY7-475" edge="1">
          <mxGeometry relative="1" as="geometry">
            <mxPoint x="300" y="1560" as="targetPoint" />
          </mxGeometry>
        </mxCell>
        <mxCell id="9fai15Jy2hckLmUoozY7-509" style="edgeStyle=orthogonalEdgeStyle;rounded=0;orthogonalLoop=1;jettySize=auto;html=1;entryX=1;entryY=0.8;entryDx=0;entryDy=0;strokeColor=default;strokeWidth=3;align=center;verticalAlign=middle;fontFamily=Helvetica;fontSize=11;fontColor=default;labelBackgroundColor=default;endArrow=none;endFill=0;" parent="1" source="9fai15Jy2hckLmUoozY7-475" target="9fai15Jy2hckLmUoozY7-508" edge="1">
          <mxGeometry relative="1" as="geometry">
            <Array as="points">
              <mxPoint x="96" y="1530" />
              <mxPoint x="170" y="1530" />
              <mxPoint x="170" y="1501" />
            </Array>
          </mxGeometry>
        </mxCell>
        <object label="150Ah - 12V - LiFePo4&lt;br&gt;Bluetooth Xiaoxiang BMS" Text="150A LiFePo4" placeholders="1" id="9fai15Jy2hckLmUoozY7-475">
          <mxCell style="image;html=1;image=img/lib/clip_art/general/Battery_75_128x128.png;shadow=0;" parent="1" vertex="1">
            <mxGeometry x="70" y="1540" width="53" height="40" as="geometry" />
          </mxCell>
        </object>
        <mxCell id="9fai15Jy2hckLmUoozY7-494" style="edgeStyle=orthogonalEdgeStyle;rounded=0;orthogonalLoop=1;jettySize=auto;html=1;strokeColor=default;strokeWidth=3;align=center;verticalAlign=middle;fontFamily=Helvetica;fontSize=11;fontColor=default;labelBackgroundColor=default;endArrow=none;endFill=0;" parent="1" source="9fai15Jy2hckLmUoozY7-482" target="9fai15Jy2hckLmUoozY7-479" edge="1">
          <mxGeometry relative="1" as="geometry" />
        </mxCell>
        <mxCell id="9fai15Jy2hckLmUoozY7-497" style="edgeStyle=orthogonalEdgeStyle;rounded=0;orthogonalLoop=1;jettySize=auto;html=1;strokeColor=#0000FF;strokeWidth=3;align=center;verticalAlign=middle;fontFamily=Helvetica;fontSize=11;fontColor=default;labelBackgroundColor=default;endArrow=classic;shape=link;" parent="1" source="9fai15Jy2hckLmUoozY7-496" edge="1">
          <mxGeometry relative="1" as="geometry">
            <mxPoint x="700" y="210" as="targetPoint" />
          </mxGeometry>
        </mxCell>
        <mxCell id="9fai15Jy2hckLmUoozY7-499" value="To Engine" style="edgeStyle=orthogonalEdgeStyle;rounded=0;orthogonalLoop=1;jettySize=auto;html=1;strokeColor=#0000FF;strokeWidth=3;align=center;verticalAlign=middle;fontFamily=Helvetica;fontSize=11;fontColor=default;labelBackgroundColor=default;endArrow=classic;shape=link;" parent="1" source="9fai15Jy2hckLmUoozY7-496" edge="1">
          <mxGeometry relative="1" as="geometry">
            <mxPoint x="990" y="304" as="targetPoint" />
          </mxGeometry>
        </mxCell>
        <mxCell id="9fai15Jy2hckLmUoozY7-496" value="Engine Battery&lt;div&gt;&amp;nbsp;Winter Charge Switch&lt;/div&gt;" style="html=1;shape=mxgraph.electrical.electro-mechanical.pushbutton;aspect=fixed;elSwitchState=off;labelPosition=center;verticalLabelPosition=bottom;align=center;verticalAlign=top;" parent="1" vertex="1">
          <mxGeometry x="840" y="294" width="75" height="20" as="geometry" />
        </mxCell>
        <mxCell id="9fai15Jy2hckLmUoozY7-503" style="edgeStyle=orthogonalEdgeStyle;rounded=0;orthogonalLoop=1;jettySize=auto;html=1;strokeColor=#0000FF;strokeWidth=3;align=center;verticalAlign=middle;fontFamily=Helvetica;fontSize=11;fontColor=default;labelBackgroundColor=default;endArrow=none;endFill=0;exitX=-0.003;exitY=0.795;exitDx=0;exitDy=0;exitPerimeter=0;" parent="1" source="9fai15Jy2hckLmUoozY7-502" target="9fai15Jy2hckLmUoozY7-479" edge="1">
          <mxGeometry relative="1" as="geometry">
            <Array as="points">
              <mxPoint x="530" y="1377" />
              <mxPoint x="530" y="1350" />
              <mxPoint x="200" y="1350" />
              <mxPoint x="200" y="1386" />
            </Array>
          </mxGeometry>
        </mxCell>
        <mxCell id="9fai15Jy2hckLmUoozY7-504" style="edgeStyle=orthogonalEdgeStyle;rounded=0;orthogonalLoop=1;jettySize=auto;html=1;exitX=1;exitY=1;exitDx=0;exitDy=0;strokeColor=#0000FF;strokeWidth=3;align=left;verticalAlign=middle;fontFamily=Helvetica;fontSize=11;fontColor=default;labelBackgroundColor=default;endArrow=none;endFill=0;labelPosition=right;verticalLabelPosition=middle;" parent="1" source="9fai15Jy2hckLmUoozY7-502" edge="1">
          <mxGeometry relative="1" as="geometry">
            <mxPoint x="740" y="1380" as="targetPoint" />
            <Array as="points">
              <mxPoint x="730" y="1381" />
              <mxPoint x="740" y="1380" />
            </Array>
          </mxGeometry>
        </mxCell>
        <mxCell id="9fai15Jy2hckLmUoozY7-505" value="To Main Battery" style="edgeLabel;html=1;align=center;verticalAlign=middle;resizable=0;points=[];" parent="9fai15Jy2hckLmUoozY7-504" vertex="1" connectable="0">
          <mxGeometry x="-0.5576" relative="1" as="geometry">
            <mxPoint x="31" as="offset" />
          </mxGeometry>
        </mxCell>
        <mxCell id="9fai15Jy2hckLmUoozY7-502" value="Main Battery Bank&lt;br&gt;Charge Relay" style="pointerEvents=1;verticalLabelPosition=bottom;shadow=0;dashed=0;align=center;html=1;verticalAlign=top;shape=mxgraph.electrical.electro-mechanical.limitSwitch2;elSwitchState=off;" parent="1" vertex="1">
          <mxGeometry x="555" y="1361.5" width="75" height="19" as="geometry" />
        </mxCell>
        <mxCell id="9fai15Jy2hckLmUoozY7-510" style="edgeStyle=orthogonalEdgeStyle;rounded=0;orthogonalLoop=1;jettySize=auto;html=1;entryX=0.25;entryY=1;entryDx=0;entryDy=0;exitX=0.015;exitY=1;exitDx=0;exitDy=0;exitPerimeter=0;strokeColor=default;strokeWidth=3;align=center;verticalAlign=middle;fontFamily=Helvetica;fontSize=11;fontColor=default;labelBackgroundColor=default;endArrow=none;endFill=0;" parent="1" source="9fai15Jy2hckLmUoozY7-508" target="9fai15Jy2hckLmUoozY7-476" edge="1">
          <mxGeometry relative="1" as="geometry">
            <Array as="points">
              <mxPoint x="58" y="1500" />
              <mxPoint x="40" y="1500" />
              <mxPoint x="40" y="1453" />
              <mxPoint x="67" y="1453" />
            </Array>
          </mxGeometry>
        </mxCell>
        <mxCell id="9fai15Jy2hckLmUoozY7-508" value="Engine circuit breaker" style="pointerEvents=1;verticalLabelPosition=bottom;shadow=0;dashed=0;align=center;html=1;verticalAlign=top;shape=mxgraph.electrical.electro-mechanical.circuitBreaker2;elSwitchState=off;" parent="1" vertex="1">
          <mxGeometry x="57" y="1485" width="75" height="20" as="geometry" />
        </mxCell>
        <mxCell id="9fai15Jy2hckLmUoozY7-512" value="" style="endArrow=none;html=1;rounded=0;strokeWidth=2;dashed=1;" parent="1" edge="1">
          <mxGeometry width="50" height="50" relative="1" as="geometry">
            <mxPoint x="680" y="10" as="sourcePoint" />
            <mxPoint x="1160" y="10" as="targetPoint" />
          </mxGeometry>
        </mxCell>
        <mxCell id="9fai15Jy2hckLmUoozY7-513" value="" style="endArrow=none;html=1;rounded=0;strokeWidth=2;dashed=1;" parent="1" edge="1">
          <mxGeometry width="50" height="50" relative="1" as="geometry">
            <mxPoint x="680" y="150" as="sourcePoint" />
            <mxPoint x="680" y="10" as="targetPoint" />
          </mxGeometry>
        </mxCell>
        <mxCell id="9fai15Jy2hckLmUoozY7-514" value="" style="endArrow=none;html=1;rounded=0;dashed=1;strokeWidth=2;" parent="1" edge="1">
          <mxGeometry width="50" height="50" relative="1" as="geometry">
            <mxPoint x="540" y="150" as="sourcePoint" />
            <mxPoint x="680" y="150" as="targetPoint" />
          </mxGeometry>
        </mxCell>
        <mxCell id="9fai15Jy2hckLmUoozY7-515" value="" style="endArrow=none;html=1;rounded=0;dashed=1;strokeWidth=2;" parent="1" edge="1">
          <mxGeometry width="50" height="50" relative="1" as="geometry">
            <mxPoint x="540" y="240" as="sourcePoint" />
            <mxPoint x="540" y="150" as="targetPoint" />
          </mxGeometry>
        </mxCell>
        <mxCell id="9fai15Jy2hckLmUoozY7-516" value="" style="endArrow=none;html=1;rounded=0;dashed=1;strokeWidth=2;" parent="1" edge="1">
          <mxGeometry width="50" height="50" relative="1" as="geometry">
            <mxPoint x="540" y="240" as="sourcePoint" />
            <mxPoint x="690" y="240" as="targetPoint" />
          </mxGeometry>
        </mxCell>
        <mxCell id="9fai15Jy2hckLmUoozY7-517" value="" style="endArrow=none;html=1;rounded=0;dashed=1;strokeWidth=2;" parent="1" edge="1">
          <mxGeometry width="50" height="50" relative="1" as="geometry">
            <mxPoint x="690" y="350" as="sourcePoint" />
            <mxPoint x="690" y="240" as="targetPoint" />
          </mxGeometry>
        </mxCell>
        <mxCell id="9fai15Jy2hckLmUoozY7-518" value="" style="endArrow=none;html=1;rounded=0;dashed=1;strokeWidth=2;" parent="1" edge="1">
          <mxGeometry width="50" height="50" relative="1" as="geometry">
            <mxPoint x="690" y="350" as="sourcePoint" />
            <mxPoint x="1030" y="350" as="targetPoint" />
          </mxGeometry>
        </mxCell>
        <mxCell id="9fai15Jy2hckLmUoozY7-519" value="" style="endArrow=none;html=1;rounded=0;dashed=1;strokeWidth=2;" parent="1" edge="1">
          <mxGeometry width="50" height="50" relative="1" as="geometry">
            <mxPoint x="1030" y="350" as="sourcePoint" />
            <mxPoint x="1030" y="280" as="targetPoint" />
          </mxGeometry>
        </mxCell>
        <mxCell id="9fai15Jy2hckLmUoozY7-520" value="&lt;font style=&quot;font-size: 22px;&quot;&gt;Battery Box&lt;/font&gt;" style="endArrow=none;html=1;rounded=0;dashed=1;strokeWidth=2;align=center;labelPosition=center;verticalLabelPosition=bottom;verticalAlign=top;" parent="1" edge="1">
          <mxGeometry width="50" height="50" relative="1" as="geometry">
            <mxPoint x="1030" y="280" as="sourcePoint" />
            <mxPoint x="1160" y="280" as="targetPoint" />
          </mxGeometry>
        </mxCell>
        <mxCell id="9fai15Jy2hckLmUoozY7-521" value="" style="endArrow=none;html=1;rounded=0;dashed=1;strokeWidth=2;" parent="1" edge="1">
          <mxGeometry width="50" height="50" relative="1" as="geometry">
            <mxPoint x="1160" y="280" as="sourcePoint" />
            <mxPoint x="1160" y="10" as="targetPoint" />
          </mxGeometry>
        </mxCell>
        <mxCell id="9fai15Jy2hckLmUoozY7-103" value="RS232 &amp;lt;-&amp;gt; USB" style="sketch=0;outlineConnect=0;fontColor=#232F3E;gradientColor=none;fillColor=#ED7100;strokeColor=none;dashed=0;verticalLabelPosition=bottom;verticalAlign=top;align=center;html=1;fontSize=12;fontStyle=0;aspect=fixed;pointerEvents=1;shape=mxgraph.aws4.r5_instance;labelBackgroundColor=default;" parent="1" vertex="1">
          <mxGeometry x="210.00000000000006" y="414" width="48" height="48" as="geometry" />
        </mxCell>
        <mxCell id="9fai15Jy2hckLmUoozY7-524" value="Rev 0.9 -2024" style="text;html=1;align=center;verticalAlign=middle;whiteSpace=wrap;rounded=0;" parent="1" vertex="1">
          <mxGeometry x="-1130" y="1619" width="100" height="30" as="geometry" />
        </mxCell>
        <mxCell id="9fai15Jy2hckLmUoozY7-533" value="Engine control" style="group" parent="1" vertex="1" connectable="0">
          <mxGeometry x="-583.64" y="1489.25" width="70" height="40" as="geometry" />
        </mxCell>
        <mxCell id="9fai15Jy2hckLmUoozY7-534" value="Heater control" style="rounded=0;whiteSpace=wrap;html=1;labelPosition=center;verticalLabelPosition=bottom;align=center;verticalAlign=top;" parent="9fai15Jy2hckLmUoozY7-533" vertex="1">
          <mxGeometry width="70" height="40" as="geometry" />
        </mxCell>
        <mxCell id="9fai15Jy2hckLmUoozY7-535" value="" style="ellipse;whiteSpace=wrap;html=1;aspect=fixed;" parent="9fai15Jy2hckLmUoozY7-533" vertex="1">
          <mxGeometry x="5.833333333333334" y="6.666666666666666" width="23.333333333333336" height="23.333333333333336" as="geometry" />
        </mxCell>
        <mxCell id="9fai15Jy2hckLmUoozY7-536" value="" style="ellipse;whiteSpace=wrap;html=1;aspect=fixed;" parent="9fai15Jy2hckLmUoozY7-533" vertex="1">
          <mxGeometry x="40.833333333333336" y="6.666666666666666" width="5.833333333333334" height="5.833333333333334" as="geometry" />
        </mxCell>
        <mxCell id="9fai15Jy2hckLmUoozY7-537" value="" style="ellipse;whiteSpace=wrap;html=1;aspect=fixed;" parent="9fai15Jy2hckLmUoozY7-533" vertex="1">
          <mxGeometry x="52.5" y="6.666666666666666" width="5.833333333333334" height="5.833333333333334" as="geometry" />
        </mxCell>
        <mxCell id="9fai15Jy2hckLmUoozY7-538" value="" style="ellipse;whiteSpace=wrap;html=1;aspect=fixed;" parent="9fai15Jy2hckLmUoozY7-533" vertex="1">
          <mxGeometry x="40.833333333333336" y="20" width="5.833333333333334" height="5.833333333333334" as="geometry" />
        </mxCell>
        <mxCell id="9fai15Jy2hckLmUoozY7-539" value="" style="ellipse;whiteSpace=wrap;html=1;aspect=fixed;" parent="9fai15Jy2hckLmUoozY7-533" vertex="1">
          <mxGeometry x="52.5" y="20" width="5.833333333333334" height="5.833333333333334" as="geometry" />
        </mxCell>
        <mxCell id="9fai15Jy2hckLmUoozY7-543" style="edgeStyle=orthogonalEdgeStyle;rounded=0;orthogonalLoop=1;jettySize=auto;html=1;exitX=0.5;exitY=0;exitDx=0;exitDy=0;entryX=0.558;entryY=0.894;entryDx=0;entryDy=0;entryPerimeter=0;strokeColor=default;strokeWidth=3;align=center;verticalAlign=middle;fontFamily=Helvetica;fontSize=11;fontColor=default;labelBackgroundColor=default;endArrow=none;endFill=0;" parent="1" source="9fai15Jy2hckLmUoozY7-534" target="9fai15Jy2hckLmUoozY7-525" edge="1">
          <mxGeometry relative="1" as="geometry">
            <Array as="points">
              <mxPoint x="-548.64" y="1479.25" />
              <mxPoint x="-602.64" y="1479.25" />
            </Array>
          </mxGeometry>
        </mxCell>
        <mxCell id="9fai15Jy2hckLmUoozY7-525" value="Diesel Heater" style="shape=mxgraph.pid.heat_exchangers.reboiler;html=1;pointerEvents=1;align=center;verticalLabelPosition=bottom;verticalAlign=top;dashed=0;labelBackgroundColor=default;" parent="1" vertex="1">
          <mxGeometry x="-653.64" y="1415.25" width="91" height="33" as="geometry" />
        </mxCell>
        <mxCell id="9fai15Jy2hckLmUoozY7-544" value="&lt;font style=&quot;font-size: 13px;&quot;&gt;~12V&lt;/font&gt;" style="edgeStyle=orthogonalEdgeStyle;rounded=0;orthogonalLoop=1;jettySize=auto;html=1;strokeColor=#0000FF;strokeWidth=3;align=center;verticalAlign=middle;fontFamily=Helvetica;fontSize=11;fontColor=default;labelBackgroundColor=default;endArrow=none;endFill=0;" parent="1" edge="1">
          <mxGeometry x="-0.3334" relative="1" as="geometry">
            <mxPoint x="-723.64" y="1454.25" as="targetPoint" />
            <mxPoint x="-653.64" y="1434.25" as="sourcePoint" />
            <mxPoint as="offset" />
          </mxGeometry>
        </mxCell>
        <mxCell id="9fai15Jy2hckLmUoozY7-545" value="Fresh Water Pump" style="shape=mxgraph.pid.pumps.screw_pump;html=1;pointerEvents=1;align=center;verticalLabelPosition=bottom;verticalAlign=top;dashed=0;" parent="1" vertex="1">
          <mxGeometry x="-659" y="1505" width="50" height="46" as="geometry" />
        </mxCell>
        <mxCell id="9fai15Jy2hckLmUoozY7-546" value="&lt;font style=&quot;font-size: 13px;&quot;&gt;~12V&lt;/font&gt;" style="edgeStyle=orthogonalEdgeStyle;rounded=0;orthogonalLoop=1;jettySize=auto;html=1;strokeColor=#0000FF;strokeWidth=3;align=center;verticalAlign=middle;fontFamily=Helvetica;fontSize=11;fontColor=default;labelBackgroundColor=default;endArrow=none;endFill=0;" parent="1" edge="1">
          <mxGeometry x="-0.3334" relative="1" as="geometry">
            <mxPoint x="-729" y="1542" as="targetPoint" />
            <mxPoint x="-659" y="1522" as="sourcePoint" />
            <mxPoint as="offset" />
          </mxGeometry>
        </mxCell>
        <mxCell id="33nvoL1grRUddth2KiKv-13" value="Auto Pilot&#xa;5xButton Control" style="group;labelPosition=center;verticalLabelPosition=bottom;align=center;verticalAlign=top;labelBackgroundColor=default;" vertex="1" connectable="0" parent="1">
          <mxGeometry x="-300" y="1030" width="100" height="30" as="geometry" />
        </mxCell>
        <mxCell id="33nvoL1grRUddth2KiKv-1" value="" style="rounded=0;whiteSpace=wrap;html=1;" vertex="1" parent="33nvoL1grRUddth2KiKv-13">
          <mxGeometry width="100" height="30" as="geometry" />
        </mxCell>
        <mxCell id="33nvoL1grRUddth2KiKv-2" value="" style="whiteSpace=wrap;html=1;aspect=fixed;" vertex="1" parent="33nvoL1grRUddth2KiKv-13">
          <mxGeometry x="4.166666666666666" y="10" width="8.333333333333332" height="8.333333333333332" as="geometry" />
        </mxCell>
        <mxCell id="33nvoL1grRUddth2KiKv-5" value="" style="whiteSpace=wrap;html=1;aspect=fixed;" vertex="1" parent="33nvoL1grRUddth2KiKv-13">
          <mxGeometry x="25" y="10" width="8.333333333333332" height="8.333333333333332" as="geometry" />
        </mxCell>
        <mxCell id="33nvoL1grRUddth2KiKv-6" value="" style="whiteSpace=wrap;html=1;aspect=fixed;" vertex="1" parent="33nvoL1grRUddth2KiKv-13">
          <mxGeometry x="41.666666666666664" y="10" width="8.333333333333332" height="8.333333333333332" as="geometry" />
        </mxCell>
        <mxCell id="33nvoL1grRUddth2KiKv-7" value="" style="whiteSpace=wrap;html=1;aspect=fixed;" vertex="1" parent="33nvoL1grRUddth2KiKv-13">
          <mxGeometry x="58.33333333333332" y="10" width="8.333333333333332" height="8.333333333333332" as="geometry" />
        </mxCell>
        <mxCell id="33nvoL1grRUddth2KiKv-8" value="" style="whiteSpace=wrap;html=1;aspect=fixed;" vertex="1" parent="33nvoL1grRUddth2KiKv-13">
          <mxGeometry x="78.33333333333333" y="10" width="8.333333333333332" height="8.333333333333332" as="geometry" />
        </mxCell>
        <mxCell id="33nvoL1grRUddth2KiKv-14" style="edgeStyle=orthogonalEdgeStyle;rounded=0;orthogonalLoop=1;jettySize=auto;html=1;strokeColor=default;strokeWidth=3;align=center;verticalAlign=middle;fontFamily=Helvetica;fontSize=11;fontColor=default;labelBackgroundColor=default;endArrow=none;endFill=0;" edge="1" parent="1" source="33nvoL1grRUddth2KiKv-1">
          <mxGeometry relative="1" as="geometry">
            <mxPoint x="-180" y="1295" as="targetPoint" />
            <Array as="points">
              <mxPoint x="-180" y="1045" />
              <mxPoint x="-180" y="1295" />
            </Array>
          </mxGeometry>
        </mxCell>
        <mxCell id="33nvoL1grRUddth2KiKv-17" style="edgeStyle=orthogonalEdgeStyle;rounded=0;orthogonalLoop=1;jettySize=auto;html=1;strokeColor=#FFD966;strokeWidth=3;align=center;verticalAlign=middle;fontFamily=Helvetica;fontSize=11;fontColor=default;labelBackgroundColor=default;endArrow=none;endFill=0;" edge="1" parent="1" source="33nvoL1grRUddth2KiKv-15">
          <mxGeometry relative="1" as="geometry">
            <mxPoint x="-960" y="1604" as="targetPoint" />
          </mxGeometry>
        </mxCell>
        <mxCell id="33nvoL1grRUddth2KiKv-15" value="+5V" style="text;html=1;align=left;verticalAlign=middle;whiteSpace=wrap;rounded=0;" vertex="1" parent="1">
          <mxGeometry x="-1125" y="1589" width="90" height="30" as="geometry" />
        </mxCell>
        <mxCell id="33nvoL1grRUddth2KiKv-18" value="Cabin Downlight 5581&lt;br&gt;&amp;nbsp;(Red + White)&amp;nbsp;" style="text;html=1;align=center;verticalAlign=middle;whiteSpace=wrap;rounded=0;" vertex="1" parent="1">
          <mxGeometry x="-798.64" y="90" width="150" height="30" as="geometry" />
        </mxCell>
        <mxCell id="33nvoL1grRUddth2KiKv-19" value="Cabin Downlight 5581&lt;br&gt;(White)" style="text;html=1;align=center;verticalAlign=middle;whiteSpace=wrap;rounded=0;" vertex="1" parent="1">
          <mxGeometry x="-830" y="340" width="158" height="30" as="geometry" />
        </mxCell>
      </root>
    </mxGraphModel>
  </diagram>
</mxfile>
